<?xml version="1.0" encoding="UTF-8" standalone="no"?>
<!-- Created with Inkscape (http://www.inkscape.org/) -->

<svg
   width="900"
   height="600"
   viewBox="0 0 238.12499 158.75"
   version="1.1"
   id="svg1"
   inkscape:version="1.4 (1:1.4+202410161351+e7c3feb100)"
   sodipodi:docname="plot_ptn1.svg"
   xml:space="preserve"
   xmlns:inkscape="http://www.inkscape.org/namespaces/inkscape"
   xmlns:sodipodi="http://sodipodi.sourceforge.net/DTD/sodipodi-0.dtd"
   xmlns="http://www.w3.org/2000/svg"
   xmlns:svg="http://www.w3.org/2000/svg"><sodipodi:namedview
     id="namedview1"
     pagecolor="#ffffff"
     bordercolor="#666666"
     borderopacity="1.0"
     inkscape:showpageshadow="2"
     inkscape:pageopacity="0.0"
     inkscape:pagecheckerboard="0"
     inkscape:deskcolor="#d1d1d1"
     inkscape:document-units="px"
     inkscape:zoom="0.61827649"
     inkscape:cx="400.30634"
     inkscape:cy="176.29653"
     inkscape:window-width="1558"
     inkscape:window-height="755"
     inkscape:window-x="54"
     inkscape:window-y="27"
     inkscape:window-maximized="0"
     inkscape:current-layer="layer1" /><defs
     id="defs1"><clipPath
       id="zJtIFcUWJhtA"><path
         fill="none"
         stroke="none"
         d="M 0,0 H 847 V 589 H 0 Z"
         id="path1" /></clipPath></defs><g
     inkscape:label="Camada 1"
     inkscape:groupmode="layer"
     id="layer1"><rect
       style="fill:#ffffff;stroke:none;stroke-width:2.3564;stroke-linecap:round;stroke-dasharray:none"
       id="rect12"
       width="238.125"
       height="158.75"
       x="-2.4999999e-06"
       y="-1.6666667e-06" /><g
       id="g74"
       transform="matrix(0.26458333,0,0,0.26458333,6.8791656,1.322916)"><rect
         fill="#ffffff"
         stroke="none"
         x="0"
         y="0"
         width="847"
         height="589"
         fill-opacity="1"
         id="rect1" /><path
         fill="none"
         stroke="#c0c0c0"
         paint-order="fill stroke markers"
         d="m 0.5,0.5 v 589 m 0,-589 v 589 m 196,-589 v 589 m 98,-589 v 589 m 98,-589 v 589 m 98,-589 v 589 m 98,-589 v 589 m 98,-589 v 589 m 98,-589 v 589"
         stroke-opacity="1"
         stroke-linecap="round"
         stroke-linejoin="round"
         stroke-miterlimit="10"
         id="path2" /><path
         fill="none"
         stroke="#c0c0c0"
         paint-order="fill stroke markers"
         d="m 20.5,0.5 v 589 m 19,-589 v 589 m 20,-589 v 589 m 20,-589 v 589 m 39,-589 v 589 m 19,-589 v 589 m 20,-589 v 589 m 20,-589 v 589 m 39,-589 v 589 m 19,-589 v 589 m 20,-589 v 589 m 20,-589 v 589 m 39,-589 v 589 m 19,-589 v 589 m 20,-589 v 589 m 20,-589 v 589 m 39,-589 v 589 m 19,-589 v 589 m 20,-589 v 589 m 19,-589 v 589 m 40,-589 v 589 m 19,-589 v 589 m 20,-589 v 589 m 19,-589 v 589 m 40,-589 v 589 m 19,-589 v 589 m 20,-589 v 589 m 19,-589 v 589 m 40,-589 v 589 m 19,-589 v 589 m 20,-589 v 589 m 19,-589 v 589 m 40,-589 v 589 m 19,-589 v 589 m 20,-589 v 589"
         stroke-opacity="0.235294"
         stroke-linecap="round"
         stroke-linejoin="round"
         stroke-miterlimit="10"
         id="path3" /><path
         fill="none"
         stroke="#c0c0c0"
         paint-order="fill stroke markers"
         d="m 0.5,66.5 h 847 m -847,0 h 847 m -847,68 h 847 m -847,68 h 847 m -847,68 h 847 m -847,68 h 847 m -847,136 h 847 m -847,68 h 847"
         stroke-opacity="1"
         stroke-linecap="round"
         stroke-linejoin="round"
         stroke-miterlimit="10"
         id="path4" /><path
         fill="none"
         stroke="#c0c0c0"
         paint-order="fill stroke markers"
         d="m 0.5,12.5 h 847 m -847,14 h 847 m -847,13 h 847 m -847,14 h 847 m -847,27 h 847 m -847,14 h 847 m -847,13 h 847 m -847,14 h 847 m -847,27 h 847 m -847,13 h 847 m -847,14 h 847 m -847,14 h 847 m -847,27 h 847 m -847,13 h 847 m -847,14 h 847 m -847,14 h 847 m -847,27 h 847 m -847,13 h 847 m -847,14 h 847 m -847,13 h 847 m -847,28 h 847 m -847,13 h 847 m -847,14 h 847 m -847,13 h 847 m -847,28 h 847 m -847,13 h 847 m -847,14 h 847 m -847,13 h 847 m -847,27 h 847 m -847,14 h 847 m -847,14 h 847 m -847,13 h 847 m -847,27 h 847 m -847,14 h 847 m -847,14 h 847"
         stroke-opacity="0.235294"
         stroke-linecap="round"
         stroke-linejoin="round"
         stroke-miterlimit="10"
         id="path5" /><path
         fill="none"
         stroke="#000000"
         paint-order="fill stroke markers"
         d="m 98.5,2.5 v 587"
         stroke-opacity="1"
         stroke-miterlimit="10"
         id="path6" /><path
         fill="none"
         stroke="#000000"
         paint-order="fill stroke markers"
         d="m 98.5,1.5 -4,4"
         stroke-opacity="1"
         stroke-miterlimit="10"
         id="path7" /><path
         fill="none"
         stroke="#000000"
         paint-order="fill stroke markers"
         d="m 98.5,1.5 4,4"
         stroke-opacity="1"
         stroke-miterlimit="10"
         id="path8" /><path
         fill="none"
         stroke="#000000"
         paint-order="fill stroke markers"
         d="m 0.5,406.5 h 845"
         stroke-opacity="1"
         stroke-miterlimit="10"
         id="path9" /><path
         fill="none"
         stroke="#000000"
         paint-order="fill stroke markers"
         d="m 846.5,406.5 -4,-4"
         stroke-opacity="1"
         stroke-miterlimit="10"
         id="path10" /><path
         fill="none"
         stroke="#000000"
         paint-order="fill stroke markers"
         d="m 846.5,406.5 -4,4"
         stroke-opacity="1"
         stroke-miterlimit="10"
         id="path11" /><text
         fill="#000000"
         stroke="none"
         font-family="geogebra-sans-serif, sans-serif"
         font-size="14px"
         font-style="normal"
         font-weight="normal"
         text-decoration="normal"
         x="187"
         y="424"
         text-anchor="start"
         dominant-baseline="alphabetic"
         fill-opacity="1"
         id="text11">100</text><text
         fill="none"
         stroke="#ffffff"
         font-family="geogebra-sans-serif, sans-serif"
         font-size="14px"
         font-style="normal"
         font-weight="normal"
         text-decoration="normal"
         x="187"
         y="424"
         text-anchor="start"
         dominant-baseline="alphabetic"
         stroke-opacity="1"
         stroke-linejoin="bevel"
         stroke-miterlimit="10"
         stroke-width="3"
         id="text12">100</text><text
         fill="#000000"
         stroke="none"
         font-family="geogebra-sans-serif, sans-serif"
         font-size="14px"
         font-style="normal"
         font-weight="normal"
         text-decoration="normal"
         x="187"
         y="424"
         text-anchor="start"
         dominant-baseline="alphabetic"
         fill-opacity="1"
         id="text13">100</text><text
         fill="#000000"
         stroke="none"
         font-family="geogebra-sans-serif, sans-serif"
         font-size="14px"
         font-style="normal"
         font-weight="normal"
         text-decoration="normal"
         x="285"
         y="424"
         text-anchor="start"
         dominant-baseline="alphabetic"
         fill-opacity="1"
         id="text14">200</text><text
         fill="none"
         stroke="#ffffff"
         font-family="geogebra-sans-serif, sans-serif"
         font-size="14px"
         font-style="normal"
         font-weight="normal"
         text-decoration="normal"
         x="285"
         y="424"
         text-anchor="start"
         dominant-baseline="alphabetic"
         stroke-opacity="1"
         stroke-linejoin="bevel"
         stroke-miterlimit="10"
         stroke-width="3"
         id="text15">200</text><text
         fill="#000000"
         stroke="none"
         font-family="geogebra-sans-serif, sans-serif"
         font-size="14px"
         font-style="normal"
         font-weight="normal"
         text-decoration="normal"
         x="285"
         y="424"
         text-anchor="start"
         dominant-baseline="alphabetic"
         fill-opacity="1"
         id="text16">200</text><text
         fill="#000000"
         stroke="none"
         font-family="geogebra-sans-serif, sans-serif"
         font-size="14px"
         font-style="normal"
         font-weight="normal"
         text-decoration="normal"
         x="383"
         y="424"
         text-anchor="start"
         dominant-baseline="alphabetic"
         fill-opacity="1"
         id="text17">300</text><text
         fill="none"
         stroke="#ffffff"
         font-family="geogebra-sans-serif, sans-serif"
         font-size="14px"
         font-style="normal"
         font-weight="normal"
         text-decoration="normal"
         x="383"
         y="424"
         text-anchor="start"
         dominant-baseline="alphabetic"
         stroke-opacity="1"
         stroke-linejoin="bevel"
         stroke-miterlimit="10"
         stroke-width="3"
         id="text18">300</text><text
         fill="#000000"
         stroke="none"
         font-family="geogebra-sans-serif, sans-serif"
         font-size="14px"
         font-style="normal"
         font-weight="normal"
         text-decoration="normal"
         x="383"
         y="424"
         text-anchor="start"
         dominant-baseline="alphabetic"
         fill-opacity="1"
         id="text19">300</text><text
         fill="#000000"
         stroke="none"
         font-family="geogebra-sans-serif, sans-serif"
         font-size="14px"
         font-style="normal"
         font-weight="normal"
         text-decoration="normal"
         x="481"
         y="424"
         text-anchor="start"
         dominant-baseline="alphabetic"
         fill-opacity="1"
         id="text20">400</text><text
         fill="none"
         stroke="#ffffff"
         font-family="geogebra-sans-serif, sans-serif"
         font-size="14px"
         font-style="normal"
         font-weight="normal"
         text-decoration="normal"
         x="481"
         y="424"
         text-anchor="start"
         dominant-baseline="alphabetic"
         stroke-opacity="1"
         stroke-linejoin="bevel"
         stroke-miterlimit="10"
         stroke-width="3"
         id="text21">400</text><text
         fill="#000000"
         stroke="none"
         font-family="geogebra-sans-serif, sans-serif"
         font-size="14px"
         font-style="normal"
         font-weight="normal"
         text-decoration="normal"
         x="481"
         y="424"
         text-anchor="start"
         dominant-baseline="alphabetic"
         fill-opacity="1"
         id="text22">400</text><text
         fill="#000000"
         stroke="none"
         font-family="geogebra-sans-serif, sans-serif"
         font-size="14px"
         font-style="normal"
         font-weight="normal"
         text-decoration="normal"
         x="579"
         y="424"
         text-anchor="start"
         dominant-baseline="alphabetic"
         fill-opacity="1"
         id="text23">500</text><text
         fill="none"
         stroke="#ffffff"
         font-family="geogebra-sans-serif, sans-serif"
         font-size="14px"
         font-style="normal"
         font-weight="normal"
         text-decoration="normal"
         x="579"
         y="424"
         text-anchor="start"
         dominant-baseline="alphabetic"
         stroke-opacity="1"
         stroke-linejoin="bevel"
         stroke-miterlimit="10"
         stroke-width="3"
         id="text24">500</text><text
         fill="#000000"
         stroke="none"
         font-family="geogebra-sans-serif, sans-serif"
         font-size="14px"
         font-style="normal"
         font-weight="normal"
         text-decoration="normal"
         x="579"
         y="424"
         text-anchor="start"
         dominant-baseline="alphabetic"
         fill-opacity="1"
         id="text25">500</text><text
         fill="#000000"
         stroke="none"
         font-family="geogebra-sans-serif, sans-serif"
         font-size="14px"
         font-style="normal"
         font-weight="normal"
         text-decoration="normal"
         x="676"
         y="424"
         text-anchor="start"
         dominant-baseline="alphabetic"
         fill-opacity="1"
         id="text26">600</text><text
         fill="none"
         stroke="#ffffff"
         font-family="geogebra-sans-serif, sans-serif"
         font-size="14px"
         font-style="normal"
         font-weight="normal"
         text-decoration="normal"
         x="676"
         y="424"
         text-anchor="start"
         dominant-baseline="alphabetic"
         stroke-opacity="1"
         stroke-linejoin="bevel"
         stroke-miterlimit="10"
         stroke-width="3"
         id="text27">600</text><text
         fill="#000000"
         stroke="none"
         font-family="geogebra-sans-serif, sans-serif"
         font-size="14px"
         font-style="normal"
         font-weight="normal"
         text-decoration="normal"
         x="676"
         y="424"
         text-anchor="start"
         dominant-baseline="alphabetic"
         fill-opacity="1"
         id="text28">600</text><text
         fill="#000000"
         stroke="none"
         font-family="geogebra-sans-serif, sans-serif"
         font-size="14px"
         font-style="normal"
         font-weight="normal"
         text-decoration="normal"
         x="774"
         y="424"
         text-anchor="start"
         dominant-baseline="alphabetic"
         fill-opacity="1"
         id="text29">700</text><text
         fill="none"
         stroke="#ffffff"
         font-family="geogebra-sans-serif, sans-serif"
         font-size="14px"
         font-style="normal"
         font-weight="normal"
         text-decoration="normal"
         x="774"
         y="424"
         text-anchor="start"
         dominant-baseline="alphabetic"
         stroke-opacity="1"
         stroke-linejoin="bevel"
         stroke-miterlimit="10"
         stroke-width="3"
         id="text30">700</text><text
         fill="#000000"
         stroke="none"
         font-family="geogebra-sans-serif, sans-serif"
         font-size="14px"
         font-style="normal"
         font-weight="normal"
         text-decoration="normal"
         x="774"
         y="424"
         text-anchor="start"
         dominant-baseline="alphabetic"
         fill-opacity="1"
         id="text31">700</text><text
         fill="#000000"
         stroke="none"
         font-family="geogebra-sans-serif, sans-serif"
         font-size="14px"
         font-style="normal"
         font-weight="normal"
         text-decoration="normal"
         x="60"
         y="548"
         text-anchor="start"
         dominant-baseline="alphabetic"
         fill-opacity="1"
         id="text32">–100</text><text
         fill="none"
         stroke="#ffffff"
         font-family="geogebra-sans-serif, sans-serif"
         font-size="14px"
         font-style="normal"
         font-weight="normal"
         text-decoration="normal"
         x="60"
         y="548"
         text-anchor="start"
         dominant-baseline="alphabetic"
         stroke-opacity="1"
         stroke-linejoin="bevel"
         stroke-miterlimit="10"
         stroke-width="3"
         id="text33">–100</text><text
         fill="#000000"
         stroke="none"
         font-family="geogebra-sans-serif, sans-serif"
         font-size="14px"
         font-style="normal"
         font-weight="normal"
         text-decoration="normal"
         x="60"
         y="548"
         text-anchor="start"
         dominant-baseline="alphabetic"
         fill-opacity="1"
         id="text34">–100</text><text
         fill="#000000"
         stroke="none"
         font-family="geogebra-sans-serif, sans-serif"
         font-size="14px"
         font-style="normal"
         font-weight="normal"
         text-decoration="normal"
         x="68"
         y="480"
         text-anchor="start"
         dominant-baseline="alphabetic"
         fill-opacity="1"
         id="text35">–50</text><text
         fill="none"
         stroke="#ffffff"
         font-family="geogebra-sans-serif, sans-serif"
         font-size="14px"
         font-style="normal"
         font-weight="normal"
         text-decoration="normal"
         x="68"
         y="480"
         text-anchor="start"
         dominant-baseline="alphabetic"
         stroke-opacity="1"
         stroke-linejoin="bevel"
         stroke-miterlimit="10"
         stroke-width="3"
         id="text36">–50</text><text
         fill="#000000"
         stroke="none"
         font-family="geogebra-sans-serif, sans-serif"
         font-size="14px"
         font-style="normal"
         font-weight="normal"
         text-decoration="normal"
         x="68"
         y="480"
         text-anchor="start"
         dominant-baseline="alphabetic"
         fill-opacity="1"
         id="text37">–50</text><text
         fill="#000000"
         stroke="none"
         font-family="geogebra-sans-serif, sans-serif"
         font-size="14px"
         font-style="normal"
         font-weight="normal"
         text-decoration="normal"
         x="75"
         y="344"
         text-anchor="start"
         dominant-baseline="alphabetic"
         fill-opacity="1"
         id="text38">50</text><text
         fill="none"
         stroke="#ffffff"
         font-family="geogebra-sans-serif, sans-serif"
         font-size="14px"
         font-style="normal"
         font-weight="normal"
         text-decoration="normal"
         x="75"
         y="344"
         text-anchor="start"
         dominant-baseline="alphabetic"
         stroke-opacity="1"
         stroke-linejoin="bevel"
         stroke-miterlimit="10"
         stroke-width="3"
         id="text39">50</text><text
         fill="#000000"
         stroke="none"
         font-family="geogebra-sans-serif, sans-serif"
         font-size="14px"
         font-style="normal"
         font-weight="normal"
         text-decoration="normal"
         x="75"
         y="344"
         text-anchor="start"
         dominant-baseline="alphabetic"
         fill-opacity="1"
         id="text40">50</text><text
         fill="#000000"
         stroke="none"
         font-family="geogebra-sans-serif, sans-serif"
         font-size="14px"
         font-style="normal"
         font-weight="normal"
         text-decoration="normal"
         x="68"
         y="276"
         text-anchor="start"
         dominant-baseline="alphabetic"
         fill-opacity="1"
         id="text41">100</text><text
         fill="none"
         stroke="#ffffff"
         font-family="geogebra-sans-serif, sans-serif"
         font-size="14px"
         font-style="normal"
         font-weight="normal"
         text-decoration="normal"
         x="68"
         y="276"
         text-anchor="start"
         dominant-baseline="alphabetic"
         stroke-opacity="1"
         stroke-linejoin="bevel"
         stroke-miterlimit="10"
         stroke-width="3"
         id="text42">100</text><text
         fill="#000000"
         stroke="none"
         font-family="geogebra-sans-serif, sans-serif"
         font-size="14px"
         font-style="normal"
         font-weight="normal"
         text-decoration="normal"
         x="68"
         y="276"
         text-anchor="start"
         dominant-baseline="alphabetic"
         fill-opacity="1"
         id="text43">100</text><text
         fill="#000000"
         stroke="none"
         font-family="geogebra-sans-serif, sans-serif"
         font-size="14px"
         font-style="normal"
         font-weight="normal"
         text-decoration="normal"
         x="68"
         y="208"
         text-anchor="start"
         dominant-baseline="alphabetic"
         fill-opacity="1"
         id="text44">150</text><text
         fill="none"
         stroke="#ffffff"
         font-family="geogebra-sans-serif, sans-serif"
         font-size="14px"
         font-style="normal"
         font-weight="normal"
         text-decoration="normal"
         x="68"
         y="208"
         text-anchor="start"
         dominant-baseline="alphabetic"
         stroke-opacity="1"
         stroke-linejoin="bevel"
         stroke-miterlimit="10"
         stroke-width="3"
         id="text45">150</text><text
         fill="#000000"
         stroke="none"
         font-family="geogebra-sans-serif, sans-serif"
         font-size="14px"
         font-style="normal"
         font-weight="normal"
         text-decoration="normal"
         x="68"
         y="208"
         text-anchor="start"
         dominant-baseline="alphabetic"
         fill-opacity="1"
         id="text46">150</text><text
         fill="#000000"
         stroke="none"
         font-family="geogebra-sans-serif, sans-serif"
         font-size="14px"
         font-style="normal"
         font-weight="normal"
         text-decoration="normal"
         x="68"
         y="140"
         text-anchor="start"
         dominant-baseline="alphabetic"
         fill-opacity="1"
         id="text47">200</text><text
         fill="none"
         stroke="#ffffff"
         font-family="geogebra-sans-serif, sans-serif"
         font-size="14px"
         font-style="normal"
         font-weight="normal"
         text-decoration="normal"
         x="68"
         y="140"
         text-anchor="start"
         dominant-baseline="alphabetic"
         stroke-opacity="1"
         stroke-linejoin="bevel"
         stroke-miterlimit="10"
         stroke-width="3"
         id="text48">200</text><text
         fill="#000000"
         stroke="none"
         font-family="geogebra-sans-serif, sans-serif"
         font-size="14px"
         font-style="normal"
         font-weight="normal"
         text-decoration="normal"
         x="68"
         y="140"
         text-anchor="start"
         dominant-baseline="alphabetic"
         fill-opacity="1"
         id="text49">200</text><text
         fill="#000000"
         stroke="none"
         font-family="geogebra-sans-serif, sans-serif"
         font-size="14px"
         font-style="normal"
         font-weight="normal"
         text-decoration="normal"
         x="68"
         y="72"
         text-anchor="start"
         dominant-baseline="alphabetic"
         fill-opacity="1"
         id="text50">250</text><text
         fill="none"
         stroke="#ffffff"
         font-family="geogebra-sans-serif, sans-serif"
         font-size="14px"
         font-style="normal"
         font-weight="normal"
         text-decoration="normal"
         x="68"
         y="72"
         text-anchor="start"
         dominant-baseline="alphabetic"
         stroke-opacity="1"
         stroke-linejoin="bevel"
         stroke-miterlimit="10"
         stroke-width="3"
         id="text51">250</text><text
         fill="#000000"
         stroke="none"
         font-family="geogebra-sans-serif, sans-serif"
         font-size="14px"
         font-style="normal"
         font-weight="normal"
         text-decoration="normal"
         x="68"
         y="72"
         text-anchor="start"
         dominant-baseline="alphabetic"
         fill-opacity="1"
         id="text52">250</text><text
         fill="#000000"
         stroke="none"
         font-family="geogebra-sans-serif, sans-serif"
         font-size="14px"
         font-style="normal"
         font-weight="normal"
         text-decoration="normal"
         x="83"
         y="424"
         text-anchor="start"
         dominant-baseline="alphabetic"
         fill-opacity="1"
         id="text53">0</text><text
         fill="none"
         stroke="#ffffff"
         font-family="geogebra-sans-serif, sans-serif"
         font-size="14px"
         font-style="normal"
         font-weight="normal"
         text-decoration="normal"
         x="83"
         y="424"
         text-anchor="start"
         dominant-baseline="alphabetic"
         stroke-opacity="1"
         stroke-linejoin="bevel"
         stroke-miterlimit="10"
         stroke-width="3"
         id="text54">0</text><text
         fill="#000000"
         stroke="none"
         font-family="geogebra-sans-serif, sans-serif"
         font-size="14px"
         font-style="normal"
         font-weight="normal"
         text-decoration="normal"
         x="83"
         y="424"
         text-anchor="start"
         dominant-baseline="alphabetic"
         fill-opacity="1"
         id="text55">0</text><path
         fill="none"
         stroke="#000000"
         paint-order="fill stroke markers"
         d="m 98.718561,365.7191 0.539251,-0.64315 m 0,0 3.308598,-3.94606 3.30859,-3.94606 m 0,0 3.30859,-3.94606 3.3086,-3.94606 3.30859,-3.94606 3.3086,-3.94606 3.30859,-3.94606 3.30859,-3.94606 3.3086,-3.94606 3.30859,-3.94606 3.30859,-3.94606 3.3086,-3.94606 3.30859,-3.94606 3.30859,-3.94605 3.3086,-3.94606 3.30859,-3.94606 3.3086,-3.94606 3.30859,-3.94606 m 0,0 3.30859,-3.94606 3.3086,-3.94606 3.30859,-3.94606 3.30859,-3.94606 3.3086,-3.94606 3.30859,-3.94606 3.3086,-3.94606 3.30859,-3.94606 m 0,0 3.30859,-3.94606 3.3086,-3.94606 3.30859,-3.94605 3.30859,-3.94606 m 0,0 2.71822,-3.24193"
         stroke-opacity="0.698039"
         stroke-linecap="round"
         stroke-linejoin="round"
         stroke-miterlimit="10"
         stroke-width="2.5"
         id="path55" /><path
         fill="none"
         stroke="#000000"
         paint-order="fill stroke markers"
         d="m 201.23384,243.45224 h 0.59038 m 0,0 h 3.30859 m 0,0 h 3.3086 3.30859 m 0,0 h 3.30859 3.3086 3.30859 3.30859 3.3086 3.30859 3.3086 3.30859 m 0,0 h 3.30859 3.3086 3.30859 3.30859 m 0,0 h 3.3086 3.30859 m 0,0 h 1.93895"
         stroke-opacity="0.698039"
         stroke-linecap="round"
         stroke-linejoin="round"
         stroke-miterlimit="10"
         stroke-width="2.5"
         id="path56" /><path
         fill="none"
         stroke="#000000"
         paint-order="fill stroke markers"
         d="m 260.00926,243.45224 1.36965,-1.08269 m 0,0 3.30859,-2.61541 m 0,0 3.30859,-2.61542 3.3086,-2.61541 3.30859,-2.61541 3.30859,-2.61541 3.3086,-2.61541 3.30859,-2.61541 3.3086,-2.61541 3.30859,-2.61542 3.30859,-2.61541 3.3086,-2.61541 3.30859,-2.61541 3.30859,-2.61541 3.3086,-2.61541 3.30859,-2.61541 3.3086,-2.61542 3.30859,-2.61541 m 0,0 3.30859,-2.61541 3.3086,-2.61541 3.30859,-2.61541 3.30859,-2.61541 3.3086,-2.61541 3.30859,-2.61542 3.3086,-2.61541 3.30859,-2.61541 m 0,0 3.30859,-2.61541 3.3086,-2.61541 3.30859,-2.61541 3.30859,-2.61541 m 0,0 3.3086,-2.61542 m 0,0 2.48733,-1.9662"
         stroke-opacity="0.698039"
         stroke-linecap="round"
         stroke-linejoin="round"
         stroke-miterlimit="10"
         stroke-width="2.5"
         id="path57" /><path
         fill="none"
         stroke="#000000"
         paint-order="fill stroke markers"
         d="m 363.12405,161.941 h 0.82126 m 0,0 h 3.3086 3.30859 m 0,0 h 3.30859 3.3086 3.30859 3.30859 3.3086 3.30859 3.3086 3.30859 m 0,0 h 3.30859 3.3086 3.30859 3.30859 m 0,0 h 3.3086 3.30859 m 0,0 h 3.3086 m 0,0 h 1.70806"
         stroke-opacity="0.698039"
         stroke-linecap="round"
         stroke-linejoin="round"
         stroke-miterlimit="10"
         stroke-width="2.5"
         id="path58" /><path
         fill="none"
         stroke="#000000"
         paint-order="fill stroke markers"
         d="M 421.89947,161.941 423.5,161.2973 m 0,0 3.30859,-1.33065 3.3086,-1.33065 3.30859,-1.33065 3.30859,-1.33065 3.3086,-1.33064 3.30859,-1.33065 3.3086,-1.33065 3.30859,-1.33065 3.30859,-1.33064 3.3086,-1.33065 3.30859,-1.33065 3.30859,-1.33065 3.3086,-1.33065 3.30859,-1.33064 3.3086,-1.33065 3.30859,-1.33065 m 0,0 3.30859,-1.33065 3.3086,-1.33065 3.30859,-1.33064 3.30859,-1.33065 3.3086,-1.33065 3.30859,-1.33065 3.3086,-1.33065 3.30859,-1.33064 m 0,0 3.30859,-1.33065 3.3086,-1.33065 3.30859,-1.33065 3.30859,-1.33065 m 0,0 3.3086,-1.33064 3.30859,-1.33065 m 0,0 0.4786,-0.19248"
         stroke-opacity="0.698039"
         stroke-linecap="round"
         stroke-linejoin="round"
         stroke-miterlimit="10"
         stroke-width="2.5"
         id="path59" /><path
         fill="none"
         stroke="#000000"
         paint-order="fill stroke markers"
         d="m 523.23641,121.18538 h 2.83 m 0,0 h 3.30859 m 0,0 h 3.30859 3.3086 3.30859 3.30859 3.3086 3.30859 3.3086 3.30859 m 0,0 h 3.30859 3.3086 3.30859 3.30859 m 0,0 h 3.3086 3.30859 m 0,0 h 3.3086 m 0,0 h 3.00793"
         stroke-opacity="0.698039"
         stroke-linecap="round"
         stroke-linejoin="round"
         stroke-miterlimit="10"
         stroke-width="2.5"
         id="path60" /><path
         fill="none"
         stroke="#000000"
         paint-order="fill stroke markers"
         d="m 582.01184,121.18538 0.30066,-0.0792 m 0,0 3.30859,-0.8718 3.3086,-0.87181 3.30859,-0.8718 3.30859,-0.8718 3.3086,-0.87181 3.30859,-0.8718 3.3086,-0.8718 3.30859,-0.87181 3.30859,-0.8718 3.3086,-0.87181 3.30859,-0.8718 3.30859,-0.8718 3.3086,-0.87181 3.30859,-0.8718 3.3086,-0.8718 3.30859,-0.87181 m 0,0 3.30859,-0.8718 3.3086,-0.87181 3.30859,-0.8718 3.30859,-0.8718 3.3086,-0.87181 3.30859,-0.8718 3.3086,-0.8718 3.30859,-0.87181 m 0,0 3.30859,-0.871803 3.3086,-0.871803 m 0,0 1.32346,-0.34873"
         stroke-opacity="0.698039"
         stroke-linecap="round"
         stroke-linejoin="round"
         stroke-miterlimit="10"
         stroke-width="2.5"
         id="path61" /><path
         fill="none"
         stroke="#000000"
         paint-order="fill stroke markers"
         d="m 669.6594,98.090524 h 1.98513 m 0,0 h 3.30859 m 0,0 h 3.3086 3.30859 3.3086 3.30859 m 0,0 h 3.30859 3.3086 3.30859 3.30859 3.3086 3.30859 3.3086 3.30859 m 0,0 h 3.30859 3.3086 3.30859 3.30859 m 0,0 h 0.54421"
         stroke-opacity="0.698039"
         stroke-linecap="round"
         stroke-linejoin="round"
         stroke-miterlimit="10"
         stroke-width="2.5"
         id="path62" /><path
         fill="none"
         stroke="#000000"
         paint-order="fill stroke markers"
         d="M 201.23384,406.47472 V 243.45224"
         stroke-opacity="0.698039"
         stroke-linejoin="round"
         stroke-miterlimit="10"
         stroke-width="1.5"
         stroke-dasharray="9.5, 8"
         id="path63" /><path
         fill="none"
         stroke="#000000"
         paint-order="fill stroke markers"
         d="M 260.00926,406.47472 V 243.45224"
         stroke-opacity="0.698039"
         stroke-linejoin="round"
         stroke-miterlimit="10"
         stroke-width="1.5"
         stroke-dasharray="9.5, 8"
         id="path64" /><path
         fill="none"
         stroke="#000000"
         paint-order="fill stroke markers"
         d="M 363.12405,406.47472 V 161.941"
         stroke-opacity="0.698039"
         stroke-linejoin="round"
         stroke-miterlimit="10"
         stroke-width="1.5"
         stroke-dasharray="9.5, 8"
         id="path65" /><path
         fill="none"
         stroke="#000000"
         paint-order="fill stroke markers"
         d="M 421.89947,406.47472 V 161.941"
         stroke-opacity="0.698039"
         stroke-linejoin="round"
         stroke-miterlimit="10"
         stroke-width="1.5"
         stroke-dasharray="9.5, 8"
         id="path66" /><path
         fill="none"
         stroke="#000000"
         paint-order="fill stroke markers"
         d="M 523.23641,406.47472 V 121.18538"
         stroke-opacity="0.698039"
         stroke-linejoin="round"
         stroke-miterlimit="10"
         stroke-width="1.5"
         stroke-dasharray="9.5, 8"
         id="path67" /><path
         fill="none"
         stroke="#000000"
         paint-order="fill stroke markers"
         d="M 582.01184,406.47472 V 121.18538"
         stroke-opacity="0.698039"
         stroke-linejoin="round"
         stroke-miterlimit="10"
         stroke-width="1.5"
         stroke-dasharray="9.5, 8"
         id="path68" /><path
         fill="none"
         stroke="#000000"
         paint-order="fill stroke markers"
         d="M 669.6594,406.47472 V 98.090524"
         stroke-opacity="0.698039"
         stroke-linejoin="round"
         stroke-miterlimit="10"
         stroke-width="1.5"
         stroke-dasharray="9.5, 8"
         id="path69" /><path
         fill="none"
         stroke="#000000"
         paint-order="fill stroke markers"
         d="M 728.43483,406.47472 V 98.090524"
         stroke-opacity="0.698039"
         stroke-linejoin="round"
         stroke-miterlimit="10"
         stroke-width="1.5"
         stroke-dasharray="9.5, 8"
         id="path70" /><path
         fill="none"
         stroke="#000000"
         paint-order="fill stroke markers"
         d="M 98.718561,243.45224 H 201.23384"
         stroke-opacity="0.698039"
         stroke-linejoin="round"
         stroke-miterlimit="10"
         stroke-width="1.5"
         stroke-dasharray="9.5, 8"
         id="path71" /><path
         fill="none"
         stroke="#000000"
         paint-order="fill stroke markers"
         d="M 98.718561,161.941 H 363.12405"
         stroke-opacity="0.698039"
         stroke-linejoin="round"
         stroke-miterlimit="10"
         stroke-width="1.5"
         stroke-dasharray="9.5, 8"
         id="path72" /><path
         fill="none"
         stroke="#000000"
         paint-order="fill stroke markers"
         d="M 98.718561,121.18538 H 523.23641"
         stroke-opacity="0.698039"
         stroke-linejoin="round"
         stroke-miterlimit="10"
         stroke-width="1.5"
         stroke-dasharray="9.5, 8"
         id="path73" /><path
         fill="none"
         stroke="#000000"
         paint-order="fill stroke markers"
         d="M 98.718561,98.090524 H 669.6594"
         stroke-opacity="0.698039"
         stroke-linejoin="round"
         stroke-miterlimit="10"
         stroke-width="1.5"
         stroke-dasharray="9.5, 8"
         id="path74" /></g></g></svg>
