G04 #@! TF.GenerationSoftware,KiCad,Pcbnew,8.0.7-8.0.7-0~ubuntu22.04.1*
G04 #@! TF.CreationDate,2025-01-05T09:34:09-03:00*
G04 #@! TF.ProjectId,fenix-controlador-de-ressolda,66656e69-782d-4636-9f6e-74726f6c6164,rev?*
G04 #@! TF.SameCoordinates,Original*
G04 #@! TF.FileFunction,Copper,L2,Inr*
G04 #@! TF.FilePolarity,Positive*
%FSLAX46Y46*%
G04 Gerber Fmt 4.6, Leading zero omitted, Abs format (unit mm)*
G04 Created by KiCad (PCBNEW 8.0.7-8.0.7-0~ubuntu22.04.1) date 2025-01-05 09:34:09*
%MOMM*%
%LPD*%
G01*
G04 APERTURE LIST*
G04 #@! TA.AperFunction,ComponentPad*
%ADD10C,3.500000*%
G04 #@! TD*
G04 #@! TA.AperFunction,ComponentPad*
%ADD11R,1.700000X1.700000*%
G04 #@! TD*
G04 #@! TA.AperFunction,ComponentPad*
%ADD12O,1.700000X1.700000*%
G04 #@! TD*
G04 #@! TA.AperFunction,ComponentPad*
%ADD13C,1.600000*%
G04 #@! TD*
G04 #@! TA.AperFunction,ComponentPad*
%ADD14O,1.600000X1.600000*%
G04 #@! TD*
G04 #@! TA.AperFunction,ComponentPad*
%ADD15R,1.050000X1.500000*%
G04 #@! TD*
G04 #@! TA.AperFunction,ComponentPad*
%ADD16O,1.050000X1.500000*%
G04 #@! TD*
G04 #@! TA.AperFunction,ComponentPad*
%ADD17R,2.200000X2.200000*%
G04 #@! TD*
G04 #@! TA.AperFunction,ComponentPad*
%ADD18O,2.200000X2.200000*%
G04 #@! TD*
G04 #@! TA.AperFunction,ViaPad*
%ADD19C,0.600000*%
G04 #@! TD*
G04 APERTURE END LIST*
D10*
X103470000Y-64840000D03*
X103470000Y-130840000D03*
X185720000Y-130840000D03*
X185720000Y-64840000D03*
D11*
X107245000Y-113590000D03*
D12*
X107245000Y-116130000D03*
D11*
X169470000Y-81510000D03*
D12*
X169470000Y-84050000D03*
X169470000Y-86590000D03*
X169470000Y-89130000D03*
X160000000Y-119517500D03*
X160000000Y-116977500D03*
X160000000Y-114437500D03*
X160000000Y-111897500D03*
X160000000Y-109357500D03*
X160000000Y-106817500D03*
X160000000Y-104277500D03*
X160000000Y-101737500D03*
X160000000Y-99197500D03*
X160000000Y-96657500D03*
X160000000Y-94117500D03*
X160000000Y-91577500D03*
X160000000Y-89037500D03*
X160000000Y-86497500D03*
X160000000Y-83957500D03*
X160000000Y-81417500D03*
X160000000Y-78877500D03*
X160000000Y-76337500D03*
X160000000Y-73797500D03*
D11*
X160000000Y-71257500D03*
D13*
X114100000Y-113840000D03*
D14*
X121720000Y-113840000D03*
D11*
X169220000Y-102220000D03*
D12*
X169220000Y-104760000D03*
X169220000Y-107300000D03*
D13*
X114600000Y-90480000D03*
D14*
X122220000Y-90480000D03*
D15*
X128220000Y-119840000D03*
D16*
X129490000Y-119840000D03*
X130760000Y-119840000D03*
D11*
X142220000Y-71257500D03*
D12*
X142220000Y-73797500D03*
X142220000Y-76337500D03*
X142220000Y-78877500D03*
X142220000Y-81417500D03*
X142220000Y-83957500D03*
X142220000Y-86497500D03*
X142220000Y-89037500D03*
X142220000Y-91577500D03*
X142220000Y-94117500D03*
X142220000Y-96657500D03*
X142220000Y-99197500D03*
X142220000Y-101737500D03*
X142220000Y-104277500D03*
X142220000Y-106817500D03*
X142220000Y-109357500D03*
X142220000Y-111897500D03*
X142220000Y-114437500D03*
X142220000Y-116977500D03*
X142220000Y-119517500D03*
D13*
X114410000Y-96980000D03*
D14*
X122030000Y-96980000D03*
D13*
X124600000Y-113840000D03*
D14*
X132220000Y-113840000D03*
D15*
X128220000Y-107700000D03*
D16*
X129490000Y-107700000D03*
X130760000Y-107700000D03*
D11*
X107220000Y-95340000D03*
D12*
X107220000Y-97880000D03*
D13*
X114600000Y-119840000D03*
D14*
X122220000Y-119840000D03*
D15*
X128220000Y-83980000D03*
D16*
X129490000Y-83980000D03*
X130760000Y-83980000D03*
D13*
X125600000Y-90480000D03*
D14*
X133220000Y-90480000D03*
D15*
X128220000Y-97840000D03*
D16*
X129490000Y-97840000D03*
X130760000Y-97840000D03*
D13*
X114910000Y-83980000D03*
D14*
X122530000Y-83980000D03*
D11*
X110220000Y-71300000D03*
D12*
X110220000Y-73840000D03*
D13*
X114100000Y-107340000D03*
D14*
X121720000Y-107340000D03*
D17*
X138300000Y-64220000D03*
D18*
X128140000Y-64220000D03*
D11*
X183720000Y-90470000D03*
D12*
X183720000Y-93010000D03*
X183720000Y-95550000D03*
X183720000Y-98090000D03*
X183720000Y-100630000D03*
D19*
X115220000Y-73840000D03*
M02*
