M48
; DRILL file {KiCad 8.0.7-8.0.7-0~ubuntu22.04.1} date 2025-01-05T09:50:36-0300
; FORMAT={-:-/ absolute / metric / decimal}
; #@! TF.CreationDate,2025-01-05T09:50:36-03:00
; #@! TF.GenerationSoftware,Kicad,Pcbnew,8.0.7-8.0.7-0~ubuntu22.04.1
; #@! TF.FileFunction,Plated,1,4,PTH
FMAT,2
METRIC
; #@! TA.AperFunction,Plated,PTH,ViaDrill
T1C0.300
; #@! TA.AperFunction,Plated,PTH,ComponentDrill
T2C0.750
; #@! TA.AperFunction,Plated,PTH,ComponentDrill
T3C0.800
; #@! TA.AperFunction,Plated,PTH,ComponentDrill
T4C1.000
; #@! TA.AperFunction,Plated,PTH,ComponentDrill
T5C1.100
; #@! TA.AperFunction,Plated,PTH,ComponentDrill
T6C2.200
%
G90
G05
T1
X115.22Y-73.84
T2
X128.22Y-83.98
X128.22Y-97.84
X128.22Y-107.7
X128.22Y-119.84
X129.49Y-83.98
X129.49Y-97.84
X129.49Y-107.7
X129.49Y-119.84
X130.76Y-83.98
X130.76Y-97.84
X130.76Y-107.7
X130.76Y-119.84
T3
X114.1Y-107.34
X114.1Y-113.84
X114.41Y-96.98
X114.6Y-90.48
X114.6Y-119.84
X114.91Y-83.98
X121.72Y-107.34
X121.72Y-113.84
X122.03Y-96.98
X122.22Y-90.48
X122.22Y-119.84
X122.53Y-83.98
X124.6Y-113.84
X125.6Y-90.48
X132.22Y-113.84
X133.22Y-90.48
T4
X107.22Y-95.34
X107.22Y-97.88
X107.245Y-113.59
X107.245Y-116.13
X110.22Y-71.3
X110.22Y-73.84
X142.22Y-71.257
X142.22Y-73.797
X142.22Y-76.337
X142.22Y-78.877
X142.22Y-81.417
X142.22Y-83.957
X142.22Y-86.498
X142.22Y-89.037
X142.22Y-91.578
X142.22Y-94.117
X142.22Y-96.657
X142.22Y-99.197
X142.22Y-101.737
X142.22Y-104.277
X142.22Y-106.817
X142.22Y-109.358
X142.22Y-111.897
X142.22Y-114.438
X142.22Y-116.977
X142.22Y-119.517
X160.0Y-71.257
X160.0Y-73.797
X160.0Y-76.337
X160.0Y-78.877
X160.0Y-81.417
X160.0Y-83.957
X160.0Y-86.498
X160.0Y-89.037
X160.0Y-91.578
X160.0Y-94.117
X160.0Y-96.657
X160.0Y-99.197
X160.0Y-101.737
X160.0Y-104.277
X160.0Y-106.817
X160.0Y-109.358
X160.0Y-111.897
X160.0Y-114.438
X160.0Y-116.977
X160.0Y-119.517
X169.22Y-102.22
X169.22Y-104.76
X169.22Y-107.3
X169.47Y-81.51
X169.47Y-84.05
X169.47Y-86.59
X169.47Y-89.13
X183.72Y-90.47
X183.72Y-93.01
X183.72Y-95.55
X183.72Y-98.09
X183.72Y-100.63
T5
X128.14Y-64.22
X138.3Y-64.22
T6
X103.47Y-64.84
X103.47Y-130.84
X185.72Y-64.84
X185.72Y-130.84
M30
