G04 #@! TF.GenerationSoftware,KiCad,Pcbnew,8.0.7-8.0.7-0~ubuntu22.04.1*
G04 #@! TF.CreationDate,2025-01-05T09:50:44-03:00*
G04 #@! TF.ProjectId,fenix-controlador-de-ressolda,66656e69-782d-4636-9f6e-74726f6c6164,rev?*
G04 #@! TF.SameCoordinates,Original*
G04 #@! TF.FileFunction,Soldermask,Bot*
G04 #@! TF.FilePolarity,Negative*
%FSLAX46Y46*%
G04 Gerber Fmt 4.6, Leading zero omitted, Abs format (unit mm)*
G04 Created by KiCad (PCBNEW 8.0.7-8.0.7-0~ubuntu22.04.1) date 2025-01-05 09:50:44*
%MOMM*%
%LPD*%
G01*
G04 APERTURE LIST*
G04 APERTURE END LIST*
G36*
X103859412Y-129133876D02*
G01*
X104109347Y-129210971D01*
X104345000Y-129324456D01*
X104561107Y-129471795D01*
X104752841Y-129649698D01*
X104915918Y-129854190D01*
X105046696Y-130080703D01*
X105142252Y-130324178D01*
X105200454Y-130579176D01*
X105220000Y-130840000D01*
X105200454Y-131100824D01*
X105142252Y-131355822D01*
X105046696Y-131599297D01*
X104915918Y-131825810D01*
X104752841Y-132030302D01*
X104561107Y-132208205D01*
X104345000Y-132355544D01*
X104109347Y-132469029D01*
X103859412Y-132546124D01*
X103600778Y-132585107D01*
X103339222Y-132585107D01*
X103080588Y-132546124D01*
X102830653Y-132469029D01*
X102595000Y-132355544D01*
X102378893Y-132208205D01*
X102187159Y-132030302D01*
X102024082Y-131825810D01*
X101893304Y-131599297D01*
X101797748Y-131355822D01*
X101739546Y-131100824D01*
X101720000Y-130840000D01*
X101739546Y-130579176D01*
X101797748Y-130324178D01*
X101893304Y-130080703D01*
X102024082Y-129854190D01*
X102187159Y-129649698D01*
X102378893Y-129471795D01*
X102595000Y-129324456D01*
X102830653Y-129210971D01*
X103080588Y-129133876D01*
X103339222Y-129094893D01*
X103600778Y-129094893D01*
X103859412Y-129133876D01*
G37*
G36*
X186109412Y-129133876D02*
G01*
X186359347Y-129210971D01*
X186595000Y-129324456D01*
X186811107Y-129471795D01*
X187002841Y-129649698D01*
X187165918Y-129854190D01*
X187296696Y-130080703D01*
X187392252Y-130324178D01*
X187450454Y-130579176D01*
X187470000Y-130840000D01*
X187450454Y-131100824D01*
X187392252Y-131355822D01*
X187296696Y-131599297D01*
X187165918Y-131825810D01*
X187002841Y-132030302D01*
X186811107Y-132208205D01*
X186595000Y-132355544D01*
X186359347Y-132469029D01*
X186109412Y-132546124D01*
X185850778Y-132585107D01*
X185589222Y-132585107D01*
X185330588Y-132546124D01*
X185080653Y-132469029D01*
X184845000Y-132355544D01*
X184628893Y-132208205D01*
X184437159Y-132030302D01*
X184274082Y-131825810D01*
X184143304Y-131599297D01*
X184047748Y-131355822D01*
X183989546Y-131100824D01*
X183970000Y-130840000D01*
X183989546Y-130579176D01*
X184047748Y-130324178D01*
X184143304Y-130080703D01*
X184274082Y-129854190D01*
X184437159Y-129649698D01*
X184628893Y-129471795D01*
X184845000Y-129324456D01*
X185080653Y-129210971D01*
X185330588Y-129133876D01*
X185589222Y-129094893D01*
X185850778Y-129094893D01*
X186109412Y-129133876D01*
G37*
G36*
X114641811Y-119044711D02*
G01*
X114683588Y-119044711D01*
X114730718Y-119054728D01*
X114778017Y-119060058D01*
X114812408Y-119072092D01*
X114847110Y-119079468D01*
X114897117Y-119101733D01*
X114947107Y-119119225D01*
X114973128Y-119135575D01*
X114999835Y-119147466D01*
X115049633Y-119183646D01*
X115098792Y-119214535D01*
X115116444Y-119232187D01*
X115135084Y-119245730D01*
X115181165Y-119296908D01*
X115225465Y-119341208D01*
X115235654Y-119357424D01*
X115246946Y-119369965D01*
X115285573Y-119436870D01*
X115320775Y-119492893D01*
X115325170Y-119505453D01*
X115330535Y-119514746D01*
X115358010Y-119599305D01*
X115379942Y-119661983D01*
X115380773Y-119669363D01*
X115382195Y-119673738D01*
X115395076Y-119796306D01*
X115400000Y-119840000D01*
X115395076Y-119883697D01*
X115382195Y-120006261D01*
X115380773Y-120010635D01*
X115379942Y-120018017D01*
X115358005Y-120080707D01*
X115330535Y-120165253D01*
X115325171Y-120174543D01*
X115320775Y-120187107D01*
X115285566Y-120243140D01*
X115246946Y-120310034D01*
X115235656Y-120322572D01*
X115225465Y-120338792D01*
X115181155Y-120383101D01*
X115135084Y-120434269D01*
X115116448Y-120447808D01*
X115098792Y-120465465D01*
X115049623Y-120496359D01*
X114999835Y-120532533D01*
X114973134Y-120544421D01*
X114947107Y-120560775D01*
X114897107Y-120578270D01*
X114847110Y-120600531D01*
X114812414Y-120607905D01*
X114778017Y-120619942D01*
X114730715Y-120625271D01*
X114683588Y-120635289D01*
X114641811Y-120635289D01*
X114600000Y-120640000D01*
X114558189Y-120635289D01*
X114516412Y-120635289D01*
X114469284Y-120625271D01*
X114421983Y-120619942D01*
X114387586Y-120607906D01*
X114352889Y-120600531D01*
X114302887Y-120578268D01*
X114252893Y-120560775D01*
X114226868Y-120544422D01*
X114200164Y-120532533D01*
X114150369Y-120496355D01*
X114101208Y-120465465D01*
X114083554Y-120447811D01*
X114064915Y-120434269D01*
X114018833Y-120383090D01*
X113974535Y-120338792D01*
X113964345Y-120322575D01*
X113953053Y-120310034D01*
X113914420Y-120243120D01*
X113879225Y-120187107D01*
X113874830Y-120174547D01*
X113869464Y-120165253D01*
X113841980Y-120080667D01*
X113820058Y-120018017D01*
X113819226Y-120010639D01*
X113817804Y-120006261D01*
X113804908Y-119883565D01*
X113800000Y-119840000D01*
X113804908Y-119796438D01*
X113817804Y-119673738D01*
X113819226Y-119669358D01*
X113820058Y-119661983D01*
X113841975Y-119599345D01*
X113869464Y-119514746D01*
X113874831Y-119505449D01*
X113879225Y-119492893D01*
X113914413Y-119436890D01*
X113953053Y-119369965D01*
X113964347Y-119357421D01*
X113974535Y-119341208D01*
X114018826Y-119296916D01*
X114064917Y-119245728D01*
X114083559Y-119232183D01*
X114101208Y-119214535D01*
X114150354Y-119183654D01*
X114200162Y-119147467D01*
X114226873Y-119135574D01*
X114252893Y-119119225D01*
X114302877Y-119101734D01*
X114352889Y-119079468D01*
X114387592Y-119072091D01*
X114421983Y-119060058D01*
X114469281Y-119054728D01*
X114516412Y-119044711D01*
X114558189Y-119044711D01*
X114600000Y-119040000D01*
X114641811Y-119044711D01*
G37*
G36*
X122261811Y-119044711D02*
G01*
X122303588Y-119044711D01*
X122350718Y-119054728D01*
X122398017Y-119060058D01*
X122432408Y-119072092D01*
X122467110Y-119079468D01*
X122517117Y-119101733D01*
X122567107Y-119119225D01*
X122593128Y-119135575D01*
X122619835Y-119147466D01*
X122669633Y-119183646D01*
X122718792Y-119214535D01*
X122736444Y-119232187D01*
X122755084Y-119245730D01*
X122801165Y-119296908D01*
X122845465Y-119341208D01*
X122855654Y-119357424D01*
X122866946Y-119369965D01*
X122905573Y-119436870D01*
X122940775Y-119492893D01*
X122945170Y-119505453D01*
X122950535Y-119514746D01*
X122978010Y-119599305D01*
X122999942Y-119661983D01*
X123000773Y-119669363D01*
X123002195Y-119673738D01*
X123015076Y-119796306D01*
X123020000Y-119840000D01*
X123015076Y-119883697D01*
X123002195Y-120006261D01*
X123000773Y-120010635D01*
X122999942Y-120018017D01*
X122978005Y-120080707D01*
X122950535Y-120165253D01*
X122945171Y-120174543D01*
X122940775Y-120187107D01*
X122905566Y-120243140D01*
X122866946Y-120310034D01*
X122855656Y-120322572D01*
X122845465Y-120338792D01*
X122801155Y-120383101D01*
X122755084Y-120434269D01*
X122736448Y-120447808D01*
X122718792Y-120465465D01*
X122669623Y-120496359D01*
X122619835Y-120532533D01*
X122593134Y-120544421D01*
X122567107Y-120560775D01*
X122517107Y-120578270D01*
X122467110Y-120600531D01*
X122432414Y-120607905D01*
X122398017Y-120619942D01*
X122350715Y-120625271D01*
X122303588Y-120635289D01*
X122261811Y-120635289D01*
X122220000Y-120640000D01*
X122178189Y-120635289D01*
X122136412Y-120635289D01*
X122089284Y-120625271D01*
X122041983Y-120619942D01*
X122007586Y-120607906D01*
X121972889Y-120600531D01*
X121922887Y-120578268D01*
X121872893Y-120560775D01*
X121846868Y-120544422D01*
X121820164Y-120532533D01*
X121770369Y-120496355D01*
X121721208Y-120465465D01*
X121703554Y-120447811D01*
X121684915Y-120434269D01*
X121638833Y-120383090D01*
X121594535Y-120338792D01*
X121584345Y-120322575D01*
X121573053Y-120310034D01*
X121534420Y-120243120D01*
X121499225Y-120187107D01*
X121494830Y-120174547D01*
X121489464Y-120165253D01*
X121461980Y-120080667D01*
X121440058Y-120018017D01*
X121439226Y-120010639D01*
X121437804Y-120006261D01*
X121424908Y-119883565D01*
X121420000Y-119840000D01*
X121424908Y-119796438D01*
X121437804Y-119673738D01*
X121439226Y-119669358D01*
X121440058Y-119661983D01*
X121461975Y-119599345D01*
X121489464Y-119514746D01*
X121494831Y-119505449D01*
X121499225Y-119492893D01*
X121534413Y-119436890D01*
X121573053Y-119369965D01*
X121584347Y-119357421D01*
X121594535Y-119341208D01*
X121638826Y-119296916D01*
X121684917Y-119245728D01*
X121703559Y-119232183D01*
X121721208Y-119214535D01*
X121770354Y-119183654D01*
X121820162Y-119147467D01*
X121846873Y-119135574D01*
X121872893Y-119119225D01*
X121922877Y-119101734D01*
X121972889Y-119079468D01*
X122007592Y-119072091D01*
X122041983Y-119060058D01*
X122089281Y-119054728D01*
X122136412Y-119044711D01*
X122178189Y-119044711D01*
X122220000Y-119040000D01*
X122261811Y-119044711D01*
G37*
G36*
X128745000Y-120590000D02*
G01*
X127695000Y-120590000D01*
X127695000Y-119090000D01*
X128745000Y-119090000D01*
X128745000Y-120590000D01*
G37*
G36*
X129690909Y-119129963D02*
G01*
X129809600Y-119198489D01*
X129906511Y-119295400D01*
X129975037Y-119414091D01*
X130010509Y-119546474D01*
X130015000Y-119615000D01*
X130015000Y-120065000D01*
X130010509Y-120133526D01*
X129975037Y-120265909D01*
X129906511Y-120384600D01*
X129809600Y-120481511D01*
X129690909Y-120550037D01*
X129558526Y-120585509D01*
X129421474Y-120585509D01*
X129289091Y-120550037D01*
X129170400Y-120481511D01*
X129073489Y-120384600D01*
X129004963Y-120265909D01*
X128969491Y-120133526D01*
X128965000Y-120065000D01*
X128965000Y-119615000D01*
X128969491Y-119546474D01*
X129004963Y-119414091D01*
X129073489Y-119295400D01*
X129170400Y-119198489D01*
X129289091Y-119129963D01*
X129421474Y-119094491D01*
X129558526Y-119094491D01*
X129690909Y-119129963D01*
G37*
G36*
X130960909Y-119129963D02*
G01*
X131079600Y-119198489D01*
X131176511Y-119295400D01*
X131245037Y-119414091D01*
X131280509Y-119546474D01*
X131285000Y-119615000D01*
X131285000Y-120065000D01*
X131280509Y-120133526D01*
X131245037Y-120265909D01*
X131176511Y-120384600D01*
X131079600Y-120481511D01*
X130960909Y-120550037D01*
X130828526Y-120585509D01*
X130691474Y-120585509D01*
X130559091Y-120550037D01*
X130440400Y-120481511D01*
X130343489Y-120384600D01*
X130274963Y-120265909D01*
X130239491Y-120133526D01*
X130235000Y-120065000D01*
X130235000Y-119615000D01*
X130239491Y-119546474D01*
X130274963Y-119414091D01*
X130343489Y-119295400D01*
X130440400Y-119198489D01*
X130559091Y-119129963D01*
X130691474Y-119094491D01*
X130828526Y-119094491D01*
X130960909Y-119129963D01*
G37*
G36*
X142482664Y-118709102D02*
G01*
X142645000Y-118781378D01*
X142788761Y-118885827D01*
X142907664Y-119017883D01*
X142996514Y-119171774D01*
X143051425Y-119340775D01*
X143070000Y-119517500D01*
X143051425Y-119694225D01*
X142996514Y-119863226D01*
X142907664Y-120017117D01*
X142788761Y-120149173D01*
X142645000Y-120253622D01*
X142482664Y-120325898D01*
X142308849Y-120362844D01*
X142131151Y-120362844D01*
X141957336Y-120325898D01*
X141795000Y-120253622D01*
X141651239Y-120149173D01*
X141532336Y-120017117D01*
X141443486Y-119863226D01*
X141388575Y-119694225D01*
X141370000Y-119517500D01*
X141388575Y-119340775D01*
X141443486Y-119171774D01*
X141532336Y-119017883D01*
X141651239Y-118885827D01*
X141795000Y-118781378D01*
X141957336Y-118709102D01*
X142131151Y-118672156D01*
X142308849Y-118672156D01*
X142482664Y-118709102D01*
G37*
G36*
X160262664Y-118709102D02*
G01*
X160425000Y-118781378D01*
X160568761Y-118885827D01*
X160687664Y-119017883D01*
X160776514Y-119171774D01*
X160831425Y-119340775D01*
X160850000Y-119517500D01*
X160831425Y-119694225D01*
X160776514Y-119863226D01*
X160687664Y-120017117D01*
X160568761Y-120149173D01*
X160425000Y-120253622D01*
X160262664Y-120325898D01*
X160088849Y-120362844D01*
X159911151Y-120362844D01*
X159737336Y-120325898D01*
X159575000Y-120253622D01*
X159431239Y-120149173D01*
X159312336Y-120017117D01*
X159223486Y-119863226D01*
X159168575Y-119694225D01*
X159150000Y-119517500D01*
X159168575Y-119340775D01*
X159223486Y-119171774D01*
X159312336Y-119017883D01*
X159431239Y-118885827D01*
X159575000Y-118781378D01*
X159737336Y-118709102D01*
X159911151Y-118672156D01*
X160088849Y-118672156D01*
X160262664Y-118709102D01*
G37*
G36*
X142482664Y-116169102D02*
G01*
X142645000Y-116241378D01*
X142788761Y-116345827D01*
X142907664Y-116477883D01*
X142996514Y-116631774D01*
X143051425Y-116800775D01*
X143070000Y-116977500D01*
X143051425Y-117154225D01*
X142996514Y-117323226D01*
X142907664Y-117477117D01*
X142788761Y-117609173D01*
X142645000Y-117713622D01*
X142482664Y-117785898D01*
X142308849Y-117822844D01*
X142131151Y-117822844D01*
X141957336Y-117785898D01*
X141795000Y-117713622D01*
X141651239Y-117609173D01*
X141532336Y-117477117D01*
X141443486Y-117323226D01*
X141388575Y-117154225D01*
X141370000Y-116977500D01*
X141388575Y-116800775D01*
X141443486Y-116631774D01*
X141532336Y-116477883D01*
X141651239Y-116345827D01*
X141795000Y-116241378D01*
X141957336Y-116169102D01*
X142131151Y-116132156D01*
X142308849Y-116132156D01*
X142482664Y-116169102D01*
G37*
G36*
X160262664Y-116169102D02*
G01*
X160425000Y-116241378D01*
X160568761Y-116345827D01*
X160687664Y-116477883D01*
X160776514Y-116631774D01*
X160831425Y-116800775D01*
X160850000Y-116977500D01*
X160831425Y-117154225D01*
X160776514Y-117323226D01*
X160687664Y-117477117D01*
X160568761Y-117609173D01*
X160425000Y-117713622D01*
X160262664Y-117785898D01*
X160088849Y-117822844D01*
X159911151Y-117822844D01*
X159737336Y-117785898D01*
X159575000Y-117713622D01*
X159431239Y-117609173D01*
X159312336Y-117477117D01*
X159223486Y-117323226D01*
X159168575Y-117154225D01*
X159150000Y-116977500D01*
X159168575Y-116800775D01*
X159223486Y-116631774D01*
X159312336Y-116477883D01*
X159431239Y-116345827D01*
X159575000Y-116241378D01*
X159737336Y-116169102D01*
X159911151Y-116132156D01*
X160088849Y-116132156D01*
X160262664Y-116169102D01*
G37*
G36*
X107507664Y-115321602D02*
G01*
X107670000Y-115393878D01*
X107813761Y-115498327D01*
X107932664Y-115630383D01*
X108021514Y-115784274D01*
X108076425Y-115953275D01*
X108095000Y-116130000D01*
X108076425Y-116306725D01*
X108021514Y-116475726D01*
X107932664Y-116629617D01*
X107813761Y-116761673D01*
X107670000Y-116866122D01*
X107507664Y-116938398D01*
X107333849Y-116975344D01*
X107156151Y-116975344D01*
X106982336Y-116938398D01*
X106820000Y-116866122D01*
X106676239Y-116761673D01*
X106557336Y-116629617D01*
X106468486Y-116475726D01*
X106413575Y-116306725D01*
X106395000Y-116130000D01*
X106413575Y-115953275D01*
X106468486Y-115784274D01*
X106557336Y-115630383D01*
X106676239Y-115498327D01*
X106820000Y-115393878D01*
X106982336Y-115321602D01*
X107156151Y-115284656D01*
X107333849Y-115284656D01*
X107507664Y-115321602D01*
G37*
G36*
X142482664Y-113629102D02*
G01*
X142645000Y-113701378D01*
X142788761Y-113805827D01*
X142907664Y-113937883D01*
X142996514Y-114091774D01*
X143051425Y-114260775D01*
X143070000Y-114437500D01*
X143051425Y-114614225D01*
X142996514Y-114783226D01*
X142907664Y-114937117D01*
X142788761Y-115069173D01*
X142645000Y-115173622D01*
X142482664Y-115245898D01*
X142308849Y-115282844D01*
X142131151Y-115282844D01*
X141957336Y-115245898D01*
X141795000Y-115173622D01*
X141651239Y-115069173D01*
X141532336Y-114937117D01*
X141443486Y-114783226D01*
X141388575Y-114614225D01*
X141370000Y-114437500D01*
X141388575Y-114260775D01*
X141443486Y-114091774D01*
X141532336Y-113937883D01*
X141651239Y-113805827D01*
X141795000Y-113701378D01*
X141957336Y-113629102D01*
X142131151Y-113592156D01*
X142308849Y-113592156D01*
X142482664Y-113629102D01*
G37*
G36*
X160262664Y-113629102D02*
G01*
X160425000Y-113701378D01*
X160568761Y-113805827D01*
X160687664Y-113937883D01*
X160776514Y-114091774D01*
X160831425Y-114260775D01*
X160850000Y-114437500D01*
X160831425Y-114614225D01*
X160776514Y-114783226D01*
X160687664Y-114937117D01*
X160568761Y-115069173D01*
X160425000Y-115173622D01*
X160262664Y-115245898D01*
X160088849Y-115282844D01*
X159911151Y-115282844D01*
X159737336Y-115245898D01*
X159575000Y-115173622D01*
X159431239Y-115069173D01*
X159312336Y-114937117D01*
X159223486Y-114783226D01*
X159168575Y-114614225D01*
X159150000Y-114437500D01*
X159168575Y-114260775D01*
X159223486Y-114091774D01*
X159312336Y-113937883D01*
X159431239Y-113805827D01*
X159575000Y-113701378D01*
X159737336Y-113629102D01*
X159911151Y-113592156D01*
X160088849Y-113592156D01*
X160262664Y-113629102D01*
G37*
G36*
X114141811Y-113044711D02*
G01*
X114183588Y-113044711D01*
X114230718Y-113054728D01*
X114278017Y-113060058D01*
X114312408Y-113072092D01*
X114347110Y-113079468D01*
X114397117Y-113101733D01*
X114447107Y-113119225D01*
X114473128Y-113135575D01*
X114499835Y-113147466D01*
X114549633Y-113183646D01*
X114598792Y-113214535D01*
X114616444Y-113232187D01*
X114635084Y-113245730D01*
X114681165Y-113296908D01*
X114725465Y-113341208D01*
X114735654Y-113357424D01*
X114746946Y-113369965D01*
X114785573Y-113436870D01*
X114820775Y-113492893D01*
X114825170Y-113505453D01*
X114830535Y-113514746D01*
X114858010Y-113599305D01*
X114879942Y-113661983D01*
X114880773Y-113669363D01*
X114882195Y-113673738D01*
X114895076Y-113796306D01*
X114900000Y-113840000D01*
X114895076Y-113883697D01*
X114882195Y-114006261D01*
X114880773Y-114010635D01*
X114879942Y-114018017D01*
X114858005Y-114080707D01*
X114830535Y-114165253D01*
X114825171Y-114174543D01*
X114820775Y-114187107D01*
X114785566Y-114243140D01*
X114746946Y-114310034D01*
X114735656Y-114322572D01*
X114725465Y-114338792D01*
X114681155Y-114383101D01*
X114635084Y-114434269D01*
X114616448Y-114447808D01*
X114598792Y-114465465D01*
X114549623Y-114496359D01*
X114499835Y-114532533D01*
X114473134Y-114544421D01*
X114447107Y-114560775D01*
X114397107Y-114578270D01*
X114347110Y-114600531D01*
X114312414Y-114607905D01*
X114278017Y-114619942D01*
X114230715Y-114625271D01*
X114183588Y-114635289D01*
X114141811Y-114635289D01*
X114100000Y-114640000D01*
X114058189Y-114635289D01*
X114016412Y-114635289D01*
X113969284Y-114625271D01*
X113921983Y-114619942D01*
X113887586Y-114607906D01*
X113852889Y-114600531D01*
X113802887Y-114578268D01*
X113752893Y-114560775D01*
X113726868Y-114544422D01*
X113700164Y-114532533D01*
X113650369Y-114496355D01*
X113601208Y-114465465D01*
X113583554Y-114447811D01*
X113564915Y-114434269D01*
X113518833Y-114383090D01*
X113474535Y-114338792D01*
X113464345Y-114322575D01*
X113453053Y-114310034D01*
X113414420Y-114243120D01*
X113379225Y-114187107D01*
X113374830Y-114174547D01*
X113369464Y-114165253D01*
X113341980Y-114080667D01*
X113320058Y-114018017D01*
X113319226Y-114010639D01*
X113317804Y-114006261D01*
X113304908Y-113883565D01*
X113300000Y-113840000D01*
X113304908Y-113796438D01*
X113317804Y-113673738D01*
X113319226Y-113669358D01*
X113320058Y-113661983D01*
X113341975Y-113599345D01*
X113369464Y-113514746D01*
X113374831Y-113505449D01*
X113379225Y-113492893D01*
X113414413Y-113436890D01*
X113453053Y-113369965D01*
X113464347Y-113357421D01*
X113474535Y-113341208D01*
X113518826Y-113296916D01*
X113564917Y-113245728D01*
X113583559Y-113232183D01*
X113601208Y-113214535D01*
X113650354Y-113183654D01*
X113700162Y-113147467D01*
X113726873Y-113135574D01*
X113752893Y-113119225D01*
X113802877Y-113101734D01*
X113852889Y-113079468D01*
X113887592Y-113072091D01*
X113921983Y-113060058D01*
X113969281Y-113054728D01*
X114016412Y-113044711D01*
X114058189Y-113044711D01*
X114100000Y-113040000D01*
X114141811Y-113044711D01*
G37*
G36*
X121761811Y-113044711D02*
G01*
X121803588Y-113044711D01*
X121850718Y-113054728D01*
X121898017Y-113060058D01*
X121932408Y-113072092D01*
X121967110Y-113079468D01*
X122017117Y-113101733D01*
X122067107Y-113119225D01*
X122093128Y-113135575D01*
X122119835Y-113147466D01*
X122169633Y-113183646D01*
X122218792Y-113214535D01*
X122236444Y-113232187D01*
X122255084Y-113245730D01*
X122301165Y-113296908D01*
X122345465Y-113341208D01*
X122355654Y-113357424D01*
X122366946Y-113369965D01*
X122405573Y-113436870D01*
X122440775Y-113492893D01*
X122445170Y-113505453D01*
X122450535Y-113514746D01*
X122478010Y-113599305D01*
X122499942Y-113661983D01*
X122500773Y-113669363D01*
X122502195Y-113673738D01*
X122515076Y-113796306D01*
X122520000Y-113840000D01*
X122515076Y-113883697D01*
X122502195Y-114006261D01*
X122500773Y-114010635D01*
X122499942Y-114018017D01*
X122478005Y-114080707D01*
X122450535Y-114165253D01*
X122445171Y-114174543D01*
X122440775Y-114187107D01*
X122405566Y-114243140D01*
X122366946Y-114310034D01*
X122355656Y-114322572D01*
X122345465Y-114338792D01*
X122301155Y-114383101D01*
X122255084Y-114434269D01*
X122236448Y-114447808D01*
X122218792Y-114465465D01*
X122169623Y-114496359D01*
X122119835Y-114532533D01*
X122093134Y-114544421D01*
X122067107Y-114560775D01*
X122017107Y-114578270D01*
X121967110Y-114600531D01*
X121932414Y-114607905D01*
X121898017Y-114619942D01*
X121850715Y-114625271D01*
X121803588Y-114635289D01*
X121761811Y-114635289D01*
X121720000Y-114640000D01*
X121678189Y-114635289D01*
X121636412Y-114635289D01*
X121589284Y-114625271D01*
X121541983Y-114619942D01*
X121507586Y-114607906D01*
X121472889Y-114600531D01*
X121422887Y-114578268D01*
X121372893Y-114560775D01*
X121346868Y-114544422D01*
X121320164Y-114532533D01*
X121270369Y-114496355D01*
X121221208Y-114465465D01*
X121203554Y-114447811D01*
X121184915Y-114434269D01*
X121138833Y-114383090D01*
X121094535Y-114338792D01*
X121084345Y-114322575D01*
X121073053Y-114310034D01*
X121034420Y-114243120D01*
X120999225Y-114187107D01*
X120994830Y-114174547D01*
X120989464Y-114165253D01*
X120961980Y-114080667D01*
X120940058Y-114018017D01*
X120939226Y-114010639D01*
X120937804Y-114006261D01*
X120924908Y-113883565D01*
X120920000Y-113840000D01*
X120924908Y-113796438D01*
X120937804Y-113673738D01*
X120939226Y-113669358D01*
X120940058Y-113661983D01*
X120961975Y-113599345D01*
X120989464Y-113514746D01*
X120994831Y-113505449D01*
X120999225Y-113492893D01*
X121034413Y-113436890D01*
X121073053Y-113369965D01*
X121084347Y-113357421D01*
X121094535Y-113341208D01*
X121138826Y-113296916D01*
X121184917Y-113245728D01*
X121203559Y-113232183D01*
X121221208Y-113214535D01*
X121270354Y-113183654D01*
X121320162Y-113147467D01*
X121346873Y-113135574D01*
X121372893Y-113119225D01*
X121422877Y-113101734D01*
X121472889Y-113079468D01*
X121507592Y-113072091D01*
X121541983Y-113060058D01*
X121589281Y-113054728D01*
X121636412Y-113044711D01*
X121678189Y-113044711D01*
X121720000Y-113040000D01*
X121761811Y-113044711D01*
G37*
G36*
X124641811Y-113044711D02*
G01*
X124683588Y-113044711D01*
X124730718Y-113054728D01*
X124778017Y-113060058D01*
X124812408Y-113072092D01*
X124847110Y-113079468D01*
X124897117Y-113101733D01*
X124947107Y-113119225D01*
X124973128Y-113135575D01*
X124999835Y-113147466D01*
X125049633Y-113183646D01*
X125098792Y-113214535D01*
X125116444Y-113232187D01*
X125135084Y-113245730D01*
X125181165Y-113296908D01*
X125225465Y-113341208D01*
X125235654Y-113357424D01*
X125246946Y-113369965D01*
X125285573Y-113436870D01*
X125320775Y-113492893D01*
X125325170Y-113505453D01*
X125330535Y-113514746D01*
X125358010Y-113599305D01*
X125379942Y-113661983D01*
X125380773Y-113669363D01*
X125382195Y-113673738D01*
X125395076Y-113796306D01*
X125400000Y-113840000D01*
X125395076Y-113883697D01*
X125382195Y-114006261D01*
X125380773Y-114010635D01*
X125379942Y-114018017D01*
X125358005Y-114080707D01*
X125330535Y-114165253D01*
X125325171Y-114174543D01*
X125320775Y-114187107D01*
X125285566Y-114243140D01*
X125246946Y-114310034D01*
X125235656Y-114322572D01*
X125225465Y-114338792D01*
X125181155Y-114383101D01*
X125135084Y-114434269D01*
X125116448Y-114447808D01*
X125098792Y-114465465D01*
X125049623Y-114496359D01*
X124999835Y-114532533D01*
X124973134Y-114544421D01*
X124947107Y-114560775D01*
X124897107Y-114578270D01*
X124847110Y-114600531D01*
X124812414Y-114607905D01*
X124778017Y-114619942D01*
X124730715Y-114625271D01*
X124683588Y-114635289D01*
X124641811Y-114635289D01*
X124600000Y-114640000D01*
X124558189Y-114635289D01*
X124516412Y-114635289D01*
X124469284Y-114625271D01*
X124421983Y-114619942D01*
X124387586Y-114607906D01*
X124352889Y-114600531D01*
X124302887Y-114578268D01*
X124252893Y-114560775D01*
X124226868Y-114544422D01*
X124200164Y-114532533D01*
X124150369Y-114496355D01*
X124101208Y-114465465D01*
X124083554Y-114447811D01*
X124064915Y-114434269D01*
X124018833Y-114383090D01*
X123974535Y-114338792D01*
X123964345Y-114322575D01*
X123953053Y-114310034D01*
X123914420Y-114243120D01*
X123879225Y-114187107D01*
X123874830Y-114174547D01*
X123869464Y-114165253D01*
X123841980Y-114080667D01*
X123820058Y-114018017D01*
X123819226Y-114010639D01*
X123817804Y-114006261D01*
X123804908Y-113883565D01*
X123800000Y-113840000D01*
X123804908Y-113796438D01*
X123817804Y-113673738D01*
X123819226Y-113669358D01*
X123820058Y-113661983D01*
X123841975Y-113599345D01*
X123869464Y-113514746D01*
X123874831Y-113505449D01*
X123879225Y-113492893D01*
X123914413Y-113436890D01*
X123953053Y-113369965D01*
X123964347Y-113357421D01*
X123974535Y-113341208D01*
X124018826Y-113296916D01*
X124064917Y-113245728D01*
X124083559Y-113232183D01*
X124101208Y-113214535D01*
X124150354Y-113183654D01*
X124200162Y-113147467D01*
X124226873Y-113135574D01*
X124252893Y-113119225D01*
X124302877Y-113101734D01*
X124352889Y-113079468D01*
X124387592Y-113072091D01*
X124421983Y-113060058D01*
X124469281Y-113054728D01*
X124516412Y-113044711D01*
X124558189Y-113044711D01*
X124600000Y-113040000D01*
X124641811Y-113044711D01*
G37*
G36*
X132261811Y-113044711D02*
G01*
X132303588Y-113044711D01*
X132350718Y-113054728D01*
X132398017Y-113060058D01*
X132432408Y-113072092D01*
X132467110Y-113079468D01*
X132517117Y-113101733D01*
X132567107Y-113119225D01*
X132593128Y-113135575D01*
X132619835Y-113147466D01*
X132669633Y-113183646D01*
X132718792Y-113214535D01*
X132736444Y-113232187D01*
X132755084Y-113245730D01*
X132801165Y-113296908D01*
X132845465Y-113341208D01*
X132855654Y-113357424D01*
X132866946Y-113369965D01*
X132905573Y-113436870D01*
X132940775Y-113492893D01*
X132945170Y-113505453D01*
X132950535Y-113514746D01*
X132978010Y-113599305D01*
X132999942Y-113661983D01*
X133000773Y-113669363D01*
X133002195Y-113673738D01*
X133015076Y-113796306D01*
X133020000Y-113840000D01*
X133015076Y-113883697D01*
X133002195Y-114006261D01*
X133000773Y-114010635D01*
X132999942Y-114018017D01*
X132978005Y-114080707D01*
X132950535Y-114165253D01*
X132945171Y-114174543D01*
X132940775Y-114187107D01*
X132905566Y-114243140D01*
X132866946Y-114310034D01*
X132855656Y-114322572D01*
X132845465Y-114338792D01*
X132801155Y-114383101D01*
X132755084Y-114434269D01*
X132736448Y-114447808D01*
X132718792Y-114465465D01*
X132669623Y-114496359D01*
X132619835Y-114532533D01*
X132593134Y-114544421D01*
X132567107Y-114560775D01*
X132517107Y-114578270D01*
X132467110Y-114600531D01*
X132432414Y-114607905D01*
X132398017Y-114619942D01*
X132350715Y-114625271D01*
X132303588Y-114635289D01*
X132261811Y-114635289D01*
X132220000Y-114640000D01*
X132178189Y-114635289D01*
X132136412Y-114635289D01*
X132089284Y-114625271D01*
X132041983Y-114619942D01*
X132007586Y-114607906D01*
X131972889Y-114600531D01*
X131922887Y-114578268D01*
X131872893Y-114560775D01*
X131846868Y-114544422D01*
X131820164Y-114532533D01*
X131770369Y-114496355D01*
X131721208Y-114465465D01*
X131703554Y-114447811D01*
X131684915Y-114434269D01*
X131638833Y-114383090D01*
X131594535Y-114338792D01*
X131584345Y-114322575D01*
X131573053Y-114310034D01*
X131534420Y-114243120D01*
X131499225Y-114187107D01*
X131494830Y-114174547D01*
X131489464Y-114165253D01*
X131461980Y-114080667D01*
X131440058Y-114018017D01*
X131439226Y-114010639D01*
X131437804Y-114006261D01*
X131424908Y-113883565D01*
X131420000Y-113840000D01*
X131424908Y-113796438D01*
X131437804Y-113673738D01*
X131439226Y-113669358D01*
X131440058Y-113661983D01*
X131461975Y-113599345D01*
X131489464Y-113514746D01*
X131494831Y-113505449D01*
X131499225Y-113492893D01*
X131534413Y-113436890D01*
X131573053Y-113369965D01*
X131584347Y-113357421D01*
X131594535Y-113341208D01*
X131638826Y-113296916D01*
X131684917Y-113245728D01*
X131703559Y-113232183D01*
X131721208Y-113214535D01*
X131770354Y-113183654D01*
X131820162Y-113147467D01*
X131846873Y-113135574D01*
X131872893Y-113119225D01*
X131922877Y-113101734D01*
X131972889Y-113079468D01*
X132007592Y-113072091D01*
X132041983Y-113060058D01*
X132089281Y-113054728D01*
X132136412Y-113044711D01*
X132178189Y-113044711D01*
X132220000Y-113040000D01*
X132261811Y-113044711D01*
G37*
G36*
X108095000Y-114440000D02*
G01*
X106395000Y-114440000D01*
X106395000Y-112740000D01*
X108095000Y-112740000D01*
X108095000Y-114440000D01*
G37*
G36*
X142482664Y-111089102D02*
G01*
X142645000Y-111161378D01*
X142788761Y-111265827D01*
X142907664Y-111397883D01*
X142996514Y-111551774D01*
X143051425Y-111720775D01*
X143070000Y-111897500D01*
X143051425Y-112074225D01*
X142996514Y-112243226D01*
X142907664Y-112397117D01*
X142788761Y-112529173D01*
X142645000Y-112633622D01*
X142482664Y-112705898D01*
X142308849Y-112742844D01*
X142131151Y-112742844D01*
X141957336Y-112705898D01*
X141795000Y-112633622D01*
X141651239Y-112529173D01*
X141532336Y-112397117D01*
X141443486Y-112243226D01*
X141388575Y-112074225D01*
X141370000Y-111897500D01*
X141388575Y-111720775D01*
X141443486Y-111551774D01*
X141532336Y-111397883D01*
X141651239Y-111265827D01*
X141795000Y-111161378D01*
X141957336Y-111089102D01*
X142131151Y-111052156D01*
X142308849Y-111052156D01*
X142482664Y-111089102D01*
G37*
G36*
X160262664Y-111089102D02*
G01*
X160425000Y-111161378D01*
X160568761Y-111265827D01*
X160687664Y-111397883D01*
X160776514Y-111551774D01*
X160831425Y-111720775D01*
X160850000Y-111897500D01*
X160831425Y-112074225D01*
X160776514Y-112243226D01*
X160687664Y-112397117D01*
X160568761Y-112529173D01*
X160425000Y-112633622D01*
X160262664Y-112705898D01*
X160088849Y-112742844D01*
X159911151Y-112742844D01*
X159737336Y-112705898D01*
X159575000Y-112633622D01*
X159431239Y-112529173D01*
X159312336Y-112397117D01*
X159223486Y-112243226D01*
X159168575Y-112074225D01*
X159150000Y-111897500D01*
X159168575Y-111720775D01*
X159223486Y-111551774D01*
X159312336Y-111397883D01*
X159431239Y-111265827D01*
X159575000Y-111161378D01*
X159737336Y-111089102D01*
X159911151Y-111052156D01*
X160088849Y-111052156D01*
X160262664Y-111089102D01*
G37*
G36*
X142482664Y-108549102D02*
G01*
X142645000Y-108621378D01*
X142788761Y-108725827D01*
X142907664Y-108857883D01*
X142996514Y-109011774D01*
X143051425Y-109180775D01*
X143070000Y-109357500D01*
X143051425Y-109534225D01*
X142996514Y-109703226D01*
X142907664Y-109857117D01*
X142788761Y-109989173D01*
X142645000Y-110093622D01*
X142482664Y-110165898D01*
X142308849Y-110202844D01*
X142131151Y-110202844D01*
X141957336Y-110165898D01*
X141795000Y-110093622D01*
X141651239Y-109989173D01*
X141532336Y-109857117D01*
X141443486Y-109703226D01*
X141388575Y-109534225D01*
X141370000Y-109357500D01*
X141388575Y-109180775D01*
X141443486Y-109011774D01*
X141532336Y-108857883D01*
X141651239Y-108725827D01*
X141795000Y-108621378D01*
X141957336Y-108549102D01*
X142131151Y-108512156D01*
X142308849Y-108512156D01*
X142482664Y-108549102D01*
G37*
G36*
X160262664Y-108549102D02*
G01*
X160425000Y-108621378D01*
X160568761Y-108725827D01*
X160687664Y-108857883D01*
X160776514Y-109011774D01*
X160831425Y-109180775D01*
X160850000Y-109357500D01*
X160831425Y-109534225D01*
X160776514Y-109703226D01*
X160687664Y-109857117D01*
X160568761Y-109989173D01*
X160425000Y-110093622D01*
X160262664Y-110165898D01*
X160088849Y-110202844D01*
X159911151Y-110202844D01*
X159737336Y-110165898D01*
X159575000Y-110093622D01*
X159431239Y-109989173D01*
X159312336Y-109857117D01*
X159223486Y-109703226D01*
X159168575Y-109534225D01*
X159150000Y-109357500D01*
X159168575Y-109180775D01*
X159223486Y-109011774D01*
X159312336Y-108857883D01*
X159431239Y-108725827D01*
X159575000Y-108621378D01*
X159737336Y-108549102D01*
X159911151Y-108512156D01*
X160088849Y-108512156D01*
X160262664Y-108549102D01*
G37*
G36*
X128745000Y-108450000D02*
G01*
X127695000Y-108450000D01*
X127695000Y-106950000D01*
X128745000Y-106950000D01*
X128745000Y-108450000D01*
G37*
G36*
X129690909Y-106989963D02*
G01*
X129809600Y-107058489D01*
X129906511Y-107155400D01*
X129975037Y-107274091D01*
X130010509Y-107406474D01*
X130015000Y-107475000D01*
X130015000Y-107925000D01*
X130010509Y-107993526D01*
X129975037Y-108125909D01*
X129906511Y-108244600D01*
X129809600Y-108341511D01*
X129690909Y-108410037D01*
X129558526Y-108445509D01*
X129421474Y-108445509D01*
X129289091Y-108410037D01*
X129170400Y-108341511D01*
X129073489Y-108244600D01*
X129004963Y-108125909D01*
X128969491Y-107993526D01*
X128965000Y-107925000D01*
X128965000Y-107475000D01*
X128969491Y-107406474D01*
X129004963Y-107274091D01*
X129073489Y-107155400D01*
X129170400Y-107058489D01*
X129289091Y-106989963D01*
X129421474Y-106954491D01*
X129558526Y-106954491D01*
X129690909Y-106989963D01*
G37*
G36*
X130960909Y-106989963D02*
G01*
X131079600Y-107058489D01*
X131176511Y-107155400D01*
X131245037Y-107274091D01*
X131280509Y-107406474D01*
X131285000Y-107475000D01*
X131285000Y-107925000D01*
X131280509Y-107993526D01*
X131245037Y-108125909D01*
X131176511Y-108244600D01*
X131079600Y-108341511D01*
X130960909Y-108410037D01*
X130828526Y-108445509D01*
X130691474Y-108445509D01*
X130559091Y-108410037D01*
X130440400Y-108341511D01*
X130343489Y-108244600D01*
X130274963Y-108125909D01*
X130239491Y-107993526D01*
X130235000Y-107925000D01*
X130235000Y-107475000D01*
X130239491Y-107406474D01*
X130274963Y-107274091D01*
X130343489Y-107155400D01*
X130440400Y-107058489D01*
X130559091Y-106989963D01*
X130691474Y-106954491D01*
X130828526Y-106954491D01*
X130960909Y-106989963D01*
G37*
G36*
X169482664Y-106491602D02*
G01*
X169645000Y-106563878D01*
X169788761Y-106668327D01*
X169907664Y-106800383D01*
X169996514Y-106954274D01*
X170051425Y-107123275D01*
X170070000Y-107300000D01*
X170051425Y-107476725D01*
X169996514Y-107645726D01*
X169907664Y-107799617D01*
X169788761Y-107931673D01*
X169645000Y-108036122D01*
X169482664Y-108108398D01*
X169308849Y-108145344D01*
X169131151Y-108145344D01*
X168957336Y-108108398D01*
X168795000Y-108036122D01*
X168651239Y-107931673D01*
X168532336Y-107799617D01*
X168443486Y-107645726D01*
X168388575Y-107476725D01*
X168370000Y-107300000D01*
X168388575Y-107123275D01*
X168443486Y-106954274D01*
X168532336Y-106800383D01*
X168651239Y-106668327D01*
X168795000Y-106563878D01*
X168957336Y-106491602D01*
X169131151Y-106454656D01*
X169308849Y-106454656D01*
X169482664Y-106491602D01*
G37*
G36*
X114141811Y-106544711D02*
G01*
X114183588Y-106544711D01*
X114230718Y-106554728D01*
X114278017Y-106560058D01*
X114312408Y-106572092D01*
X114347110Y-106579468D01*
X114397117Y-106601733D01*
X114447107Y-106619225D01*
X114473128Y-106635575D01*
X114499835Y-106647466D01*
X114549633Y-106683646D01*
X114598792Y-106714535D01*
X114616444Y-106732187D01*
X114635084Y-106745730D01*
X114681165Y-106796908D01*
X114725465Y-106841208D01*
X114735654Y-106857424D01*
X114746946Y-106869965D01*
X114785573Y-106936870D01*
X114820775Y-106992893D01*
X114825170Y-107005453D01*
X114830535Y-107014746D01*
X114858010Y-107099305D01*
X114879942Y-107161983D01*
X114880773Y-107169363D01*
X114882195Y-107173738D01*
X114895076Y-107296306D01*
X114900000Y-107340000D01*
X114895076Y-107383697D01*
X114882195Y-107506261D01*
X114880773Y-107510635D01*
X114879942Y-107518017D01*
X114858005Y-107580707D01*
X114830535Y-107665253D01*
X114825171Y-107674543D01*
X114820775Y-107687107D01*
X114785566Y-107743140D01*
X114746946Y-107810034D01*
X114735656Y-107822572D01*
X114725465Y-107838792D01*
X114681155Y-107883101D01*
X114635084Y-107934269D01*
X114616448Y-107947808D01*
X114598792Y-107965465D01*
X114549623Y-107996359D01*
X114499835Y-108032533D01*
X114473134Y-108044421D01*
X114447107Y-108060775D01*
X114397107Y-108078270D01*
X114347110Y-108100531D01*
X114312414Y-108107905D01*
X114278017Y-108119942D01*
X114230715Y-108125271D01*
X114183588Y-108135289D01*
X114141811Y-108135289D01*
X114100000Y-108140000D01*
X114058189Y-108135289D01*
X114016412Y-108135289D01*
X113969284Y-108125271D01*
X113921983Y-108119942D01*
X113887586Y-108107906D01*
X113852889Y-108100531D01*
X113802887Y-108078268D01*
X113752893Y-108060775D01*
X113726868Y-108044422D01*
X113700164Y-108032533D01*
X113650369Y-107996355D01*
X113601208Y-107965465D01*
X113583554Y-107947811D01*
X113564915Y-107934269D01*
X113518833Y-107883090D01*
X113474535Y-107838792D01*
X113464345Y-107822575D01*
X113453053Y-107810034D01*
X113414420Y-107743120D01*
X113379225Y-107687107D01*
X113374830Y-107674547D01*
X113369464Y-107665253D01*
X113341980Y-107580667D01*
X113320058Y-107518017D01*
X113319226Y-107510639D01*
X113317804Y-107506261D01*
X113304908Y-107383565D01*
X113300000Y-107340000D01*
X113304908Y-107296438D01*
X113317804Y-107173738D01*
X113319226Y-107169358D01*
X113320058Y-107161983D01*
X113341975Y-107099345D01*
X113369464Y-107014746D01*
X113374831Y-107005449D01*
X113379225Y-106992893D01*
X113414413Y-106936890D01*
X113453053Y-106869965D01*
X113464347Y-106857421D01*
X113474535Y-106841208D01*
X113518826Y-106796916D01*
X113564917Y-106745728D01*
X113583559Y-106732183D01*
X113601208Y-106714535D01*
X113650354Y-106683654D01*
X113700162Y-106647467D01*
X113726873Y-106635574D01*
X113752893Y-106619225D01*
X113802877Y-106601734D01*
X113852889Y-106579468D01*
X113887592Y-106572091D01*
X113921983Y-106560058D01*
X113969281Y-106554728D01*
X114016412Y-106544711D01*
X114058189Y-106544711D01*
X114100000Y-106540000D01*
X114141811Y-106544711D01*
G37*
G36*
X121761811Y-106544711D02*
G01*
X121803588Y-106544711D01*
X121850718Y-106554728D01*
X121898017Y-106560058D01*
X121932408Y-106572092D01*
X121967110Y-106579468D01*
X122017117Y-106601733D01*
X122067107Y-106619225D01*
X122093128Y-106635575D01*
X122119835Y-106647466D01*
X122169633Y-106683646D01*
X122218792Y-106714535D01*
X122236444Y-106732187D01*
X122255084Y-106745730D01*
X122301165Y-106796908D01*
X122345465Y-106841208D01*
X122355654Y-106857424D01*
X122366946Y-106869965D01*
X122405573Y-106936870D01*
X122440775Y-106992893D01*
X122445170Y-107005453D01*
X122450535Y-107014746D01*
X122478010Y-107099305D01*
X122499942Y-107161983D01*
X122500773Y-107169363D01*
X122502195Y-107173738D01*
X122515076Y-107296306D01*
X122520000Y-107340000D01*
X122515076Y-107383697D01*
X122502195Y-107506261D01*
X122500773Y-107510635D01*
X122499942Y-107518017D01*
X122478005Y-107580707D01*
X122450535Y-107665253D01*
X122445171Y-107674543D01*
X122440775Y-107687107D01*
X122405566Y-107743140D01*
X122366946Y-107810034D01*
X122355656Y-107822572D01*
X122345465Y-107838792D01*
X122301155Y-107883101D01*
X122255084Y-107934269D01*
X122236448Y-107947808D01*
X122218792Y-107965465D01*
X122169623Y-107996359D01*
X122119835Y-108032533D01*
X122093134Y-108044421D01*
X122067107Y-108060775D01*
X122017107Y-108078270D01*
X121967110Y-108100531D01*
X121932414Y-108107905D01*
X121898017Y-108119942D01*
X121850715Y-108125271D01*
X121803588Y-108135289D01*
X121761811Y-108135289D01*
X121720000Y-108140000D01*
X121678189Y-108135289D01*
X121636412Y-108135289D01*
X121589284Y-108125271D01*
X121541983Y-108119942D01*
X121507586Y-108107906D01*
X121472889Y-108100531D01*
X121422887Y-108078268D01*
X121372893Y-108060775D01*
X121346868Y-108044422D01*
X121320164Y-108032533D01*
X121270369Y-107996355D01*
X121221208Y-107965465D01*
X121203554Y-107947811D01*
X121184915Y-107934269D01*
X121138833Y-107883090D01*
X121094535Y-107838792D01*
X121084345Y-107822575D01*
X121073053Y-107810034D01*
X121034420Y-107743120D01*
X120999225Y-107687107D01*
X120994830Y-107674547D01*
X120989464Y-107665253D01*
X120961980Y-107580667D01*
X120940058Y-107518017D01*
X120939226Y-107510639D01*
X120937804Y-107506261D01*
X120924908Y-107383565D01*
X120920000Y-107340000D01*
X120924908Y-107296438D01*
X120937804Y-107173738D01*
X120939226Y-107169358D01*
X120940058Y-107161983D01*
X120961975Y-107099345D01*
X120989464Y-107014746D01*
X120994831Y-107005449D01*
X120999225Y-106992893D01*
X121034413Y-106936890D01*
X121073053Y-106869965D01*
X121084347Y-106857421D01*
X121094535Y-106841208D01*
X121138826Y-106796916D01*
X121184917Y-106745728D01*
X121203559Y-106732183D01*
X121221208Y-106714535D01*
X121270354Y-106683654D01*
X121320162Y-106647467D01*
X121346873Y-106635574D01*
X121372893Y-106619225D01*
X121422877Y-106601734D01*
X121472889Y-106579468D01*
X121507592Y-106572091D01*
X121541983Y-106560058D01*
X121589281Y-106554728D01*
X121636412Y-106544711D01*
X121678189Y-106544711D01*
X121720000Y-106540000D01*
X121761811Y-106544711D01*
G37*
G36*
X142482664Y-106009102D02*
G01*
X142645000Y-106081378D01*
X142788761Y-106185827D01*
X142907664Y-106317883D01*
X142996514Y-106471774D01*
X143051425Y-106640775D01*
X143070000Y-106817500D01*
X143051425Y-106994225D01*
X142996514Y-107163226D01*
X142907664Y-107317117D01*
X142788761Y-107449173D01*
X142645000Y-107553622D01*
X142482664Y-107625898D01*
X142308849Y-107662844D01*
X142131151Y-107662844D01*
X141957336Y-107625898D01*
X141795000Y-107553622D01*
X141651239Y-107449173D01*
X141532336Y-107317117D01*
X141443486Y-107163226D01*
X141388575Y-106994225D01*
X141370000Y-106817500D01*
X141388575Y-106640775D01*
X141443486Y-106471774D01*
X141532336Y-106317883D01*
X141651239Y-106185827D01*
X141795000Y-106081378D01*
X141957336Y-106009102D01*
X142131151Y-105972156D01*
X142308849Y-105972156D01*
X142482664Y-106009102D01*
G37*
G36*
X160262664Y-106009102D02*
G01*
X160425000Y-106081378D01*
X160568761Y-106185827D01*
X160687664Y-106317883D01*
X160776514Y-106471774D01*
X160831425Y-106640775D01*
X160850000Y-106817500D01*
X160831425Y-106994225D01*
X160776514Y-107163226D01*
X160687664Y-107317117D01*
X160568761Y-107449173D01*
X160425000Y-107553622D01*
X160262664Y-107625898D01*
X160088849Y-107662844D01*
X159911151Y-107662844D01*
X159737336Y-107625898D01*
X159575000Y-107553622D01*
X159431239Y-107449173D01*
X159312336Y-107317117D01*
X159223486Y-107163226D01*
X159168575Y-106994225D01*
X159150000Y-106817500D01*
X159168575Y-106640775D01*
X159223486Y-106471774D01*
X159312336Y-106317883D01*
X159431239Y-106185827D01*
X159575000Y-106081378D01*
X159737336Y-106009102D01*
X159911151Y-105972156D01*
X160088849Y-105972156D01*
X160262664Y-106009102D01*
G37*
G36*
X169482664Y-103951602D02*
G01*
X169645000Y-104023878D01*
X169788761Y-104128327D01*
X169907664Y-104260383D01*
X169996514Y-104414274D01*
X170051425Y-104583275D01*
X170070000Y-104760000D01*
X170051425Y-104936725D01*
X169996514Y-105105726D01*
X169907664Y-105259617D01*
X169788761Y-105391673D01*
X169645000Y-105496122D01*
X169482664Y-105568398D01*
X169308849Y-105605344D01*
X169131151Y-105605344D01*
X168957336Y-105568398D01*
X168795000Y-105496122D01*
X168651239Y-105391673D01*
X168532336Y-105259617D01*
X168443486Y-105105726D01*
X168388575Y-104936725D01*
X168370000Y-104760000D01*
X168388575Y-104583275D01*
X168443486Y-104414274D01*
X168532336Y-104260383D01*
X168651239Y-104128327D01*
X168795000Y-104023878D01*
X168957336Y-103951602D01*
X169131151Y-103914656D01*
X169308849Y-103914656D01*
X169482664Y-103951602D01*
G37*
G36*
X142482664Y-103469102D02*
G01*
X142645000Y-103541378D01*
X142788761Y-103645827D01*
X142907664Y-103777883D01*
X142996514Y-103931774D01*
X143051425Y-104100775D01*
X143070000Y-104277500D01*
X143051425Y-104454225D01*
X142996514Y-104623226D01*
X142907664Y-104777117D01*
X142788761Y-104909173D01*
X142645000Y-105013622D01*
X142482664Y-105085898D01*
X142308849Y-105122844D01*
X142131151Y-105122844D01*
X141957336Y-105085898D01*
X141795000Y-105013622D01*
X141651239Y-104909173D01*
X141532336Y-104777117D01*
X141443486Y-104623226D01*
X141388575Y-104454225D01*
X141370000Y-104277500D01*
X141388575Y-104100775D01*
X141443486Y-103931774D01*
X141532336Y-103777883D01*
X141651239Y-103645827D01*
X141795000Y-103541378D01*
X141957336Y-103469102D01*
X142131151Y-103432156D01*
X142308849Y-103432156D01*
X142482664Y-103469102D01*
G37*
G36*
X160262664Y-103469102D02*
G01*
X160425000Y-103541378D01*
X160568761Y-103645827D01*
X160687664Y-103777883D01*
X160776514Y-103931774D01*
X160831425Y-104100775D01*
X160850000Y-104277500D01*
X160831425Y-104454225D01*
X160776514Y-104623226D01*
X160687664Y-104777117D01*
X160568761Y-104909173D01*
X160425000Y-105013622D01*
X160262664Y-105085898D01*
X160088849Y-105122844D01*
X159911151Y-105122844D01*
X159737336Y-105085898D01*
X159575000Y-105013622D01*
X159431239Y-104909173D01*
X159312336Y-104777117D01*
X159223486Y-104623226D01*
X159168575Y-104454225D01*
X159150000Y-104277500D01*
X159168575Y-104100775D01*
X159223486Y-103931774D01*
X159312336Y-103777883D01*
X159431239Y-103645827D01*
X159575000Y-103541378D01*
X159737336Y-103469102D01*
X159911151Y-103432156D01*
X160088849Y-103432156D01*
X160262664Y-103469102D01*
G37*
G36*
X170070000Y-103070000D02*
G01*
X168370000Y-103070000D01*
X168370000Y-101370000D01*
X170070000Y-101370000D01*
X170070000Y-103070000D01*
G37*
G36*
X142482664Y-100929102D02*
G01*
X142645000Y-101001378D01*
X142788761Y-101105827D01*
X142907664Y-101237883D01*
X142996514Y-101391774D01*
X143051425Y-101560775D01*
X143070000Y-101737500D01*
X143051425Y-101914225D01*
X142996514Y-102083226D01*
X142907664Y-102237117D01*
X142788761Y-102369173D01*
X142645000Y-102473622D01*
X142482664Y-102545898D01*
X142308849Y-102582844D01*
X142131151Y-102582844D01*
X141957336Y-102545898D01*
X141795000Y-102473622D01*
X141651239Y-102369173D01*
X141532336Y-102237117D01*
X141443486Y-102083226D01*
X141388575Y-101914225D01*
X141370000Y-101737500D01*
X141388575Y-101560775D01*
X141443486Y-101391774D01*
X141532336Y-101237883D01*
X141651239Y-101105827D01*
X141795000Y-101001378D01*
X141957336Y-100929102D01*
X142131151Y-100892156D01*
X142308849Y-100892156D01*
X142482664Y-100929102D01*
G37*
G36*
X160262664Y-100929102D02*
G01*
X160425000Y-101001378D01*
X160568761Y-101105827D01*
X160687664Y-101237883D01*
X160776514Y-101391774D01*
X160831425Y-101560775D01*
X160850000Y-101737500D01*
X160831425Y-101914225D01*
X160776514Y-102083226D01*
X160687664Y-102237117D01*
X160568761Y-102369173D01*
X160425000Y-102473622D01*
X160262664Y-102545898D01*
X160088849Y-102582844D01*
X159911151Y-102582844D01*
X159737336Y-102545898D01*
X159575000Y-102473622D01*
X159431239Y-102369173D01*
X159312336Y-102237117D01*
X159223486Y-102083226D01*
X159168575Y-101914225D01*
X159150000Y-101737500D01*
X159168575Y-101560775D01*
X159223486Y-101391774D01*
X159312336Y-101237883D01*
X159431239Y-101105827D01*
X159575000Y-101001378D01*
X159737336Y-100929102D01*
X159911151Y-100892156D01*
X160088849Y-100892156D01*
X160262664Y-100929102D01*
G37*
G36*
X183982664Y-99821602D02*
G01*
X184145000Y-99893878D01*
X184288761Y-99998327D01*
X184407664Y-100130383D01*
X184496514Y-100284274D01*
X184551425Y-100453275D01*
X184570000Y-100630000D01*
X184551425Y-100806725D01*
X184496514Y-100975726D01*
X184407664Y-101129617D01*
X184288761Y-101261673D01*
X184145000Y-101366122D01*
X183982664Y-101438398D01*
X183808849Y-101475344D01*
X183631151Y-101475344D01*
X183457336Y-101438398D01*
X183295000Y-101366122D01*
X183151239Y-101261673D01*
X183032336Y-101129617D01*
X182943486Y-100975726D01*
X182888575Y-100806725D01*
X182870000Y-100630000D01*
X182888575Y-100453275D01*
X182943486Y-100284274D01*
X183032336Y-100130383D01*
X183151239Y-99998327D01*
X183295000Y-99893878D01*
X183457336Y-99821602D01*
X183631151Y-99784656D01*
X183808849Y-99784656D01*
X183982664Y-99821602D01*
G37*
G36*
X142482664Y-98389102D02*
G01*
X142645000Y-98461378D01*
X142788761Y-98565827D01*
X142907664Y-98697883D01*
X142996514Y-98851774D01*
X143051425Y-99020775D01*
X143070000Y-99197500D01*
X143051425Y-99374225D01*
X142996514Y-99543226D01*
X142907664Y-99697117D01*
X142788761Y-99829173D01*
X142645000Y-99933622D01*
X142482664Y-100005898D01*
X142308849Y-100042844D01*
X142131151Y-100042844D01*
X141957336Y-100005898D01*
X141795000Y-99933622D01*
X141651239Y-99829173D01*
X141532336Y-99697117D01*
X141443486Y-99543226D01*
X141388575Y-99374225D01*
X141370000Y-99197500D01*
X141388575Y-99020775D01*
X141443486Y-98851774D01*
X141532336Y-98697883D01*
X141651239Y-98565827D01*
X141795000Y-98461378D01*
X141957336Y-98389102D01*
X142131151Y-98352156D01*
X142308849Y-98352156D01*
X142482664Y-98389102D01*
G37*
G36*
X160262664Y-98389102D02*
G01*
X160425000Y-98461378D01*
X160568761Y-98565827D01*
X160687664Y-98697883D01*
X160776514Y-98851774D01*
X160831425Y-99020775D01*
X160850000Y-99197500D01*
X160831425Y-99374225D01*
X160776514Y-99543226D01*
X160687664Y-99697117D01*
X160568761Y-99829173D01*
X160425000Y-99933622D01*
X160262664Y-100005898D01*
X160088849Y-100042844D01*
X159911151Y-100042844D01*
X159737336Y-100005898D01*
X159575000Y-99933622D01*
X159431239Y-99829173D01*
X159312336Y-99697117D01*
X159223486Y-99543226D01*
X159168575Y-99374225D01*
X159150000Y-99197500D01*
X159168575Y-99020775D01*
X159223486Y-98851774D01*
X159312336Y-98697883D01*
X159431239Y-98565827D01*
X159575000Y-98461378D01*
X159737336Y-98389102D01*
X159911151Y-98352156D01*
X160088849Y-98352156D01*
X160262664Y-98389102D01*
G37*
G36*
X183982664Y-97281602D02*
G01*
X184145000Y-97353878D01*
X184288761Y-97458327D01*
X184407664Y-97590383D01*
X184496514Y-97744274D01*
X184551425Y-97913275D01*
X184570000Y-98090000D01*
X184551425Y-98266725D01*
X184496514Y-98435726D01*
X184407664Y-98589617D01*
X184288761Y-98721673D01*
X184145000Y-98826122D01*
X183982664Y-98898398D01*
X183808849Y-98935344D01*
X183631151Y-98935344D01*
X183457336Y-98898398D01*
X183295000Y-98826122D01*
X183151239Y-98721673D01*
X183032336Y-98589617D01*
X182943486Y-98435726D01*
X182888575Y-98266725D01*
X182870000Y-98090000D01*
X182888575Y-97913275D01*
X182943486Y-97744274D01*
X183032336Y-97590383D01*
X183151239Y-97458327D01*
X183295000Y-97353878D01*
X183457336Y-97281602D01*
X183631151Y-97244656D01*
X183808849Y-97244656D01*
X183982664Y-97281602D01*
G37*
G36*
X107482664Y-97071602D02*
G01*
X107645000Y-97143878D01*
X107788761Y-97248327D01*
X107907664Y-97380383D01*
X107996514Y-97534274D01*
X108051425Y-97703275D01*
X108070000Y-97880000D01*
X108051425Y-98056725D01*
X107996514Y-98225726D01*
X107907664Y-98379617D01*
X107788761Y-98511673D01*
X107645000Y-98616122D01*
X107482664Y-98688398D01*
X107308849Y-98725344D01*
X107131151Y-98725344D01*
X106957336Y-98688398D01*
X106795000Y-98616122D01*
X106651239Y-98511673D01*
X106532336Y-98379617D01*
X106443486Y-98225726D01*
X106388575Y-98056725D01*
X106370000Y-97880000D01*
X106388575Y-97703275D01*
X106443486Y-97534274D01*
X106532336Y-97380383D01*
X106651239Y-97248327D01*
X106795000Y-97143878D01*
X106957336Y-97071602D01*
X107131151Y-97034656D01*
X107308849Y-97034656D01*
X107482664Y-97071602D01*
G37*
G36*
X128745000Y-98590000D02*
G01*
X127695000Y-98590000D01*
X127695000Y-97090000D01*
X128745000Y-97090000D01*
X128745000Y-98590000D01*
G37*
G36*
X129690909Y-97129963D02*
G01*
X129809600Y-97198489D01*
X129906511Y-97295400D01*
X129975037Y-97414091D01*
X130010509Y-97546474D01*
X130015000Y-97615000D01*
X130015000Y-98065000D01*
X130010509Y-98133526D01*
X129975037Y-98265909D01*
X129906511Y-98384600D01*
X129809600Y-98481511D01*
X129690909Y-98550037D01*
X129558526Y-98585509D01*
X129421474Y-98585509D01*
X129289091Y-98550037D01*
X129170400Y-98481511D01*
X129073489Y-98384600D01*
X129004963Y-98265909D01*
X128969491Y-98133526D01*
X128965000Y-98065000D01*
X128965000Y-97615000D01*
X128969491Y-97546474D01*
X129004963Y-97414091D01*
X129073489Y-97295400D01*
X129170400Y-97198489D01*
X129289091Y-97129963D01*
X129421474Y-97094491D01*
X129558526Y-97094491D01*
X129690909Y-97129963D01*
G37*
G36*
X130960909Y-97129963D02*
G01*
X131079600Y-97198489D01*
X131176511Y-97295400D01*
X131245037Y-97414091D01*
X131280509Y-97546474D01*
X131285000Y-97615000D01*
X131285000Y-98065000D01*
X131280509Y-98133526D01*
X131245037Y-98265909D01*
X131176511Y-98384600D01*
X131079600Y-98481511D01*
X130960909Y-98550037D01*
X130828526Y-98585509D01*
X130691474Y-98585509D01*
X130559091Y-98550037D01*
X130440400Y-98481511D01*
X130343489Y-98384600D01*
X130274963Y-98265909D01*
X130239491Y-98133526D01*
X130235000Y-98065000D01*
X130235000Y-97615000D01*
X130239491Y-97546474D01*
X130274963Y-97414091D01*
X130343489Y-97295400D01*
X130440400Y-97198489D01*
X130559091Y-97129963D01*
X130691474Y-97094491D01*
X130828526Y-97094491D01*
X130960909Y-97129963D01*
G37*
G36*
X114451811Y-96184711D02*
G01*
X114493588Y-96184711D01*
X114540718Y-96194728D01*
X114588017Y-96200058D01*
X114622408Y-96212092D01*
X114657110Y-96219468D01*
X114707117Y-96241733D01*
X114757107Y-96259225D01*
X114783128Y-96275575D01*
X114809835Y-96287466D01*
X114859633Y-96323646D01*
X114908792Y-96354535D01*
X114926444Y-96372187D01*
X114945084Y-96385730D01*
X114991165Y-96436908D01*
X115035465Y-96481208D01*
X115045654Y-96497424D01*
X115056946Y-96509965D01*
X115095573Y-96576870D01*
X115130775Y-96632893D01*
X115135170Y-96645453D01*
X115140535Y-96654746D01*
X115168010Y-96739305D01*
X115189942Y-96801983D01*
X115190773Y-96809363D01*
X115192195Y-96813738D01*
X115205076Y-96936306D01*
X115210000Y-96980000D01*
X115205076Y-97023697D01*
X115192195Y-97146261D01*
X115190773Y-97150635D01*
X115189942Y-97158017D01*
X115168005Y-97220707D01*
X115140535Y-97305253D01*
X115135171Y-97314543D01*
X115130775Y-97327107D01*
X115095566Y-97383140D01*
X115056946Y-97450034D01*
X115045656Y-97462572D01*
X115035465Y-97478792D01*
X114991155Y-97523101D01*
X114945084Y-97574269D01*
X114926448Y-97587808D01*
X114908792Y-97605465D01*
X114859623Y-97636359D01*
X114809835Y-97672533D01*
X114783134Y-97684421D01*
X114757107Y-97700775D01*
X114707107Y-97718270D01*
X114657110Y-97740531D01*
X114622414Y-97747905D01*
X114588017Y-97759942D01*
X114540715Y-97765271D01*
X114493588Y-97775289D01*
X114451811Y-97775289D01*
X114410000Y-97780000D01*
X114368189Y-97775289D01*
X114326412Y-97775289D01*
X114279284Y-97765271D01*
X114231983Y-97759942D01*
X114197586Y-97747906D01*
X114162889Y-97740531D01*
X114112887Y-97718268D01*
X114062893Y-97700775D01*
X114036868Y-97684422D01*
X114010164Y-97672533D01*
X113960369Y-97636355D01*
X113911208Y-97605465D01*
X113893554Y-97587811D01*
X113874915Y-97574269D01*
X113828833Y-97523090D01*
X113784535Y-97478792D01*
X113774345Y-97462575D01*
X113763053Y-97450034D01*
X113724420Y-97383120D01*
X113689225Y-97327107D01*
X113684830Y-97314547D01*
X113679464Y-97305253D01*
X113651980Y-97220667D01*
X113630058Y-97158017D01*
X113629226Y-97150639D01*
X113627804Y-97146261D01*
X113614908Y-97023565D01*
X113610000Y-96980000D01*
X113614908Y-96936438D01*
X113627804Y-96813738D01*
X113629226Y-96809358D01*
X113630058Y-96801983D01*
X113651975Y-96739345D01*
X113679464Y-96654746D01*
X113684831Y-96645449D01*
X113689225Y-96632893D01*
X113724413Y-96576890D01*
X113763053Y-96509965D01*
X113774347Y-96497421D01*
X113784535Y-96481208D01*
X113828826Y-96436916D01*
X113874917Y-96385728D01*
X113893559Y-96372183D01*
X113911208Y-96354535D01*
X113960354Y-96323654D01*
X114010162Y-96287467D01*
X114036873Y-96275574D01*
X114062893Y-96259225D01*
X114112877Y-96241734D01*
X114162889Y-96219468D01*
X114197592Y-96212091D01*
X114231983Y-96200058D01*
X114279281Y-96194728D01*
X114326412Y-96184711D01*
X114368189Y-96184711D01*
X114410000Y-96180000D01*
X114451811Y-96184711D01*
G37*
G36*
X122071811Y-96184711D02*
G01*
X122113588Y-96184711D01*
X122160718Y-96194728D01*
X122208017Y-96200058D01*
X122242408Y-96212092D01*
X122277110Y-96219468D01*
X122327117Y-96241733D01*
X122377107Y-96259225D01*
X122403128Y-96275575D01*
X122429835Y-96287466D01*
X122479633Y-96323646D01*
X122528792Y-96354535D01*
X122546444Y-96372187D01*
X122565084Y-96385730D01*
X122611165Y-96436908D01*
X122655465Y-96481208D01*
X122665654Y-96497424D01*
X122676946Y-96509965D01*
X122715573Y-96576870D01*
X122750775Y-96632893D01*
X122755170Y-96645453D01*
X122760535Y-96654746D01*
X122788010Y-96739305D01*
X122809942Y-96801983D01*
X122810773Y-96809363D01*
X122812195Y-96813738D01*
X122825076Y-96936306D01*
X122830000Y-96980000D01*
X122825076Y-97023697D01*
X122812195Y-97146261D01*
X122810773Y-97150635D01*
X122809942Y-97158017D01*
X122788005Y-97220707D01*
X122760535Y-97305253D01*
X122755171Y-97314543D01*
X122750775Y-97327107D01*
X122715566Y-97383140D01*
X122676946Y-97450034D01*
X122665656Y-97462572D01*
X122655465Y-97478792D01*
X122611155Y-97523101D01*
X122565084Y-97574269D01*
X122546448Y-97587808D01*
X122528792Y-97605465D01*
X122479623Y-97636359D01*
X122429835Y-97672533D01*
X122403134Y-97684421D01*
X122377107Y-97700775D01*
X122327107Y-97718270D01*
X122277110Y-97740531D01*
X122242414Y-97747905D01*
X122208017Y-97759942D01*
X122160715Y-97765271D01*
X122113588Y-97775289D01*
X122071811Y-97775289D01*
X122030000Y-97780000D01*
X121988189Y-97775289D01*
X121946412Y-97775289D01*
X121899284Y-97765271D01*
X121851983Y-97759942D01*
X121817586Y-97747906D01*
X121782889Y-97740531D01*
X121732887Y-97718268D01*
X121682893Y-97700775D01*
X121656868Y-97684422D01*
X121630164Y-97672533D01*
X121580369Y-97636355D01*
X121531208Y-97605465D01*
X121513554Y-97587811D01*
X121494915Y-97574269D01*
X121448833Y-97523090D01*
X121404535Y-97478792D01*
X121394345Y-97462575D01*
X121383053Y-97450034D01*
X121344420Y-97383120D01*
X121309225Y-97327107D01*
X121304830Y-97314547D01*
X121299464Y-97305253D01*
X121271980Y-97220667D01*
X121250058Y-97158017D01*
X121249226Y-97150639D01*
X121247804Y-97146261D01*
X121234908Y-97023565D01*
X121230000Y-96980000D01*
X121234908Y-96936438D01*
X121247804Y-96813738D01*
X121249226Y-96809358D01*
X121250058Y-96801983D01*
X121271975Y-96739345D01*
X121299464Y-96654746D01*
X121304831Y-96645449D01*
X121309225Y-96632893D01*
X121344413Y-96576890D01*
X121383053Y-96509965D01*
X121394347Y-96497421D01*
X121404535Y-96481208D01*
X121448826Y-96436916D01*
X121494917Y-96385728D01*
X121513559Y-96372183D01*
X121531208Y-96354535D01*
X121580354Y-96323654D01*
X121630162Y-96287467D01*
X121656873Y-96275574D01*
X121682893Y-96259225D01*
X121732877Y-96241734D01*
X121782889Y-96219468D01*
X121817592Y-96212091D01*
X121851983Y-96200058D01*
X121899281Y-96194728D01*
X121946412Y-96184711D01*
X121988189Y-96184711D01*
X122030000Y-96180000D01*
X122071811Y-96184711D01*
G37*
G36*
X142482664Y-95849102D02*
G01*
X142645000Y-95921378D01*
X142788761Y-96025827D01*
X142907664Y-96157883D01*
X142996514Y-96311774D01*
X143051425Y-96480775D01*
X143070000Y-96657500D01*
X143051425Y-96834225D01*
X142996514Y-97003226D01*
X142907664Y-97157117D01*
X142788761Y-97289173D01*
X142645000Y-97393622D01*
X142482664Y-97465898D01*
X142308849Y-97502844D01*
X142131151Y-97502844D01*
X141957336Y-97465898D01*
X141795000Y-97393622D01*
X141651239Y-97289173D01*
X141532336Y-97157117D01*
X141443486Y-97003226D01*
X141388575Y-96834225D01*
X141370000Y-96657500D01*
X141388575Y-96480775D01*
X141443486Y-96311774D01*
X141532336Y-96157883D01*
X141651239Y-96025827D01*
X141795000Y-95921378D01*
X141957336Y-95849102D01*
X142131151Y-95812156D01*
X142308849Y-95812156D01*
X142482664Y-95849102D01*
G37*
G36*
X160262664Y-95849102D02*
G01*
X160425000Y-95921378D01*
X160568761Y-96025827D01*
X160687664Y-96157883D01*
X160776514Y-96311774D01*
X160831425Y-96480775D01*
X160850000Y-96657500D01*
X160831425Y-96834225D01*
X160776514Y-97003226D01*
X160687664Y-97157117D01*
X160568761Y-97289173D01*
X160425000Y-97393622D01*
X160262664Y-97465898D01*
X160088849Y-97502844D01*
X159911151Y-97502844D01*
X159737336Y-97465898D01*
X159575000Y-97393622D01*
X159431239Y-97289173D01*
X159312336Y-97157117D01*
X159223486Y-97003226D01*
X159168575Y-96834225D01*
X159150000Y-96657500D01*
X159168575Y-96480775D01*
X159223486Y-96311774D01*
X159312336Y-96157883D01*
X159431239Y-96025827D01*
X159575000Y-95921378D01*
X159737336Y-95849102D01*
X159911151Y-95812156D01*
X160088849Y-95812156D01*
X160262664Y-95849102D01*
G37*
G36*
X183982664Y-94741602D02*
G01*
X184145000Y-94813878D01*
X184288761Y-94918327D01*
X184407664Y-95050383D01*
X184496514Y-95204274D01*
X184551425Y-95373275D01*
X184570000Y-95550000D01*
X184551425Y-95726725D01*
X184496514Y-95895726D01*
X184407664Y-96049617D01*
X184288761Y-96181673D01*
X184145000Y-96286122D01*
X183982664Y-96358398D01*
X183808849Y-96395344D01*
X183631151Y-96395344D01*
X183457336Y-96358398D01*
X183295000Y-96286122D01*
X183151239Y-96181673D01*
X183032336Y-96049617D01*
X182943486Y-95895726D01*
X182888575Y-95726725D01*
X182870000Y-95550000D01*
X182888575Y-95373275D01*
X182943486Y-95204274D01*
X183032336Y-95050383D01*
X183151239Y-94918327D01*
X183295000Y-94813878D01*
X183457336Y-94741602D01*
X183631151Y-94704656D01*
X183808849Y-94704656D01*
X183982664Y-94741602D01*
G37*
G36*
X108070000Y-96190000D02*
G01*
X106370000Y-96190000D01*
X106370000Y-94490000D01*
X108070000Y-94490000D01*
X108070000Y-96190000D01*
G37*
G36*
X142482664Y-93309102D02*
G01*
X142645000Y-93381378D01*
X142788761Y-93485827D01*
X142907664Y-93617883D01*
X142996514Y-93771774D01*
X143051425Y-93940775D01*
X143070000Y-94117500D01*
X143051425Y-94294225D01*
X142996514Y-94463226D01*
X142907664Y-94617117D01*
X142788761Y-94749173D01*
X142645000Y-94853622D01*
X142482664Y-94925898D01*
X142308849Y-94962844D01*
X142131151Y-94962844D01*
X141957336Y-94925898D01*
X141795000Y-94853622D01*
X141651239Y-94749173D01*
X141532336Y-94617117D01*
X141443486Y-94463226D01*
X141388575Y-94294225D01*
X141370000Y-94117500D01*
X141388575Y-93940775D01*
X141443486Y-93771774D01*
X141532336Y-93617883D01*
X141651239Y-93485827D01*
X141795000Y-93381378D01*
X141957336Y-93309102D01*
X142131151Y-93272156D01*
X142308849Y-93272156D01*
X142482664Y-93309102D01*
G37*
G36*
X160262664Y-93309102D02*
G01*
X160425000Y-93381378D01*
X160568761Y-93485827D01*
X160687664Y-93617883D01*
X160776514Y-93771774D01*
X160831425Y-93940775D01*
X160850000Y-94117500D01*
X160831425Y-94294225D01*
X160776514Y-94463226D01*
X160687664Y-94617117D01*
X160568761Y-94749173D01*
X160425000Y-94853622D01*
X160262664Y-94925898D01*
X160088849Y-94962844D01*
X159911151Y-94962844D01*
X159737336Y-94925898D01*
X159575000Y-94853622D01*
X159431239Y-94749173D01*
X159312336Y-94617117D01*
X159223486Y-94463226D01*
X159168575Y-94294225D01*
X159150000Y-94117500D01*
X159168575Y-93940775D01*
X159223486Y-93771774D01*
X159312336Y-93617883D01*
X159431239Y-93485827D01*
X159575000Y-93381378D01*
X159737336Y-93309102D01*
X159911151Y-93272156D01*
X160088849Y-93272156D01*
X160262664Y-93309102D01*
G37*
G36*
X183982664Y-92201602D02*
G01*
X184145000Y-92273878D01*
X184288761Y-92378327D01*
X184407664Y-92510383D01*
X184496514Y-92664274D01*
X184551425Y-92833275D01*
X184570000Y-93010000D01*
X184551425Y-93186725D01*
X184496514Y-93355726D01*
X184407664Y-93509617D01*
X184288761Y-93641673D01*
X184145000Y-93746122D01*
X183982664Y-93818398D01*
X183808849Y-93855344D01*
X183631151Y-93855344D01*
X183457336Y-93818398D01*
X183295000Y-93746122D01*
X183151239Y-93641673D01*
X183032336Y-93509617D01*
X182943486Y-93355726D01*
X182888575Y-93186725D01*
X182870000Y-93010000D01*
X182888575Y-92833275D01*
X182943486Y-92664274D01*
X183032336Y-92510383D01*
X183151239Y-92378327D01*
X183295000Y-92273878D01*
X183457336Y-92201602D01*
X183631151Y-92164656D01*
X183808849Y-92164656D01*
X183982664Y-92201602D01*
G37*
G36*
X142482664Y-90769102D02*
G01*
X142645000Y-90841378D01*
X142788761Y-90945827D01*
X142907664Y-91077883D01*
X142996514Y-91231774D01*
X143051425Y-91400775D01*
X143070000Y-91577500D01*
X143051425Y-91754225D01*
X142996514Y-91923226D01*
X142907664Y-92077117D01*
X142788761Y-92209173D01*
X142645000Y-92313622D01*
X142482664Y-92385898D01*
X142308849Y-92422844D01*
X142131151Y-92422844D01*
X141957336Y-92385898D01*
X141795000Y-92313622D01*
X141651239Y-92209173D01*
X141532336Y-92077117D01*
X141443486Y-91923226D01*
X141388575Y-91754225D01*
X141370000Y-91577500D01*
X141388575Y-91400775D01*
X141443486Y-91231774D01*
X141532336Y-91077883D01*
X141651239Y-90945827D01*
X141795000Y-90841378D01*
X141957336Y-90769102D01*
X142131151Y-90732156D01*
X142308849Y-90732156D01*
X142482664Y-90769102D01*
G37*
G36*
X160262664Y-90769102D02*
G01*
X160425000Y-90841378D01*
X160568761Y-90945827D01*
X160687664Y-91077883D01*
X160776514Y-91231774D01*
X160831425Y-91400775D01*
X160850000Y-91577500D01*
X160831425Y-91754225D01*
X160776514Y-91923226D01*
X160687664Y-92077117D01*
X160568761Y-92209173D01*
X160425000Y-92313622D01*
X160262664Y-92385898D01*
X160088849Y-92422844D01*
X159911151Y-92422844D01*
X159737336Y-92385898D01*
X159575000Y-92313622D01*
X159431239Y-92209173D01*
X159312336Y-92077117D01*
X159223486Y-91923226D01*
X159168575Y-91754225D01*
X159150000Y-91577500D01*
X159168575Y-91400775D01*
X159223486Y-91231774D01*
X159312336Y-91077883D01*
X159431239Y-90945827D01*
X159575000Y-90841378D01*
X159737336Y-90769102D01*
X159911151Y-90732156D01*
X160088849Y-90732156D01*
X160262664Y-90769102D01*
G37*
G36*
X184570000Y-91320000D02*
G01*
X182870000Y-91320000D01*
X182870000Y-89620000D01*
X184570000Y-89620000D01*
X184570000Y-91320000D01*
G37*
G36*
X114641811Y-89684711D02*
G01*
X114683588Y-89684711D01*
X114730718Y-89694728D01*
X114778017Y-89700058D01*
X114812408Y-89712092D01*
X114847110Y-89719468D01*
X114897117Y-89741733D01*
X114947107Y-89759225D01*
X114973128Y-89775575D01*
X114999835Y-89787466D01*
X115049633Y-89823646D01*
X115098792Y-89854535D01*
X115116444Y-89872187D01*
X115135084Y-89885730D01*
X115181165Y-89936908D01*
X115225465Y-89981208D01*
X115235654Y-89997424D01*
X115246946Y-90009965D01*
X115285573Y-90076870D01*
X115320775Y-90132893D01*
X115325170Y-90145453D01*
X115330535Y-90154746D01*
X115358010Y-90239305D01*
X115379942Y-90301983D01*
X115380773Y-90309363D01*
X115382195Y-90313738D01*
X115395076Y-90436306D01*
X115400000Y-90480000D01*
X115395076Y-90523697D01*
X115382195Y-90646261D01*
X115380773Y-90650635D01*
X115379942Y-90658017D01*
X115358005Y-90720707D01*
X115330535Y-90805253D01*
X115325171Y-90814543D01*
X115320775Y-90827107D01*
X115285566Y-90883140D01*
X115246946Y-90950034D01*
X115235656Y-90962572D01*
X115225465Y-90978792D01*
X115181155Y-91023101D01*
X115135084Y-91074269D01*
X115116448Y-91087808D01*
X115098792Y-91105465D01*
X115049623Y-91136359D01*
X114999835Y-91172533D01*
X114973134Y-91184421D01*
X114947107Y-91200775D01*
X114897107Y-91218270D01*
X114847110Y-91240531D01*
X114812414Y-91247905D01*
X114778017Y-91259942D01*
X114730715Y-91265271D01*
X114683588Y-91275289D01*
X114641811Y-91275289D01*
X114600000Y-91280000D01*
X114558189Y-91275289D01*
X114516412Y-91275289D01*
X114469284Y-91265271D01*
X114421983Y-91259942D01*
X114387586Y-91247906D01*
X114352889Y-91240531D01*
X114302887Y-91218268D01*
X114252893Y-91200775D01*
X114226868Y-91184422D01*
X114200164Y-91172533D01*
X114150369Y-91136355D01*
X114101208Y-91105465D01*
X114083554Y-91087811D01*
X114064915Y-91074269D01*
X114018833Y-91023090D01*
X113974535Y-90978792D01*
X113964345Y-90962575D01*
X113953053Y-90950034D01*
X113914420Y-90883120D01*
X113879225Y-90827107D01*
X113874830Y-90814547D01*
X113869464Y-90805253D01*
X113841980Y-90720667D01*
X113820058Y-90658017D01*
X113819226Y-90650639D01*
X113817804Y-90646261D01*
X113804908Y-90523565D01*
X113800000Y-90480000D01*
X113804908Y-90436438D01*
X113817804Y-90313738D01*
X113819226Y-90309358D01*
X113820058Y-90301983D01*
X113841975Y-90239345D01*
X113869464Y-90154746D01*
X113874831Y-90145449D01*
X113879225Y-90132893D01*
X113914413Y-90076890D01*
X113953053Y-90009965D01*
X113964347Y-89997421D01*
X113974535Y-89981208D01*
X114018826Y-89936916D01*
X114064917Y-89885728D01*
X114083559Y-89872183D01*
X114101208Y-89854535D01*
X114150354Y-89823654D01*
X114200162Y-89787467D01*
X114226873Y-89775574D01*
X114252893Y-89759225D01*
X114302877Y-89741734D01*
X114352889Y-89719468D01*
X114387592Y-89712091D01*
X114421983Y-89700058D01*
X114469281Y-89694728D01*
X114516412Y-89684711D01*
X114558189Y-89684711D01*
X114600000Y-89680000D01*
X114641811Y-89684711D01*
G37*
G36*
X122261811Y-89684711D02*
G01*
X122303588Y-89684711D01*
X122350718Y-89694728D01*
X122398017Y-89700058D01*
X122432408Y-89712092D01*
X122467110Y-89719468D01*
X122517117Y-89741733D01*
X122567107Y-89759225D01*
X122593128Y-89775575D01*
X122619835Y-89787466D01*
X122669633Y-89823646D01*
X122718792Y-89854535D01*
X122736444Y-89872187D01*
X122755084Y-89885730D01*
X122801165Y-89936908D01*
X122845465Y-89981208D01*
X122855654Y-89997424D01*
X122866946Y-90009965D01*
X122905573Y-90076870D01*
X122940775Y-90132893D01*
X122945170Y-90145453D01*
X122950535Y-90154746D01*
X122978010Y-90239305D01*
X122999942Y-90301983D01*
X123000773Y-90309363D01*
X123002195Y-90313738D01*
X123015076Y-90436306D01*
X123020000Y-90480000D01*
X123015076Y-90523697D01*
X123002195Y-90646261D01*
X123000773Y-90650635D01*
X122999942Y-90658017D01*
X122978005Y-90720707D01*
X122950535Y-90805253D01*
X122945171Y-90814543D01*
X122940775Y-90827107D01*
X122905566Y-90883140D01*
X122866946Y-90950034D01*
X122855656Y-90962572D01*
X122845465Y-90978792D01*
X122801155Y-91023101D01*
X122755084Y-91074269D01*
X122736448Y-91087808D01*
X122718792Y-91105465D01*
X122669623Y-91136359D01*
X122619835Y-91172533D01*
X122593134Y-91184421D01*
X122567107Y-91200775D01*
X122517107Y-91218270D01*
X122467110Y-91240531D01*
X122432414Y-91247905D01*
X122398017Y-91259942D01*
X122350715Y-91265271D01*
X122303588Y-91275289D01*
X122261811Y-91275289D01*
X122220000Y-91280000D01*
X122178189Y-91275289D01*
X122136412Y-91275289D01*
X122089284Y-91265271D01*
X122041983Y-91259942D01*
X122007586Y-91247906D01*
X121972889Y-91240531D01*
X121922887Y-91218268D01*
X121872893Y-91200775D01*
X121846868Y-91184422D01*
X121820164Y-91172533D01*
X121770369Y-91136355D01*
X121721208Y-91105465D01*
X121703554Y-91087811D01*
X121684915Y-91074269D01*
X121638833Y-91023090D01*
X121594535Y-90978792D01*
X121584345Y-90962575D01*
X121573053Y-90950034D01*
X121534420Y-90883120D01*
X121499225Y-90827107D01*
X121494830Y-90814547D01*
X121489464Y-90805253D01*
X121461980Y-90720667D01*
X121440058Y-90658017D01*
X121439226Y-90650639D01*
X121437804Y-90646261D01*
X121424908Y-90523565D01*
X121420000Y-90480000D01*
X121424908Y-90436438D01*
X121437804Y-90313738D01*
X121439226Y-90309358D01*
X121440058Y-90301983D01*
X121461975Y-90239345D01*
X121489464Y-90154746D01*
X121494831Y-90145449D01*
X121499225Y-90132893D01*
X121534413Y-90076890D01*
X121573053Y-90009965D01*
X121584347Y-89997421D01*
X121594535Y-89981208D01*
X121638826Y-89936916D01*
X121684917Y-89885728D01*
X121703559Y-89872183D01*
X121721208Y-89854535D01*
X121770354Y-89823654D01*
X121820162Y-89787467D01*
X121846873Y-89775574D01*
X121872893Y-89759225D01*
X121922877Y-89741734D01*
X121972889Y-89719468D01*
X122007592Y-89712091D01*
X122041983Y-89700058D01*
X122089281Y-89694728D01*
X122136412Y-89684711D01*
X122178189Y-89684711D01*
X122220000Y-89680000D01*
X122261811Y-89684711D01*
G37*
G36*
X125641811Y-89684711D02*
G01*
X125683588Y-89684711D01*
X125730718Y-89694728D01*
X125778017Y-89700058D01*
X125812408Y-89712092D01*
X125847110Y-89719468D01*
X125897117Y-89741733D01*
X125947107Y-89759225D01*
X125973128Y-89775575D01*
X125999835Y-89787466D01*
X126049633Y-89823646D01*
X126098792Y-89854535D01*
X126116444Y-89872187D01*
X126135084Y-89885730D01*
X126181165Y-89936908D01*
X126225465Y-89981208D01*
X126235654Y-89997424D01*
X126246946Y-90009965D01*
X126285573Y-90076870D01*
X126320775Y-90132893D01*
X126325170Y-90145453D01*
X126330535Y-90154746D01*
X126358010Y-90239305D01*
X126379942Y-90301983D01*
X126380773Y-90309363D01*
X126382195Y-90313738D01*
X126395076Y-90436306D01*
X126400000Y-90480000D01*
X126395076Y-90523697D01*
X126382195Y-90646261D01*
X126380773Y-90650635D01*
X126379942Y-90658017D01*
X126358005Y-90720707D01*
X126330535Y-90805253D01*
X126325171Y-90814543D01*
X126320775Y-90827107D01*
X126285566Y-90883140D01*
X126246946Y-90950034D01*
X126235656Y-90962572D01*
X126225465Y-90978792D01*
X126181155Y-91023101D01*
X126135084Y-91074269D01*
X126116448Y-91087808D01*
X126098792Y-91105465D01*
X126049623Y-91136359D01*
X125999835Y-91172533D01*
X125973134Y-91184421D01*
X125947107Y-91200775D01*
X125897107Y-91218270D01*
X125847110Y-91240531D01*
X125812414Y-91247905D01*
X125778017Y-91259942D01*
X125730715Y-91265271D01*
X125683588Y-91275289D01*
X125641811Y-91275289D01*
X125600000Y-91280000D01*
X125558189Y-91275289D01*
X125516412Y-91275289D01*
X125469284Y-91265271D01*
X125421983Y-91259942D01*
X125387586Y-91247906D01*
X125352889Y-91240531D01*
X125302887Y-91218268D01*
X125252893Y-91200775D01*
X125226868Y-91184422D01*
X125200164Y-91172533D01*
X125150369Y-91136355D01*
X125101208Y-91105465D01*
X125083554Y-91087811D01*
X125064915Y-91074269D01*
X125018833Y-91023090D01*
X124974535Y-90978792D01*
X124964345Y-90962575D01*
X124953053Y-90950034D01*
X124914420Y-90883120D01*
X124879225Y-90827107D01*
X124874830Y-90814547D01*
X124869464Y-90805253D01*
X124841980Y-90720667D01*
X124820058Y-90658017D01*
X124819226Y-90650639D01*
X124817804Y-90646261D01*
X124804908Y-90523565D01*
X124800000Y-90480000D01*
X124804908Y-90436438D01*
X124817804Y-90313738D01*
X124819226Y-90309358D01*
X124820058Y-90301983D01*
X124841975Y-90239345D01*
X124869464Y-90154746D01*
X124874831Y-90145449D01*
X124879225Y-90132893D01*
X124914413Y-90076890D01*
X124953053Y-90009965D01*
X124964347Y-89997421D01*
X124974535Y-89981208D01*
X125018826Y-89936916D01*
X125064917Y-89885728D01*
X125083559Y-89872183D01*
X125101208Y-89854535D01*
X125150354Y-89823654D01*
X125200162Y-89787467D01*
X125226873Y-89775574D01*
X125252893Y-89759225D01*
X125302877Y-89741734D01*
X125352889Y-89719468D01*
X125387592Y-89712091D01*
X125421983Y-89700058D01*
X125469281Y-89694728D01*
X125516412Y-89684711D01*
X125558189Y-89684711D01*
X125600000Y-89680000D01*
X125641811Y-89684711D01*
G37*
G36*
X133261811Y-89684711D02*
G01*
X133303588Y-89684711D01*
X133350718Y-89694728D01*
X133398017Y-89700058D01*
X133432408Y-89712092D01*
X133467110Y-89719468D01*
X133517117Y-89741733D01*
X133567107Y-89759225D01*
X133593128Y-89775575D01*
X133619835Y-89787466D01*
X133669633Y-89823646D01*
X133718792Y-89854535D01*
X133736444Y-89872187D01*
X133755084Y-89885730D01*
X133801165Y-89936908D01*
X133845465Y-89981208D01*
X133855654Y-89997424D01*
X133866946Y-90009965D01*
X133905573Y-90076870D01*
X133940775Y-90132893D01*
X133945170Y-90145453D01*
X133950535Y-90154746D01*
X133978010Y-90239305D01*
X133999942Y-90301983D01*
X134000773Y-90309363D01*
X134002195Y-90313738D01*
X134015076Y-90436306D01*
X134020000Y-90480000D01*
X134015076Y-90523697D01*
X134002195Y-90646261D01*
X134000773Y-90650635D01*
X133999942Y-90658017D01*
X133978005Y-90720707D01*
X133950535Y-90805253D01*
X133945171Y-90814543D01*
X133940775Y-90827107D01*
X133905566Y-90883140D01*
X133866946Y-90950034D01*
X133855656Y-90962572D01*
X133845465Y-90978792D01*
X133801155Y-91023101D01*
X133755084Y-91074269D01*
X133736448Y-91087808D01*
X133718792Y-91105465D01*
X133669623Y-91136359D01*
X133619835Y-91172533D01*
X133593134Y-91184421D01*
X133567107Y-91200775D01*
X133517107Y-91218270D01*
X133467110Y-91240531D01*
X133432414Y-91247905D01*
X133398017Y-91259942D01*
X133350715Y-91265271D01*
X133303588Y-91275289D01*
X133261811Y-91275289D01*
X133220000Y-91280000D01*
X133178189Y-91275289D01*
X133136412Y-91275289D01*
X133089284Y-91265271D01*
X133041983Y-91259942D01*
X133007586Y-91247906D01*
X132972889Y-91240531D01*
X132922887Y-91218268D01*
X132872893Y-91200775D01*
X132846868Y-91184422D01*
X132820164Y-91172533D01*
X132770369Y-91136355D01*
X132721208Y-91105465D01*
X132703554Y-91087811D01*
X132684915Y-91074269D01*
X132638833Y-91023090D01*
X132594535Y-90978792D01*
X132584345Y-90962575D01*
X132573053Y-90950034D01*
X132534420Y-90883120D01*
X132499225Y-90827107D01*
X132494830Y-90814547D01*
X132489464Y-90805253D01*
X132461980Y-90720667D01*
X132440058Y-90658017D01*
X132439226Y-90650639D01*
X132437804Y-90646261D01*
X132424908Y-90523565D01*
X132420000Y-90480000D01*
X132424908Y-90436438D01*
X132437804Y-90313738D01*
X132439226Y-90309358D01*
X132440058Y-90301983D01*
X132461975Y-90239345D01*
X132489464Y-90154746D01*
X132494831Y-90145449D01*
X132499225Y-90132893D01*
X132534413Y-90076890D01*
X132573053Y-90009965D01*
X132584347Y-89997421D01*
X132594535Y-89981208D01*
X132638826Y-89936916D01*
X132684917Y-89885728D01*
X132703559Y-89872183D01*
X132721208Y-89854535D01*
X132770354Y-89823654D01*
X132820162Y-89787467D01*
X132846873Y-89775574D01*
X132872893Y-89759225D01*
X132922877Y-89741734D01*
X132972889Y-89719468D01*
X133007592Y-89712091D01*
X133041983Y-89700058D01*
X133089281Y-89694728D01*
X133136412Y-89684711D01*
X133178189Y-89684711D01*
X133220000Y-89680000D01*
X133261811Y-89684711D01*
G37*
G36*
X169732664Y-88321602D02*
G01*
X169895000Y-88393878D01*
X170038761Y-88498327D01*
X170157664Y-88630383D01*
X170246514Y-88784274D01*
X170301425Y-88953275D01*
X170320000Y-89130000D01*
X170301425Y-89306725D01*
X170246514Y-89475726D01*
X170157664Y-89629617D01*
X170038761Y-89761673D01*
X169895000Y-89866122D01*
X169732664Y-89938398D01*
X169558849Y-89975344D01*
X169381151Y-89975344D01*
X169207336Y-89938398D01*
X169045000Y-89866122D01*
X168901239Y-89761673D01*
X168782336Y-89629617D01*
X168693486Y-89475726D01*
X168638575Y-89306725D01*
X168620000Y-89130000D01*
X168638575Y-88953275D01*
X168693486Y-88784274D01*
X168782336Y-88630383D01*
X168901239Y-88498327D01*
X169045000Y-88393878D01*
X169207336Y-88321602D01*
X169381151Y-88284656D01*
X169558849Y-88284656D01*
X169732664Y-88321602D01*
G37*
G36*
X142482664Y-88229102D02*
G01*
X142645000Y-88301378D01*
X142788761Y-88405827D01*
X142907664Y-88537883D01*
X142996514Y-88691774D01*
X143051425Y-88860775D01*
X143070000Y-89037500D01*
X143051425Y-89214225D01*
X142996514Y-89383226D01*
X142907664Y-89537117D01*
X142788761Y-89669173D01*
X142645000Y-89773622D01*
X142482664Y-89845898D01*
X142308849Y-89882844D01*
X142131151Y-89882844D01*
X141957336Y-89845898D01*
X141795000Y-89773622D01*
X141651239Y-89669173D01*
X141532336Y-89537117D01*
X141443486Y-89383226D01*
X141388575Y-89214225D01*
X141370000Y-89037500D01*
X141388575Y-88860775D01*
X141443486Y-88691774D01*
X141532336Y-88537883D01*
X141651239Y-88405827D01*
X141795000Y-88301378D01*
X141957336Y-88229102D01*
X142131151Y-88192156D01*
X142308849Y-88192156D01*
X142482664Y-88229102D01*
G37*
G36*
X160262664Y-88229102D02*
G01*
X160425000Y-88301378D01*
X160568761Y-88405827D01*
X160687664Y-88537883D01*
X160776514Y-88691774D01*
X160831425Y-88860775D01*
X160850000Y-89037500D01*
X160831425Y-89214225D01*
X160776514Y-89383226D01*
X160687664Y-89537117D01*
X160568761Y-89669173D01*
X160425000Y-89773622D01*
X160262664Y-89845898D01*
X160088849Y-89882844D01*
X159911151Y-89882844D01*
X159737336Y-89845898D01*
X159575000Y-89773622D01*
X159431239Y-89669173D01*
X159312336Y-89537117D01*
X159223486Y-89383226D01*
X159168575Y-89214225D01*
X159150000Y-89037500D01*
X159168575Y-88860775D01*
X159223486Y-88691774D01*
X159312336Y-88537883D01*
X159431239Y-88405827D01*
X159575000Y-88301378D01*
X159737336Y-88229102D01*
X159911151Y-88192156D01*
X160088849Y-88192156D01*
X160262664Y-88229102D01*
G37*
G36*
X169732664Y-85781602D02*
G01*
X169895000Y-85853878D01*
X170038761Y-85958327D01*
X170157664Y-86090383D01*
X170246514Y-86244274D01*
X170301425Y-86413275D01*
X170320000Y-86590000D01*
X170301425Y-86766725D01*
X170246514Y-86935726D01*
X170157664Y-87089617D01*
X170038761Y-87221673D01*
X169895000Y-87326122D01*
X169732664Y-87398398D01*
X169558849Y-87435344D01*
X169381151Y-87435344D01*
X169207336Y-87398398D01*
X169045000Y-87326122D01*
X168901239Y-87221673D01*
X168782336Y-87089617D01*
X168693486Y-86935726D01*
X168638575Y-86766725D01*
X168620000Y-86590000D01*
X168638575Y-86413275D01*
X168693486Y-86244274D01*
X168782336Y-86090383D01*
X168901239Y-85958327D01*
X169045000Y-85853878D01*
X169207336Y-85781602D01*
X169381151Y-85744656D01*
X169558849Y-85744656D01*
X169732664Y-85781602D01*
G37*
G36*
X142482664Y-85689102D02*
G01*
X142645000Y-85761378D01*
X142788761Y-85865827D01*
X142907664Y-85997883D01*
X142996514Y-86151774D01*
X143051425Y-86320775D01*
X143070000Y-86497500D01*
X143051425Y-86674225D01*
X142996514Y-86843226D01*
X142907664Y-86997117D01*
X142788761Y-87129173D01*
X142645000Y-87233622D01*
X142482664Y-87305898D01*
X142308849Y-87342844D01*
X142131151Y-87342844D01*
X141957336Y-87305898D01*
X141795000Y-87233622D01*
X141651239Y-87129173D01*
X141532336Y-86997117D01*
X141443486Y-86843226D01*
X141388575Y-86674225D01*
X141370000Y-86497500D01*
X141388575Y-86320775D01*
X141443486Y-86151774D01*
X141532336Y-85997883D01*
X141651239Y-85865827D01*
X141795000Y-85761378D01*
X141957336Y-85689102D01*
X142131151Y-85652156D01*
X142308849Y-85652156D01*
X142482664Y-85689102D01*
G37*
G36*
X160262664Y-85689102D02*
G01*
X160425000Y-85761378D01*
X160568761Y-85865827D01*
X160687664Y-85997883D01*
X160776514Y-86151774D01*
X160831425Y-86320775D01*
X160850000Y-86497500D01*
X160831425Y-86674225D01*
X160776514Y-86843226D01*
X160687664Y-86997117D01*
X160568761Y-87129173D01*
X160425000Y-87233622D01*
X160262664Y-87305898D01*
X160088849Y-87342844D01*
X159911151Y-87342844D01*
X159737336Y-87305898D01*
X159575000Y-87233622D01*
X159431239Y-87129173D01*
X159312336Y-86997117D01*
X159223486Y-86843226D01*
X159168575Y-86674225D01*
X159150000Y-86497500D01*
X159168575Y-86320775D01*
X159223486Y-86151774D01*
X159312336Y-85997883D01*
X159431239Y-85865827D01*
X159575000Y-85761378D01*
X159737336Y-85689102D01*
X159911151Y-85652156D01*
X160088849Y-85652156D01*
X160262664Y-85689102D01*
G37*
G36*
X169732664Y-83241602D02*
G01*
X169895000Y-83313878D01*
X170038761Y-83418327D01*
X170157664Y-83550383D01*
X170246514Y-83704274D01*
X170301425Y-83873275D01*
X170320000Y-84050000D01*
X170301425Y-84226725D01*
X170246514Y-84395726D01*
X170157664Y-84549617D01*
X170038761Y-84681673D01*
X169895000Y-84786122D01*
X169732664Y-84858398D01*
X169558849Y-84895344D01*
X169381151Y-84895344D01*
X169207336Y-84858398D01*
X169045000Y-84786122D01*
X168901239Y-84681673D01*
X168782336Y-84549617D01*
X168693486Y-84395726D01*
X168638575Y-84226725D01*
X168620000Y-84050000D01*
X168638575Y-83873275D01*
X168693486Y-83704274D01*
X168782336Y-83550383D01*
X168901239Y-83418327D01*
X169045000Y-83313878D01*
X169207336Y-83241602D01*
X169381151Y-83204656D01*
X169558849Y-83204656D01*
X169732664Y-83241602D01*
G37*
G36*
X142482664Y-83149102D02*
G01*
X142645000Y-83221378D01*
X142788761Y-83325827D01*
X142907664Y-83457883D01*
X142996514Y-83611774D01*
X143051425Y-83780775D01*
X143070000Y-83957500D01*
X143051425Y-84134225D01*
X142996514Y-84303226D01*
X142907664Y-84457117D01*
X142788761Y-84589173D01*
X142645000Y-84693622D01*
X142482664Y-84765898D01*
X142308849Y-84802844D01*
X142131151Y-84802844D01*
X141957336Y-84765898D01*
X141795000Y-84693622D01*
X141651239Y-84589173D01*
X141532336Y-84457117D01*
X141443486Y-84303226D01*
X141388575Y-84134225D01*
X141370000Y-83957500D01*
X141388575Y-83780775D01*
X141443486Y-83611774D01*
X141532336Y-83457883D01*
X141651239Y-83325827D01*
X141795000Y-83221378D01*
X141957336Y-83149102D01*
X142131151Y-83112156D01*
X142308849Y-83112156D01*
X142482664Y-83149102D01*
G37*
G36*
X160262664Y-83149102D02*
G01*
X160425000Y-83221378D01*
X160568761Y-83325827D01*
X160687664Y-83457883D01*
X160776514Y-83611774D01*
X160831425Y-83780775D01*
X160850000Y-83957500D01*
X160831425Y-84134225D01*
X160776514Y-84303226D01*
X160687664Y-84457117D01*
X160568761Y-84589173D01*
X160425000Y-84693622D01*
X160262664Y-84765898D01*
X160088849Y-84802844D01*
X159911151Y-84802844D01*
X159737336Y-84765898D01*
X159575000Y-84693622D01*
X159431239Y-84589173D01*
X159312336Y-84457117D01*
X159223486Y-84303226D01*
X159168575Y-84134225D01*
X159150000Y-83957500D01*
X159168575Y-83780775D01*
X159223486Y-83611774D01*
X159312336Y-83457883D01*
X159431239Y-83325827D01*
X159575000Y-83221378D01*
X159737336Y-83149102D01*
X159911151Y-83112156D01*
X160088849Y-83112156D01*
X160262664Y-83149102D01*
G37*
G36*
X114951811Y-83184711D02*
G01*
X114993588Y-83184711D01*
X115040718Y-83194728D01*
X115088017Y-83200058D01*
X115122408Y-83212092D01*
X115157110Y-83219468D01*
X115207117Y-83241733D01*
X115257107Y-83259225D01*
X115283128Y-83275575D01*
X115309835Y-83287466D01*
X115359633Y-83323646D01*
X115408792Y-83354535D01*
X115426444Y-83372187D01*
X115445084Y-83385730D01*
X115491165Y-83436908D01*
X115535465Y-83481208D01*
X115545654Y-83497424D01*
X115556946Y-83509965D01*
X115595573Y-83576870D01*
X115630775Y-83632893D01*
X115635170Y-83645453D01*
X115640535Y-83654746D01*
X115668010Y-83739305D01*
X115689942Y-83801983D01*
X115690773Y-83809363D01*
X115692195Y-83813738D01*
X115705076Y-83936306D01*
X115710000Y-83980000D01*
X115705076Y-84023697D01*
X115692195Y-84146261D01*
X115690773Y-84150635D01*
X115689942Y-84158017D01*
X115668005Y-84220707D01*
X115640535Y-84305253D01*
X115635171Y-84314543D01*
X115630775Y-84327107D01*
X115595566Y-84383140D01*
X115556946Y-84450034D01*
X115545656Y-84462572D01*
X115535465Y-84478792D01*
X115491155Y-84523101D01*
X115445084Y-84574269D01*
X115426448Y-84587808D01*
X115408792Y-84605465D01*
X115359623Y-84636359D01*
X115309835Y-84672533D01*
X115283134Y-84684421D01*
X115257107Y-84700775D01*
X115207107Y-84718270D01*
X115157110Y-84740531D01*
X115122414Y-84747905D01*
X115088017Y-84759942D01*
X115040715Y-84765271D01*
X114993588Y-84775289D01*
X114951811Y-84775289D01*
X114910000Y-84780000D01*
X114868189Y-84775289D01*
X114826412Y-84775289D01*
X114779284Y-84765271D01*
X114731983Y-84759942D01*
X114697586Y-84747906D01*
X114662889Y-84740531D01*
X114612887Y-84718268D01*
X114562893Y-84700775D01*
X114536868Y-84684422D01*
X114510164Y-84672533D01*
X114460369Y-84636355D01*
X114411208Y-84605465D01*
X114393554Y-84587811D01*
X114374915Y-84574269D01*
X114328833Y-84523090D01*
X114284535Y-84478792D01*
X114274345Y-84462575D01*
X114263053Y-84450034D01*
X114224420Y-84383120D01*
X114189225Y-84327107D01*
X114184830Y-84314547D01*
X114179464Y-84305253D01*
X114151980Y-84220667D01*
X114130058Y-84158017D01*
X114129226Y-84150639D01*
X114127804Y-84146261D01*
X114114908Y-84023565D01*
X114110000Y-83980000D01*
X114114908Y-83936438D01*
X114127804Y-83813738D01*
X114129226Y-83809358D01*
X114130058Y-83801983D01*
X114151975Y-83739345D01*
X114179464Y-83654746D01*
X114184831Y-83645449D01*
X114189225Y-83632893D01*
X114224413Y-83576890D01*
X114263053Y-83509965D01*
X114274347Y-83497421D01*
X114284535Y-83481208D01*
X114328826Y-83436916D01*
X114374917Y-83385728D01*
X114393559Y-83372183D01*
X114411208Y-83354535D01*
X114460354Y-83323654D01*
X114510162Y-83287467D01*
X114536873Y-83275574D01*
X114562893Y-83259225D01*
X114612877Y-83241734D01*
X114662889Y-83219468D01*
X114697592Y-83212091D01*
X114731983Y-83200058D01*
X114779281Y-83194728D01*
X114826412Y-83184711D01*
X114868189Y-83184711D01*
X114910000Y-83180000D01*
X114951811Y-83184711D01*
G37*
G36*
X122571811Y-83184711D02*
G01*
X122613588Y-83184711D01*
X122660718Y-83194728D01*
X122708017Y-83200058D01*
X122742408Y-83212092D01*
X122777110Y-83219468D01*
X122827117Y-83241733D01*
X122877107Y-83259225D01*
X122903128Y-83275575D01*
X122929835Y-83287466D01*
X122979633Y-83323646D01*
X123028792Y-83354535D01*
X123046444Y-83372187D01*
X123065084Y-83385730D01*
X123111165Y-83436908D01*
X123155465Y-83481208D01*
X123165654Y-83497424D01*
X123176946Y-83509965D01*
X123215573Y-83576870D01*
X123250775Y-83632893D01*
X123255170Y-83645453D01*
X123260535Y-83654746D01*
X123288010Y-83739305D01*
X123309942Y-83801983D01*
X123310773Y-83809363D01*
X123312195Y-83813738D01*
X123325076Y-83936306D01*
X123330000Y-83980000D01*
X123325076Y-84023697D01*
X123312195Y-84146261D01*
X123310773Y-84150635D01*
X123309942Y-84158017D01*
X123288005Y-84220707D01*
X123260535Y-84305253D01*
X123255171Y-84314543D01*
X123250775Y-84327107D01*
X123215566Y-84383140D01*
X123176946Y-84450034D01*
X123165656Y-84462572D01*
X123155465Y-84478792D01*
X123111155Y-84523101D01*
X123065084Y-84574269D01*
X123046448Y-84587808D01*
X123028792Y-84605465D01*
X122979623Y-84636359D01*
X122929835Y-84672533D01*
X122903134Y-84684421D01*
X122877107Y-84700775D01*
X122827107Y-84718270D01*
X122777110Y-84740531D01*
X122742414Y-84747905D01*
X122708017Y-84759942D01*
X122660715Y-84765271D01*
X122613588Y-84775289D01*
X122571811Y-84775289D01*
X122530000Y-84780000D01*
X122488189Y-84775289D01*
X122446412Y-84775289D01*
X122399284Y-84765271D01*
X122351983Y-84759942D01*
X122317586Y-84747906D01*
X122282889Y-84740531D01*
X122232887Y-84718268D01*
X122182893Y-84700775D01*
X122156868Y-84684422D01*
X122130164Y-84672533D01*
X122080369Y-84636355D01*
X122031208Y-84605465D01*
X122013554Y-84587811D01*
X121994915Y-84574269D01*
X121948833Y-84523090D01*
X121904535Y-84478792D01*
X121894345Y-84462575D01*
X121883053Y-84450034D01*
X121844420Y-84383120D01*
X121809225Y-84327107D01*
X121804830Y-84314547D01*
X121799464Y-84305253D01*
X121771980Y-84220667D01*
X121750058Y-84158017D01*
X121749226Y-84150639D01*
X121747804Y-84146261D01*
X121734908Y-84023565D01*
X121730000Y-83980000D01*
X121734908Y-83936438D01*
X121747804Y-83813738D01*
X121749226Y-83809358D01*
X121750058Y-83801983D01*
X121771975Y-83739345D01*
X121799464Y-83654746D01*
X121804831Y-83645449D01*
X121809225Y-83632893D01*
X121844413Y-83576890D01*
X121883053Y-83509965D01*
X121894347Y-83497421D01*
X121904535Y-83481208D01*
X121948826Y-83436916D01*
X121994917Y-83385728D01*
X122013559Y-83372183D01*
X122031208Y-83354535D01*
X122080354Y-83323654D01*
X122130162Y-83287467D01*
X122156873Y-83275574D01*
X122182893Y-83259225D01*
X122232877Y-83241734D01*
X122282889Y-83219468D01*
X122317592Y-83212091D01*
X122351983Y-83200058D01*
X122399281Y-83194728D01*
X122446412Y-83184711D01*
X122488189Y-83184711D01*
X122530000Y-83180000D01*
X122571811Y-83184711D01*
G37*
G36*
X128745000Y-84730000D02*
G01*
X127695000Y-84730000D01*
X127695000Y-83230000D01*
X128745000Y-83230000D01*
X128745000Y-84730000D01*
G37*
G36*
X129690909Y-83269963D02*
G01*
X129809600Y-83338489D01*
X129906511Y-83435400D01*
X129975037Y-83554091D01*
X130010509Y-83686474D01*
X130015000Y-83755000D01*
X130015000Y-84205000D01*
X130010509Y-84273526D01*
X129975037Y-84405909D01*
X129906511Y-84524600D01*
X129809600Y-84621511D01*
X129690909Y-84690037D01*
X129558526Y-84725509D01*
X129421474Y-84725509D01*
X129289091Y-84690037D01*
X129170400Y-84621511D01*
X129073489Y-84524600D01*
X129004963Y-84405909D01*
X128969491Y-84273526D01*
X128965000Y-84205000D01*
X128965000Y-83755000D01*
X128969491Y-83686474D01*
X129004963Y-83554091D01*
X129073489Y-83435400D01*
X129170400Y-83338489D01*
X129289091Y-83269963D01*
X129421474Y-83234491D01*
X129558526Y-83234491D01*
X129690909Y-83269963D01*
G37*
G36*
X130960909Y-83269963D02*
G01*
X131079600Y-83338489D01*
X131176511Y-83435400D01*
X131245037Y-83554091D01*
X131280509Y-83686474D01*
X131285000Y-83755000D01*
X131285000Y-84205000D01*
X131280509Y-84273526D01*
X131245037Y-84405909D01*
X131176511Y-84524600D01*
X131079600Y-84621511D01*
X130960909Y-84690037D01*
X130828526Y-84725509D01*
X130691474Y-84725509D01*
X130559091Y-84690037D01*
X130440400Y-84621511D01*
X130343489Y-84524600D01*
X130274963Y-84405909D01*
X130239491Y-84273526D01*
X130235000Y-84205000D01*
X130235000Y-83755000D01*
X130239491Y-83686474D01*
X130274963Y-83554091D01*
X130343489Y-83435400D01*
X130440400Y-83338489D01*
X130559091Y-83269963D01*
X130691474Y-83234491D01*
X130828526Y-83234491D01*
X130960909Y-83269963D01*
G37*
G36*
X170320000Y-82360000D02*
G01*
X168620000Y-82360000D01*
X168620000Y-80660000D01*
X170320000Y-80660000D01*
X170320000Y-82360000D01*
G37*
G36*
X142482664Y-80609102D02*
G01*
X142645000Y-80681378D01*
X142788761Y-80785827D01*
X142907664Y-80917883D01*
X142996514Y-81071774D01*
X143051425Y-81240775D01*
X143070000Y-81417500D01*
X143051425Y-81594225D01*
X142996514Y-81763226D01*
X142907664Y-81917117D01*
X142788761Y-82049173D01*
X142645000Y-82153622D01*
X142482664Y-82225898D01*
X142308849Y-82262844D01*
X142131151Y-82262844D01*
X141957336Y-82225898D01*
X141795000Y-82153622D01*
X141651239Y-82049173D01*
X141532336Y-81917117D01*
X141443486Y-81763226D01*
X141388575Y-81594225D01*
X141370000Y-81417500D01*
X141388575Y-81240775D01*
X141443486Y-81071774D01*
X141532336Y-80917883D01*
X141651239Y-80785827D01*
X141795000Y-80681378D01*
X141957336Y-80609102D01*
X142131151Y-80572156D01*
X142308849Y-80572156D01*
X142482664Y-80609102D01*
G37*
G36*
X160262664Y-80609102D02*
G01*
X160425000Y-80681378D01*
X160568761Y-80785827D01*
X160687664Y-80917883D01*
X160776514Y-81071774D01*
X160831425Y-81240775D01*
X160850000Y-81417500D01*
X160831425Y-81594225D01*
X160776514Y-81763226D01*
X160687664Y-81917117D01*
X160568761Y-82049173D01*
X160425000Y-82153622D01*
X160262664Y-82225898D01*
X160088849Y-82262844D01*
X159911151Y-82262844D01*
X159737336Y-82225898D01*
X159575000Y-82153622D01*
X159431239Y-82049173D01*
X159312336Y-81917117D01*
X159223486Y-81763226D01*
X159168575Y-81594225D01*
X159150000Y-81417500D01*
X159168575Y-81240775D01*
X159223486Y-81071774D01*
X159312336Y-80917883D01*
X159431239Y-80785827D01*
X159575000Y-80681378D01*
X159737336Y-80609102D01*
X159911151Y-80572156D01*
X160088849Y-80572156D01*
X160262664Y-80609102D01*
G37*
G36*
X142482664Y-78069102D02*
G01*
X142645000Y-78141378D01*
X142788761Y-78245827D01*
X142907664Y-78377883D01*
X142996514Y-78531774D01*
X143051425Y-78700775D01*
X143070000Y-78877500D01*
X143051425Y-79054225D01*
X142996514Y-79223226D01*
X142907664Y-79377117D01*
X142788761Y-79509173D01*
X142645000Y-79613622D01*
X142482664Y-79685898D01*
X142308849Y-79722844D01*
X142131151Y-79722844D01*
X141957336Y-79685898D01*
X141795000Y-79613622D01*
X141651239Y-79509173D01*
X141532336Y-79377117D01*
X141443486Y-79223226D01*
X141388575Y-79054225D01*
X141370000Y-78877500D01*
X141388575Y-78700775D01*
X141443486Y-78531774D01*
X141532336Y-78377883D01*
X141651239Y-78245827D01*
X141795000Y-78141378D01*
X141957336Y-78069102D01*
X142131151Y-78032156D01*
X142308849Y-78032156D01*
X142482664Y-78069102D01*
G37*
G36*
X160262664Y-78069102D02*
G01*
X160425000Y-78141378D01*
X160568761Y-78245827D01*
X160687664Y-78377883D01*
X160776514Y-78531774D01*
X160831425Y-78700775D01*
X160850000Y-78877500D01*
X160831425Y-79054225D01*
X160776514Y-79223226D01*
X160687664Y-79377117D01*
X160568761Y-79509173D01*
X160425000Y-79613622D01*
X160262664Y-79685898D01*
X160088849Y-79722844D01*
X159911151Y-79722844D01*
X159737336Y-79685898D01*
X159575000Y-79613622D01*
X159431239Y-79509173D01*
X159312336Y-79377117D01*
X159223486Y-79223226D01*
X159168575Y-79054225D01*
X159150000Y-78877500D01*
X159168575Y-78700775D01*
X159223486Y-78531774D01*
X159312336Y-78377883D01*
X159431239Y-78245827D01*
X159575000Y-78141378D01*
X159737336Y-78069102D01*
X159911151Y-78032156D01*
X160088849Y-78032156D01*
X160262664Y-78069102D01*
G37*
G36*
X142482664Y-75529102D02*
G01*
X142645000Y-75601378D01*
X142788761Y-75705827D01*
X142907664Y-75837883D01*
X142996514Y-75991774D01*
X143051425Y-76160775D01*
X143070000Y-76337500D01*
X143051425Y-76514225D01*
X142996514Y-76683226D01*
X142907664Y-76837117D01*
X142788761Y-76969173D01*
X142645000Y-77073622D01*
X142482664Y-77145898D01*
X142308849Y-77182844D01*
X142131151Y-77182844D01*
X141957336Y-77145898D01*
X141795000Y-77073622D01*
X141651239Y-76969173D01*
X141532336Y-76837117D01*
X141443486Y-76683226D01*
X141388575Y-76514225D01*
X141370000Y-76337500D01*
X141388575Y-76160775D01*
X141443486Y-75991774D01*
X141532336Y-75837883D01*
X141651239Y-75705827D01*
X141795000Y-75601378D01*
X141957336Y-75529102D01*
X142131151Y-75492156D01*
X142308849Y-75492156D01*
X142482664Y-75529102D01*
G37*
G36*
X160262664Y-75529102D02*
G01*
X160425000Y-75601378D01*
X160568761Y-75705827D01*
X160687664Y-75837883D01*
X160776514Y-75991774D01*
X160831425Y-76160775D01*
X160850000Y-76337500D01*
X160831425Y-76514225D01*
X160776514Y-76683226D01*
X160687664Y-76837117D01*
X160568761Y-76969173D01*
X160425000Y-77073622D01*
X160262664Y-77145898D01*
X160088849Y-77182844D01*
X159911151Y-77182844D01*
X159737336Y-77145898D01*
X159575000Y-77073622D01*
X159431239Y-76969173D01*
X159312336Y-76837117D01*
X159223486Y-76683226D01*
X159168575Y-76514225D01*
X159150000Y-76337500D01*
X159168575Y-76160775D01*
X159223486Y-75991774D01*
X159312336Y-75837883D01*
X159431239Y-75705827D01*
X159575000Y-75601378D01*
X159737336Y-75529102D01*
X159911151Y-75492156D01*
X160088849Y-75492156D01*
X160262664Y-75529102D01*
G37*
G36*
X110482664Y-73031602D02*
G01*
X110645000Y-73103878D01*
X110788761Y-73208327D01*
X110907664Y-73340383D01*
X110996514Y-73494274D01*
X111051425Y-73663275D01*
X111070000Y-73840000D01*
X111051425Y-74016725D01*
X110996514Y-74185726D01*
X110907664Y-74339617D01*
X110788761Y-74471673D01*
X110645000Y-74576122D01*
X110482664Y-74648398D01*
X110308849Y-74685344D01*
X110131151Y-74685344D01*
X109957336Y-74648398D01*
X109795000Y-74576122D01*
X109651239Y-74471673D01*
X109532336Y-74339617D01*
X109443486Y-74185726D01*
X109388575Y-74016725D01*
X109370000Y-73840000D01*
X109388575Y-73663275D01*
X109443486Y-73494274D01*
X109532336Y-73340383D01*
X109651239Y-73208327D01*
X109795000Y-73103878D01*
X109957336Y-73031602D01*
X110131151Y-72994656D01*
X110308849Y-72994656D01*
X110482664Y-73031602D01*
G37*
G36*
X142482664Y-72989102D02*
G01*
X142645000Y-73061378D01*
X142788761Y-73165827D01*
X142907664Y-73297883D01*
X142996514Y-73451774D01*
X143051425Y-73620775D01*
X143070000Y-73797500D01*
X143051425Y-73974225D01*
X142996514Y-74143226D01*
X142907664Y-74297117D01*
X142788761Y-74429173D01*
X142645000Y-74533622D01*
X142482664Y-74605898D01*
X142308849Y-74642844D01*
X142131151Y-74642844D01*
X141957336Y-74605898D01*
X141795000Y-74533622D01*
X141651239Y-74429173D01*
X141532336Y-74297117D01*
X141443486Y-74143226D01*
X141388575Y-73974225D01*
X141370000Y-73797500D01*
X141388575Y-73620775D01*
X141443486Y-73451774D01*
X141532336Y-73297883D01*
X141651239Y-73165827D01*
X141795000Y-73061378D01*
X141957336Y-72989102D01*
X142131151Y-72952156D01*
X142308849Y-72952156D01*
X142482664Y-72989102D01*
G37*
G36*
X160262664Y-72989102D02*
G01*
X160425000Y-73061378D01*
X160568761Y-73165827D01*
X160687664Y-73297883D01*
X160776514Y-73451774D01*
X160831425Y-73620775D01*
X160850000Y-73797500D01*
X160831425Y-73974225D01*
X160776514Y-74143226D01*
X160687664Y-74297117D01*
X160568761Y-74429173D01*
X160425000Y-74533622D01*
X160262664Y-74605898D01*
X160088849Y-74642844D01*
X159911151Y-74642844D01*
X159737336Y-74605898D01*
X159575000Y-74533622D01*
X159431239Y-74429173D01*
X159312336Y-74297117D01*
X159223486Y-74143226D01*
X159168575Y-73974225D01*
X159150000Y-73797500D01*
X159168575Y-73620775D01*
X159223486Y-73451774D01*
X159312336Y-73297883D01*
X159431239Y-73165827D01*
X159575000Y-73061378D01*
X159737336Y-72989102D01*
X159911151Y-72952156D01*
X160088849Y-72952156D01*
X160262664Y-72989102D01*
G37*
G36*
X111070000Y-72150000D02*
G01*
X109370000Y-72150000D01*
X109370000Y-70450000D01*
X111070000Y-70450000D01*
X111070000Y-72150000D01*
G37*
G36*
X143070000Y-72107500D02*
G01*
X141370000Y-72107500D01*
X141370000Y-70407500D01*
X143070000Y-70407500D01*
X143070000Y-72107500D01*
G37*
G36*
X160850000Y-72107500D02*
G01*
X159150000Y-72107500D01*
X159150000Y-70407500D01*
X160850000Y-70407500D01*
X160850000Y-72107500D01*
G37*
G36*
X103859412Y-63133876D02*
G01*
X104109347Y-63210971D01*
X104345000Y-63324456D01*
X104561107Y-63471795D01*
X104752841Y-63649698D01*
X104915918Y-63854190D01*
X105046696Y-64080703D01*
X105142252Y-64324178D01*
X105200454Y-64579176D01*
X105220000Y-64840000D01*
X105200454Y-65100824D01*
X105142252Y-65355822D01*
X105046696Y-65599297D01*
X104915918Y-65825810D01*
X104752841Y-66030302D01*
X104561107Y-66208205D01*
X104345000Y-66355544D01*
X104109347Y-66469029D01*
X103859412Y-66546124D01*
X103600778Y-66585107D01*
X103339222Y-66585107D01*
X103080588Y-66546124D01*
X102830653Y-66469029D01*
X102595000Y-66355544D01*
X102378893Y-66208205D01*
X102187159Y-66030302D01*
X102024082Y-65825810D01*
X101893304Y-65599297D01*
X101797748Y-65355822D01*
X101739546Y-65100824D01*
X101720000Y-64840000D01*
X101739546Y-64579176D01*
X101797748Y-64324178D01*
X101893304Y-64080703D01*
X102024082Y-63854190D01*
X102187159Y-63649698D01*
X102378893Y-63471795D01*
X102595000Y-63324456D01*
X102830653Y-63210971D01*
X103080588Y-63133876D01*
X103339222Y-63094893D01*
X103600778Y-63094893D01*
X103859412Y-63133876D01*
G37*
G36*
X186109412Y-63133876D02*
G01*
X186359347Y-63210971D01*
X186595000Y-63324456D01*
X186811107Y-63471795D01*
X187002841Y-63649698D01*
X187165918Y-63854190D01*
X187296696Y-64080703D01*
X187392252Y-64324178D01*
X187450454Y-64579176D01*
X187470000Y-64840000D01*
X187450454Y-65100824D01*
X187392252Y-65355822D01*
X187296696Y-65599297D01*
X187165918Y-65825810D01*
X187002841Y-66030302D01*
X186811107Y-66208205D01*
X186595000Y-66355544D01*
X186359347Y-66469029D01*
X186109412Y-66546124D01*
X185850778Y-66585107D01*
X185589222Y-66585107D01*
X185330588Y-66546124D01*
X185080653Y-66469029D01*
X184845000Y-66355544D01*
X184628893Y-66208205D01*
X184437159Y-66030302D01*
X184274082Y-65825810D01*
X184143304Y-65599297D01*
X184047748Y-65355822D01*
X183989546Y-65100824D01*
X183970000Y-64840000D01*
X183989546Y-64579176D01*
X184047748Y-64324178D01*
X184143304Y-64080703D01*
X184274082Y-63854190D01*
X184437159Y-63649698D01*
X184628893Y-63471795D01*
X184845000Y-63324456D01*
X185080653Y-63210971D01*
X185330588Y-63133876D01*
X185589222Y-63094893D01*
X185850778Y-63094893D01*
X186109412Y-63133876D01*
G37*
G36*
X139400000Y-65320000D02*
G01*
X137200000Y-65320000D01*
X137200000Y-63120000D01*
X139400000Y-63120000D01*
X139400000Y-65320000D01*
G37*
G36*
X128441029Y-63161992D02*
G01*
X128630312Y-63235320D01*
X128802898Y-63342181D01*
X128952910Y-63478935D01*
X129075239Y-63640925D01*
X129165719Y-63822634D01*
X129221270Y-64017876D01*
X129240000Y-64220000D01*
X129221270Y-64422124D01*
X129165719Y-64617366D01*
X129075239Y-64799075D01*
X128952910Y-64961065D01*
X128802898Y-65097819D01*
X128630312Y-65204680D01*
X128441029Y-65278008D01*
X128241495Y-65315308D01*
X128038505Y-65315308D01*
X127838971Y-65278008D01*
X127649688Y-65204680D01*
X127477102Y-65097819D01*
X127327090Y-64961065D01*
X127204761Y-64799075D01*
X127114281Y-64617366D01*
X127058730Y-64422124D01*
X127040000Y-64220000D01*
X127058730Y-64017876D01*
X127114281Y-63822634D01*
X127204761Y-63640925D01*
X127327090Y-63478935D01*
X127477102Y-63342181D01*
X127649688Y-63235320D01*
X127838971Y-63161992D01*
X128038505Y-63124692D01*
X128241495Y-63124692D01*
X128441029Y-63161992D01*
G37*
M02*
