%TF.GenerationSoftware,KiCad,Pcbnew,8.0.7-8.0.7-0~ubuntu22.04.1*%
%TF.CreationDate,2025-01-05T09:50:37-03:00*%
%TF.ProjectId,fenix-controlador-de-ressolda,66656e69-782d-4636-9f6e-74726f6c6164,rev?*%
%TF.SameCoordinates,Original*%
%TF.FileFunction,Drillmap*%
%TF.FilePolarity,Positive*%
%FSLAX45Y45*%
G04 Gerber Fmt 4.5, Leading zero omitted, Abs format (unit mm)*
G04 Created by KiCad (PCBNEW 8.0.7-8.0.7-0~ubuntu22.04.1) date 2025-01-05 09:50:37*
%MOMM*%
%LPD*%
G01*
G04 APERTURE LIST*
%ADD10C,0.050000*%
%ADD11C,0.200000*%
%ADD12C,0.100000*%
%ADD13C,0.110000*%
%ADD14C,0.220000*%
G04 APERTURE END LIST*
D10*
X9997000Y-6084000D02*
X18997000Y-6084000D01*
X18997000Y-13584000D01*
X9997000Y-13584000D01*
X9997000Y-6084000D01*
D11*
D12*
X11507000Y-7369000D02*
X11537000Y-7399000D01*
X11537000Y-7369000D02*
X11507000Y-7399000D01*
X12859500Y-8398000D02*
G75*
G02*
X12784500Y-8398000I-37500J0D01*
G01*
X12784500Y-8398000D02*
G75*
G02*
X12859500Y-8398000I37500J0D01*
G01*
X12859500Y-9784000D02*
G75*
G02*
X12784500Y-9784000I-37500J0D01*
G01*
X12784500Y-9784000D02*
G75*
G02*
X12859500Y-9784000I37500J0D01*
G01*
X12859500Y-10770000D02*
G75*
G02*
X12784500Y-10770000I-37500J0D01*
G01*
X12784500Y-10770000D02*
G75*
G02*
X12859500Y-10770000I37500J0D01*
G01*
X12859500Y-11984000D02*
G75*
G02*
X12784500Y-11984000I-37500J0D01*
G01*
X12784500Y-11984000D02*
G75*
G02*
X12859500Y-11984000I37500J0D01*
G01*
X12986500Y-8398000D02*
G75*
G02*
X12911500Y-8398000I-37500J0D01*
G01*
X12911500Y-8398000D02*
G75*
G02*
X12986500Y-8398000I37500J0D01*
G01*
X12986500Y-9784000D02*
G75*
G02*
X12911500Y-9784000I-37500J0D01*
G01*
X12911500Y-9784000D02*
G75*
G02*
X12986500Y-9784000I37500J0D01*
G01*
X12986500Y-10770000D02*
G75*
G02*
X12911500Y-10770000I-37500J0D01*
G01*
X12911500Y-10770000D02*
G75*
G02*
X12986500Y-10770000I37500J0D01*
G01*
X12986500Y-11984000D02*
G75*
G02*
X12911500Y-11984000I-37500J0D01*
G01*
X12911500Y-11984000D02*
G75*
G02*
X12986500Y-11984000I37500J0D01*
G01*
X13113500Y-8398000D02*
G75*
G02*
X13038500Y-8398000I-37500J0D01*
G01*
X13038500Y-8398000D02*
G75*
G02*
X13113500Y-8398000I37500J0D01*
G01*
X13113500Y-9784000D02*
G75*
G02*
X13038500Y-9784000I-37500J0D01*
G01*
X13038500Y-9784000D02*
G75*
G02*
X13113500Y-9784000I37500J0D01*
G01*
X13113500Y-10770000D02*
G75*
G02*
X13038500Y-10770000I-37500J0D01*
G01*
X13038500Y-10770000D02*
G75*
G02*
X13113500Y-10770000I37500J0D01*
G01*
X13113500Y-11984000D02*
G75*
G02*
X13038500Y-11984000I-37500J0D01*
G01*
X13038500Y-11984000D02*
G75*
G02*
X13113500Y-11984000I37500J0D01*
G01*
X11410000Y-10694000D02*
X11410000Y-10774000D01*
X11370000Y-10734000D02*
X11450000Y-10734000D01*
X11410000Y-11344000D02*
X11410000Y-11424000D01*
X11370000Y-11384000D02*
X11450000Y-11384000D01*
X11441000Y-9658000D02*
X11441000Y-9738000D01*
X11401000Y-9698000D02*
X11481000Y-9698000D01*
X11460000Y-9008000D02*
X11460000Y-9088000D01*
X11420000Y-9048000D02*
X11500000Y-9048000D01*
X11460000Y-11944000D02*
X11460000Y-12024000D01*
X11420000Y-11984000D02*
X11500000Y-11984000D01*
X11491000Y-8358000D02*
X11491000Y-8438000D01*
X11451000Y-8398000D02*
X11531000Y-8398000D01*
X12172000Y-10694000D02*
X12172000Y-10774000D01*
X12132000Y-10734000D02*
X12212000Y-10734000D01*
X12172000Y-11344000D02*
X12172000Y-11424000D01*
X12132000Y-11384000D02*
X12212000Y-11384000D01*
X12203000Y-9658000D02*
X12203000Y-9738000D01*
X12163000Y-9698000D02*
X12243000Y-9698000D01*
X12222000Y-9008000D02*
X12222000Y-9088000D01*
X12182000Y-9048000D02*
X12262000Y-9048000D01*
X12222000Y-11944000D02*
X12222000Y-12024000D01*
X12182000Y-11984000D02*
X12262000Y-11984000D01*
X12253000Y-8358000D02*
X12253000Y-8438000D01*
X12213000Y-8398000D02*
X12293000Y-8398000D01*
X12460000Y-11344000D02*
X12460000Y-11424000D01*
X12420000Y-11384000D02*
X12500000Y-11384000D01*
X12560000Y-9008000D02*
X12560000Y-9088000D01*
X12520000Y-9048000D02*
X12600000Y-9048000D01*
X13222000Y-11344000D02*
X13222000Y-11424000D01*
X13182000Y-11384000D02*
X13262000Y-11384000D01*
X13322000Y-9008000D02*
X13322000Y-9088000D01*
X13282000Y-9048000D02*
X13362000Y-9048000D01*
X10757356Y-9569356D02*
X10757356Y-9498644D01*
X10686644Y-9498644D01*
X10686644Y-9569356D01*
X10757356Y-9569356D01*
X10757356Y-9823356D02*
X10757356Y-9752644D01*
X10686644Y-9752644D01*
X10686644Y-9823356D01*
X10757356Y-9823356D01*
X10759856Y-11394356D02*
X10759856Y-11323644D01*
X10689144Y-11323644D01*
X10689144Y-11394356D01*
X10759856Y-11394356D01*
X10759856Y-11648356D02*
X10759856Y-11577644D01*
X10689144Y-11577644D01*
X10689144Y-11648356D01*
X10759856Y-11648356D01*
X11057356Y-7165356D02*
X11057356Y-7094644D01*
X10986644Y-7094644D01*
X10986644Y-7165356D01*
X11057356Y-7165356D01*
X11057356Y-7419356D02*
X11057356Y-7348644D01*
X10986644Y-7348644D01*
X10986644Y-7419356D01*
X11057356Y-7419356D01*
X14257356Y-7161106D02*
X14257356Y-7090394D01*
X14186644Y-7090394D01*
X14186644Y-7161106D01*
X14257356Y-7161106D01*
X14257356Y-7415106D02*
X14257356Y-7344394D01*
X14186644Y-7344394D01*
X14186644Y-7415106D01*
X14257356Y-7415106D01*
X14257356Y-7669106D02*
X14257356Y-7598394D01*
X14186644Y-7598394D01*
X14186644Y-7669106D01*
X14257356Y-7669106D01*
X14257356Y-7923106D02*
X14257356Y-7852394D01*
X14186644Y-7852394D01*
X14186644Y-7923106D01*
X14257356Y-7923106D01*
X14257356Y-8177106D02*
X14257356Y-8106394D01*
X14186644Y-8106394D01*
X14186644Y-8177106D01*
X14257356Y-8177106D01*
X14257356Y-8431106D02*
X14257356Y-8360394D01*
X14186644Y-8360394D01*
X14186644Y-8431106D01*
X14257356Y-8431106D01*
X14257356Y-8685106D02*
X14257356Y-8614394D01*
X14186644Y-8614394D01*
X14186644Y-8685106D01*
X14257356Y-8685106D01*
X14257356Y-8939106D02*
X14257356Y-8868394D01*
X14186644Y-8868394D01*
X14186644Y-8939106D01*
X14257356Y-8939106D01*
X14257356Y-9193106D02*
X14257356Y-9122394D01*
X14186644Y-9122394D01*
X14186644Y-9193106D01*
X14257356Y-9193106D01*
X14257356Y-9447106D02*
X14257356Y-9376394D01*
X14186644Y-9376394D01*
X14186644Y-9447106D01*
X14257356Y-9447106D01*
X14257356Y-9701106D02*
X14257356Y-9630394D01*
X14186644Y-9630394D01*
X14186644Y-9701106D01*
X14257356Y-9701106D01*
X14257356Y-9955106D02*
X14257356Y-9884394D01*
X14186644Y-9884394D01*
X14186644Y-9955106D01*
X14257356Y-9955106D01*
X14257356Y-10209106D02*
X14257356Y-10138394D01*
X14186644Y-10138394D01*
X14186644Y-10209106D01*
X14257356Y-10209106D01*
X14257356Y-10463106D02*
X14257356Y-10392394D01*
X14186644Y-10392394D01*
X14186644Y-10463106D01*
X14257356Y-10463106D01*
X14257356Y-10717106D02*
X14257356Y-10646394D01*
X14186644Y-10646394D01*
X14186644Y-10717106D01*
X14257356Y-10717106D01*
X14257356Y-10971106D02*
X14257356Y-10900394D01*
X14186644Y-10900394D01*
X14186644Y-10971106D01*
X14257356Y-10971106D01*
X14257356Y-11225106D02*
X14257356Y-11154394D01*
X14186644Y-11154394D01*
X14186644Y-11225106D01*
X14257356Y-11225106D01*
X14257356Y-11479106D02*
X14257356Y-11408394D01*
X14186644Y-11408394D01*
X14186644Y-11479106D01*
X14257356Y-11479106D01*
X14257356Y-11733106D02*
X14257356Y-11662394D01*
X14186644Y-11662394D01*
X14186644Y-11733106D01*
X14257356Y-11733106D01*
X14257356Y-11987106D02*
X14257356Y-11916394D01*
X14186644Y-11916394D01*
X14186644Y-11987106D01*
X14257356Y-11987106D01*
X16035356Y-7161106D02*
X16035356Y-7090394D01*
X15964644Y-7090394D01*
X15964644Y-7161106D01*
X16035356Y-7161106D01*
X16035356Y-7415106D02*
X16035356Y-7344394D01*
X15964644Y-7344394D01*
X15964644Y-7415106D01*
X16035356Y-7415106D01*
X16035356Y-7669106D02*
X16035356Y-7598394D01*
X15964644Y-7598394D01*
X15964644Y-7669106D01*
X16035356Y-7669106D01*
X16035356Y-7923106D02*
X16035356Y-7852394D01*
X15964644Y-7852394D01*
X15964644Y-7923106D01*
X16035356Y-7923106D01*
X16035356Y-8177106D02*
X16035356Y-8106394D01*
X15964644Y-8106394D01*
X15964644Y-8177106D01*
X16035356Y-8177106D01*
X16035356Y-8431106D02*
X16035356Y-8360394D01*
X15964644Y-8360394D01*
X15964644Y-8431106D01*
X16035356Y-8431106D01*
X16035356Y-8685106D02*
X16035356Y-8614394D01*
X15964644Y-8614394D01*
X15964644Y-8685106D01*
X16035356Y-8685106D01*
X16035356Y-8939106D02*
X16035356Y-8868394D01*
X15964644Y-8868394D01*
X15964644Y-8939106D01*
X16035356Y-8939106D01*
X16035356Y-9193106D02*
X16035356Y-9122394D01*
X15964644Y-9122394D01*
X15964644Y-9193106D01*
X16035356Y-9193106D01*
X16035356Y-9447106D02*
X16035356Y-9376394D01*
X15964644Y-9376394D01*
X15964644Y-9447106D01*
X16035356Y-9447106D01*
X16035356Y-9701106D02*
X16035356Y-9630394D01*
X15964644Y-9630394D01*
X15964644Y-9701106D01*
X16035356Y-9701106D01*
X16035356Y-9955106D02*
X16035356Y-9884394D01*
X15964644Y-9884394D01*
X15964644Y-9955106D01*
X16035356Y-9955106D01*
X16035356Y-10209106D02*
X16035356Y-10138394D01*
X15964644Y-10138394D01*
X15964644Y-10209106D01*
X16035356Y-10209106D01*
X16035356Y-10463106D02*
X16035356Y-10392394D01*
X15964644Y-10392394D01*
X15964644Y-10463106D01*
X16035356Y-10463106D01*
X16035356Y-10717106D02*
X16035356Y-10646394D01*
X15964644Y-10646394D01*
X15964644Y-10717106D01*
X16035356Y-10717106D01*
X16035356Y-10971106D02*
X16035356Y-10900394D01*
X15964644Y-10900394D01*
X15964644Y-10971106D01*
X16035356Y-10971106D01*
X16035356Y-11225106D02*
X16035356Y-11154394D01*
X15964644Y-11154394D01*
X15964644Y-11225106D01*
X16035356Y-11225106D01*
X16035356Y-11479106D02*
X16035356Y-11408394D01*
X15964644Y-11408394D01*
X15964644Y-11479106D01*
X16035356Y-11479106D01*
X16035356Y-11733106D02*
X16035356Y-11662394D01*
X15964644Y-11662394D01*
X15964644Y-11733106D01*
X16035356Y-11733106D01*
X16035356Y-11987106D02*
X16035356Y-11916394D01*
X15964644Y-11916394D01*
X15964644Y-11987106D01*
X16035356Y-11987106D01*
X16957356Y-10257356D02*
X16957356Y-10186644D01*
X16886644Y-10186644D01*
X16886644Y-10257356D01*
X16957356Y-10257356D01*
X16957356Y-10511356D02*
X16957356Y-10440644D01*
X16886644Y-10440644D01*
X16886644Y-10511356D01*
X16957356Y-10511356D01*
X16957356Y-10765356D02*
X16957356Y-10694644D01*
X16886644Y-10694644D01*
X16886644Y-10765356D01*
X16957356Y-10765356D01*
X16982356Y-8186356D02*
X16982356Y-8115644D01*
X16911644Y-8115644D01*
X16911644Y-8186356D01*
X16982356Y-8186356D01*
X16982356Y-8440356D02*
X16982356Y-8369644D01*
X16911644Y-8369644D01*
X16911644Y-8440356D01*
X16982356Y-8440356D01*
X16982356Y-8694356D02*
X16982356Y-8623644D01*
X16911644Y-8623644D01*
X16911644Y-8694356D01*
X16982356Y-8694356D01*
X16982356Y-8948356D02*
X16982356Y-8877644D01*
X16911644Y-8877644D01*
X16911644Y-8948356D01*
X16982356Y-8948356D01*
X18407356Y-9082356D02*
X18407356Y-9011644D01*
X18336644Y-9011644D01*
X18336644Y-9082356D01*
X18407356Y-9082356D01*
X18407356Y-9336356D02*
X18407356Y-9265644D01*
X18336644Y-9265644D01*
X18336644Y-9336356D01*
X18407356Y-9336356D01*
X18407356Y-9590356D02*
X18407356Y-9519644D01*
X18336644Y-9519644D01*
X18336644Y-9590356D01*
X18407356Y-9590356D01*
X18407356Y-9844356D02*
X18407356Y-9773644D01*
X18336644Y-9773644D01*
X18336644Y-9844356D01*
X18407356Y-9844356D01*
X18407356Y-10098356D02*
X18407356Y-10027644D01*
X18336644Y-10027644D01*
X18336644Y-10098356D01*
X18407356Y-10098356D01*
D13*
X12814000Y-6477000D02*
X12869000Y-6422000D01*
X12814000Y-6367000D01*
X12759000Y-6422000D01*
X12814000Y-6477000D01*
X13830000Y-6477000D02*
X13885000Y-6422000D01*
X13830000Y-6367000D01*
X13775000Y-6422000D01*
X13830000Y-6477000D01*
D14*
X10237000Y-6374000D02*
X10457000Y-6594000D01*
X10457000Y-6374000D02*
X10237000Y-6594000D01*
X10457000Y-6484000D02*
G75*
G02*
X10237000Y-6484000I-110000J0D01*
G01*
X10237000Y-6484000D02*
G75*
G02*
X10457000Y-6484000I110000J0D01*
G01*
X10237000Y-12974000D02*
X10457000Y-13194000D01*
X10457000Y-12974000D02*
X10237000Y-13194000D01*
X10457000Y-13084000D02*
G75*
G02*
X10237000Y-13084000I-110000J0D01*
G01*
X10237000Y-13084000D02*
G75*
G02*
X10457000Y-13084000I110000J0D01*
G01*
X18462000Y-6374000D02*
X18682000Y-6594000D01*
X18682000Y-6374000D02*
X18462000Y-6594000D01*
X18682000Y-6484000D02*
G75*
G02*
X18462000Y-6484000I-110000J0D01*
G01*
X18462000Y-6484000D02*
G75*
G02*
X18682000Y-6484000I110000J0D01*
G01*
X18462000Y-12974000D02*
X18682000Y-13194000D01*
X18682000Y-12974000D02*
X18462000Y-13194000D01*
X18682000Y-13084000D02*
G75*
G02*
X18462000Y-13084000I-110000J0D01*
G01*
X18462000Y-13084000D02*
G75*
G02*
X18682000Y-13084000I110000J0D01*
G01*
D11*
X10255277Y-13897984D02*
X10255277Y-13697984D01*
X10255277Y-13697984D02*
X10302896Y-13697984D01*
X10302896Y-13697984D02*
X10331467Y-13707508D01*
X10331467Y-13707508D02*
X10350515Y-13726555D01*
X10350515Y-13726555D02*
X10360039Y-13745603D01*
X10360039Y-13745603D02*
X10369563Y-13783698D01*
X10369563Y-13783698D02*
X10369563Y-13812269D01*
X10369563Y-13812269D02*
X10360039Y-13850365D01*
X10360039Y-13850365D02*
X10350515Y-13869412D01*
X10350515Y-13869412D02*
X10331467Y-13888460D01*
X10331467Y-13888460D02*
X10302896Y-13897984D01*
X10302896Y-13897984D02*
X10255277Y-13897984D01*
X10455277Y-13897984D02*
X10455277Y-13764650D01*
X10455277Y-13802746D02*
X10464801Y-13783698D01*
X10464801Y-13783698D02*
X10474324Y-13774174D01*
X10474324Y-13774174D02*
X10493372Y-13764650D01*
X10493372Y-13764650D02*
X10512420Y-13764650D01*
X10579086Y-13897984D02*
X10579086Y-13764650D01*
X10579086Y-13697984D02*
X10569563Y-13707508D01*
X10569563Y-13707508D02*
X10579086Y-13717031D01*
X10579086Y-13717031D02*
X10588610Y-13707508D01*
X10588610Y-13707508D02*
X10579086Y-13697984D01*
X10579086Y-13697984D02*
X10579086Y-13717031D01*
X10702896Y-13897984D02*
X10683848Y-13888460D01*
X10683848Y-13888460D02*
X10674324Y-13869412D01*
X10674324Y-13869412D02*
X10674324Y-13697984D01*
X10807658Y-13897984D02*
X10788610Y-13888460D01*
X10788610Y-13888460D02*
X10779086Y-13869412D01*
X10779086Y-13869412D02*
X10779086Y-13697984D01*
X11036229Y-13897984D02*
X11036229Y-13697984D01*
X11036229Y-13697984D02*
X11102896Y-13840841D01*
X11102896Y-13840841D02*
X11169563Y-13697984D01*
X11169563Y-13697984D02*
X11169563Y-13897984D01*
X11350515Y-13897984D02*
X11350515Y-13793222D01*
X11350515Y-13793222D02*
X11340991Y-13774174D01*
X11340991Y-13774174D02*
X11321943Y-13764650D01*
X11321943Y-13764650D02*
X11283848Y-13764650D01*
X11283848Y-13764650D02*
X11264801Y-13774174D01*
X11350515Y-13888460D02*
X11331467Y-13897984D01*
X11331467Y-13897984D02*
X11283848Y-13897984D01*
X11283848Y-13897984D02*
X11264801Y-13888460D01*
X11264801Y-13888460D02*
X11255277Y-13869412D01*
X11255277Y-13869412D02*
X11255277Y-13850365D01*
X11255277Y-13850365D02*
X11264801Y-13831317D01*
X11264801Y-13831317D02*
X11283848Y-13821793D01*
X11283848Y-13821793D02*
X11331467Y-13821793D01*
X11331467Y-13821793D02*
X11350515Y-13812269D01*
X11445753Y-13764650D02*
X11445753Y-13964650D01*
X11445753Y-13774174D02*
X11464801Y-13764650D01*
X11464801Y-13764650D02*
X11502896Y-13764650D01*
X11502896Y-13764650D02*
X11521943Y-13774174D01*
X11521943Y-13774174D02*
X11531467Y-13783698D01*
X11531467Y-13783698D02*
X11540991Y-13802746D01*
X11540991Y-13802746D02*
X11540991Y-13859888D01*
X11540991Y-13859888D02*
X11531467Y-13878936D01*
X11531467Y-13878936D02*
X11521943Y-13888460D01*
X11521943Y-13888460D02*
X11502896Y-13897984D01*
X11502896Y-13897984D02*
X11464801Y-13897984D01*
X11464801Y-13897984D02*
X11445753Y-13888460D01*
X11626705Y-13878936D02*
X11636229Y-13888460D01*
X11636229Y-13888460D02*
X11626705Y-13897984D01*
X11626705Y-13897984D02*
X11617182Y-13888460D01*
X11617182Y-13888460D02*
X11626705Y-13878936D01*
X11626705Y-13878936D02*
X11626705Y-13897984D01*
X11626705Y-13774174D02*
X11636229Y-13783698D01*
X11636229Y-13783698D02*
X11626705Y-13793222D01*
X11626705Y-13793222D02*
X11617182Y-13783698D01*
X11617182Y-13783698D02*
X11626705Y-13774174D01*
X11626705Y-13774174D02*
X11626705Y-13793222D01*
D12*
X9964500Y-14211500D02*
X9994500Y-14241500D01*
X9994500Y-14211500D02*
X9964500Y-14241500D01*
D11*
X10293372Y-14117984D02*
X10312420Y-14117984D01*
X10312420Y-14117984D02*
X10331467Y-14127508D01*
X10331467Y-14127508D02*
X10340991Y-14137031D01*
X10340991Y-14137031D02*
X10350515Y-14156079D01*
X10350515Y-14156079D02*
X10360039Y-14194174D01*
X10360039Y-14194174D02*
X10360039Y-14241793D01*
X10360039Y-14241793D02*
X10350515Y-14279888D01*
X10350515Y-14279888D02*
X10340991Y-14298936D01*
X10340991Y-14298936D02*
X10331467Y-14308460D01*
X10331467Y-14308460D02*
X10312420Y-14317984D01*
X10312420Y-14317984D02*
X10293372Y-14317984D01*
X10293372Y-14317984D02*
X10274324Y-14308460D01*
X10274324Y-14308460D02*
X10264801Y-14298936D01*
X10264801Y-14298936D02*
X10255277Y-14279888D01*
X10255277Y-14279888D02*
X10245753Y-14241793D01*
X10245753Y-14241793D02*
X10245753Y-14194174D01*
X10245753Y-14194174D02*
X10255277Y-14156079D01*
X10255277Y-14156079D02*
X10264801Y-14137031D01*
X10264801Y-14137031D02*
X10274324Y-14127508D01*
X10274324Y-14127508D02*
X10293372Y-14117984D01*
X10445753Y-14298936D02*
X10455277Y-14308460D01*
X10455277Y-14308460D02*
X10445753Y-14317984D01*
X10445753Y-14317984D02*
X10436229Y-14308460D01*
X10436229Y-14308460D02*
X10445753Y-14298936D01*
X10445753Y-14298936D02*
X10445753Y-14317984D01*
X10521944Y-14117984D02*
X10645753Y-14117984D01*
X10645753Y-14117984D02*
X10579086Y-14194174D01*
X10579086Y-14194174D02*
X10607658Y-14194174D01*
X10607658Y-14194174D02*
X10626705Y-14203698D01*
X10626705Y-14203698D02*
X10636229Y-14213222D01*
X10636229Y-14213222D02*
X10645753Y-14232269D01*
X10645753Y-14232269D02*
X10645753Y-14279888D01*
X10645753Y-14279888D02*
X10636229Y-14298936D01*
X10636229Y-14298936D02*
X10626705Y-14308460D01*
X10626705Y-14308460D02*
X10607658Y-14317984D01*
X10607658Y-14317984D02*
X10550515Y-14317984D01*
X10550515Y-14317984D02*
X10531467Y-14308460D01*
X10531467Y-14308460D02*
X10521944Y-14298936D01*
X10769563Y-14117984D02*
X10788610Y-14117984D01*
X10788610Y-14117984D02*
X10807658Y-14127508D01*
X10807658Y-14127508D02*
X10817182Y-14137031D01*
X10817182Y-14137031D02*
X10826705Y-14156079D01*
X10826705Y-14156079D02*
X10836229Y-14194174D01*
X10836229Y-14194174D02*
X10836229Y-14241793D01*
X10836229Y-14241793D02*
X10826705Y-14279888D01*
X10826705Y-14279888D02*
X10817182Y-14298936D01*
X10817182Y-14298936D02*
X10807658Y-14308460D01*
X10807658Y-14308460D02*
X10788610Y-14317984D01*
X10788610Y-14317984D02*
X10769563Y-14317984D01*
X10769563Y-14317984D02*
X10750515Y-14308460D01*
X10750515Y-14308460D02*
X10740991Y-14298936D01*
X10740991Y-14298936D02*
X10731467Y-14279888D01*
X10731467Y-14279888D02*
X10721944Y-14241793D01*
X10721944Y-14241793D02*
X10721944Y-14194174D01*
X10721944Y-14194174D02*
X10731467Y-14156079D01*
X10731467Y-14156079D02*
X10740991Y-14137031D01*
X10740991Y-14137031D02*
X10750515Y-14127508D01*
X10750515Y-14127508D02*
X10769563Y-14117984D01*
X10960039Y-14117984D02*
X10979086Y-14117984D01*
X10979086Y-14117984D02*
X10998134Y-14127508D01*
X10998134Y-14127508D02*
X11007658Y-14137031D01*
X11007658Y-14137031D02*
X11017182Y-14156079D01*
X11017182Y-14156079D02*
X11026705Y-14194174D01*
X11026705Y-14194174D02*
X11026705Y-14241793D01*
X11026705Y-14241793D02*
X11017182Y-14279888D01*
X11017182Y-14279888D02*
X11007658Y-14298936D01*
X11007658Y-14298936D02*
X10998134Y-14308460D01*
X10998134Y-14308460D02*
X10979086Y-14317984D01*
X10979086Y-14317984D02*
X10960039Y-14317984D01*
X10960039Y-14317984D02*
X10940991Y-14308460D01*
X10940991Y-14308460D02*
X10931467Y-14298936D01*
X10931467Y-14298936D02*
X10921944Y-14279888D01*
X10921944Y-14279888D02*
X10912420Y-14241793D01*
X10912420Y-14241793D02*
X10912420Y-14194174D01*
X10912420Y-14194174D02*
X10921944Y-14156079D01*
X10921944Y-14156079D02*
X10931467Y-14137031D01*
X10931467Y-14137031D02*
X10940991Y-14127508D01*
X10940991Y-14127508D02*
X10960039Y-14117984D01*
X11112420Y-14317984D02*
X11112420Y-14184650D01*
X11112420Y-14203698D02*
X11121944Y-14194174D01*
X11121944Y-14194174D02*
X11140991Y-14184650D01*
X11140991Y-14184650D02*
X11169563Y-14184650D01*
X11169563Y-14184650D02*
X11188610Y-14194174D01*
X11188610Y-14194174D02*
X11198134Y-14213222D01*
X11198134Y-14213222D02*
X11198134Y-14317984D01*
X11198134Y-14213222D02*
X11207658Y-14194174D01*
X11207658Y-14194174D02*
X11226705Y-14184650D01*
X11226705Y-14184650D02*
X11255277Y-14184650D01*
X11255277Y-14184650D02*
X11274324Y-14194174D01*
X11274324Y-14194174D02*
X11283848Y-14213222D01*
X11283848Y-14213222D02*
X11283848Y-14317984D01*
X11379086Y-14317984D02*
X11379086Y-14184650D01*
X11379086Y-14203698D02*
X11388610Y-14194174D01*
X11388610Y-14194174D02*
X11407658Y-14184650D01*
X11407658Y-14184650D02*
X11436229Y-14184650D01*
X11436229Y-14184650D02*
X11455277Y-14194174D01*
X11455277Y-14194174D02*
X11464801Y-14213222D01*
X11464801Y-14213222D02*
X11464801Y-14317984D01*
X11464801Y-14213222D02*
X11474324Y-14194174D01*
X11474324Y-14194174D02*
X11493372Y-14184650D01*
X11493372Y-14184650D02*
X11521943Y-14184650D01*
X11521943Y-14184650D02*
X11540991Y-14194174D01*
X11540991Y-14194174D02*
X11550515Y-14213222D01*
X11550515Y-14213222D02*
X11550515Y-14317984D01*
X11940991Y-14108460D02*
X11769563Y-14365603D01*
X12198134Y-14117984D02*
X12217182Y-14117984D01*
X12217182Y-14117984D02*
X12236229Y-14127508D01*
X12236229Y-14127508D02*
X12245753Y-14137031D01*
X12245753Y-14137031D02*
X12255277Y-14156079D01*
X12255277Y-14156079D02*
X12264801Y-14194174D01*
X12264801Y-14194174D02*
X12264801Y-14241793D01*
X12264801Y-14241793D02*
X12255277Y-14279888D01*
X12255277Y-14279888D02*
X12245753Y-14298936D01*
X12245753Y-14298936D02*
X12236229Y-14308460D01*
X12236229Y-14308460D02*
X12217182Y-14317984D01*
X12217182Y-14317984D02*
X12198134Y-14317984D01*
X12198134Y-14317984D02*
X12179086Y-14308460D01*
X12179086Y-14308460D02*
X12169563Y-14298936D01*
X12169563Y-14298936D02*
X12160039Y-14279888D01*
X12160039Y-14279888D02*
X12150515Y-14241793D01*
X12150515Y-14241793D02*
X12150515Y-14194174D01*
X12150515Y-14194174D02*
X12160039Y-14156079D01*
X12160039Y-14156079D02*
X12169563Y-14137031D01*
X12169563Y-14137031D02*
X12179086Y-14127508D01*
X12179086Y-14127508D02*
X12198134Y-14117984D01*
X12350515Y-14298936D02*
X12360039Y-14308460D01*
X12360039Y-14308460D02*
X12350515Y-14317984D01*
X12350515Y-14317984D02*
X12340991Y-14308460D01*
X12340991Y-14308460D02*
X12350515Y-14298936D01*
X12350515Y-14298936D02*
X12350515Y-14317984D01*
X12483848Y-14117984D02*
X12502896Y-14117984D01*
X12502896Y-14117984D02*
X12521944Y-14127508D01*
X12521944Y-14127508D02*
X12531467Y-14137031D01*
X12531467Y-14137031D02*
X12540991Y-14156079D01*
X12540991Y-14156079D02*
X12550515Y-14194174D01*
X12550515Y-14194174D02*
X12550515Y-14241793D01*
X12550515Y-14241793D02*
X12540991Y-14279888D01*
X12540991Y-14279888D02*
X12531467Y-14298936D01*
X12531467Y-14298936D02*
X12521944Y-14308460D01*
X12521944Y-14308460D02*
X12502896Y-14317984D01*
X12502896Y-14317984D02*
X12483848Y-14317984D01*
X12483848Y-14317984D02*
X12464801Y-14308460D01*
X12464801Y-14308460D02*
X12455277Y-14298936D01*
X12455277Y-14298936D02*
X12445753Y-14279888D01*
X12445753Y-14279888D02*
X12436229Y-14241793D01*
X12436229Y-14241793D02*
X12436229Y-14194174D01*
X12436229Y-14194174D02*
X12445753Y-14156079D01*
X12445753Y-14156079D02*
X12455277Y-14137031D01*
X12455277Y-14137031D02*
X12464801Y-14127508D01*
X12464801Y-14127508D02*
X12483848Y-14117984D01*
X12740991Y-14317984D02*
X12626706Y-14317984D01*
X12683848Y-14317984D02*
X12683848Y-14117984D01*
X12683848Y-14117984D02*
X12664801Y-14146555D01*
X12664801Y-14146555D02*
X12645753Y-14165603D01*
X12645753Y-14165603D02*
X12626706Y-14175127D01*
X12931467Y-14317984D02*
X12817182Y-14317984D01*
X12874325Y-14317984D02*
X12874325Y-14117984D01*
X12874325Y-14117984D02*
X12855277Y-14146555D01*
X12855277Y-14146555D02*
X12836229Y-14165603D01*
X12836229Y-14165603D02*
X12817182Y-14175127D01*
X13045753Y-14203698D02*
X13026706Y-14194174D01*
X13026706Y-14194174D02*
X13017182Y-14184650D01*
X13017182Y-14184650D02*
X13007658Y-14165603D01*
X13007658Y-14165603D02*
X13007658Y-14156079D01*
X13007658Y-14156079D02*
X13017182Y-14137031D01*
X13017182Y-14137031D02*
X13026706Y-14127508D01*
X13026706Y-14127508D02*
X13045753Y-14117984D01*
X13045753Y-14117984D02*
X13083848Y-14117984D01*
X13083848Y-14117984D02*
X13102896Y-14127508D01*
X13102896Y-14127508D02*
X13112420Y-14137031D01*
X13112420Y-14137031D02*
X13121944Y-14156079D01*
X13121944Y-14156079D02*
X13121944Y-14165603D01*
X13121944Y-14165603D02*
X13112420Y-14184650D01*
X13112420Y-14184650D02*
X13102896Y-14194174D01*
X13102896Y-14194174D02*
X13083848Y-14203698D01*
X13083848Y-14203698D02*
X13045753Y-14203698D01*
X13045753Y-14203698D02*
X13026706Y-14213222D01*
X13026706Y-14213222D02*
X13017182Y-14222746D01*
X13017182Y-14222746D02*
X13007658Y-14241793D01*
X13007658Y-14241793D02*
X13007658Y-14279888D01*
X13007658Y-14279888D02*
X13017182Y-14298936D01*
X13017182Y-14298936D02*
X13026706Y-14308460D01*
X13026706Y-14308460D02*
X13045753Y-14317984D01*
X13045753Y-14317984D02*
X13083848Y-14317984D01*
X13083848Y-14317984D02*
X13102896Y-14308460D01*
X13102896Y-14308460D02*
X13112420Y-14298936D01*
X13112420Y-14298936D02*
X13121944Y-14279888D01*
X13121944Y-14279888D02*
X13121944Y-14241793D01*
X13121944Y-14241793D02*
X13112420Y-14222746D01*
X13112420Y-14222746D02*
X13102896Y-14213222D01*
X13102896Y-14213222D02*
X13083848Y-14203698D01*
X13198134Y-14117984D02*
X13198134Y-14156079D01*
X13274325Y-14117984D02*
X13274325Y-14156079D01*
X13569563Y-14394174D02*
X13560039Y-14384650D01*
X13560039Y-14384650D02*
X13540991Y-14356079D01*
X13540991Y-14356079D02*
X13531468Y-14337031D01*
X13531468Y-14337031D02*
X13521944Y-14308460D01*
X13521944Y-14308460D02*
X13512420Y-14260841D01*
X13512420Y-14260841D02*
X13512420Y-14222746D01*
X13512420Y-14222746D02*
X13521944Y-14175127D01*
X13521944Y-14175127D02*
X13531468Y-14146555D01*
X13531468Y-14146555D02*
X13540991Y-14127508D01*
X13540991Y-14127508D02*
X13560039Y-14098936D01*
X13560039Y-14098936D02*
X13569563Y-14089412D01*
X13750515Y-14317984D02*
X13636229Y-14317984D01*
X13693372Y-14317984D02*
X13693372Y-14117984D01*
X13693372Y-14117984D02*
X13674325Y-14146555D01*
X13674325Y-14146555D02*
X13655277Y-14165603D01*
X13655277Y-14165603D02*
X13636229Y-14175127D01*
X13988610Y-14317984D02*
X13988610Y-14117984D01*
X14074325Y-14317984D02*
X14074325Y-14213222D01*
X14074325Y-14213222D02*
X14064801Y-14194174D01*
X14064801Y-14194174D02*
X14045753Y-14184650D01*
X14045753Y-14184650D02*
X14017182Y-14184650D01*
X14017182Y-14184650D02*
X13998134Y-14194174D01*
X13998134Y-14194174D02*
X13988610Y-14203698D01*
X14198134Y-14317984D02*
X14179087Y-14308460D01*
X14179087Y-14308460D02*
X14169563Y-14298936D01*
X14169563Y-14298936D02*
X14160039Y-14279888D01*
X14160039Y-14279888D02*
X14160039Y-14222746D01*
X14160039Y-14222746D02*
X14169563Y-14203698D01*
X14169563Y-14203698D02*
X14179087Y-14194174D01*
X14179087Y-14194174D02*
X14198134Y-14184650D01*
X14198134Y-14184650D02*
X14226706Y-14184650D01*
X14226706Y-14184650D02*
X14245753Y-14194174D01*
X14245753Y-14194174D02*
X14255277Y-14203698D01*
X14255277Y-14203698D02*
X14264801Y-14222746D01*
X14264801Y-14222746D02*
X14264801Y-14279888D01*
X14264801Y-14279888D02*
X14255277Y-14298936D01*
X14255277Y-14298936D02*
X14245753Y-14308460D01*
X14245753Y-14308460D02*
X14226706Y-14317984D01*
X14226706Y-14317984D02*
X14198134Y-14317984D01*
X14379087Y-14317984D02*
X14360039Y-14308460D01*
X14360039Y-14308460D02*
X14350515Y-14289412D01*
X14350515Y-14289412D02*
X14350515Y-14117984D01*
X14531468Y-14308460D02*
X14512420Y-14317984D01*
X14512420Y-14317984D02*
X14474325Y-14317984D01*
X14474325Y-14317984D02*
X14455277Y-14308460D01*
X14455277Y-14308460D02*
X14445753Y-14289412D01*
X14445753Y-14289412D02*
X14445753Y-14213222D01*
X14445753Y-14213222D02*
X14455277Y-14194174D01*
X14455277Y-14194174D02*
X14474325Y-14184650D01*
X14474325Y-14184650D02*
X14512420Y-14184650D01*
X14512420Y-14184650D02*
X14531468Y-14194174D01*
X14531468Y-14194174D02*
X14540991Y-14213222D01*
X14540991Y-14213222D02*
X14540991Y-14232269D01*
X14540991Y-14232269D02*
X14445753Y-14251317D01*
X14607658Y-14394174D02*
X14617182Y-14384650D01*
X14617182Y-14384650D02*
X14636230Y-14356079D01*
X14636230Y-14356079D02*
X14645753Y-14337031D01*
X14645753Y-14337031D02*
X14655277Y-14308460D01*
X14655277Y-14308460D02*
X14664801Y-14260841D01*
X14664801Y-14260841D02*
X14664801Y-14222746D01*
X14664801Y-14222746D02*
X14655277Y-14175127D01*
X14655277Y-14175127D02*
X14645753Y-14146555D01*
X14645753Y-14146555D02*
X14636230Y-14127508D01*
X14636230Y-14127508D02*
X14617182Y-14098936D01*
X14617182Y-14098936D02*
X14607658Y-14089412D01*
D12*
X9994500Y-14490500D02*
G75*
G02*
X9919500Y-14490500I-37500J0D01*
G01*
X9919500Y-14490500D02*
G75*
G02*
X9994500Y-14490500I37500J0D01*
G01*
D11*
X10293372Y-14381984D02*
X10312420Y-14381984D01*
X10312420Y-14381984D02*
X10331467Y-14391508D01*
X10331467Y-14391508D02*
X10340991Y-14401031D01*
X10340991Y-14401031D02*
X10350515Y-14420079D01*
X10350515Y-14420079D02*
X10360039Y-14458174D01*
X10360039Y-14458174D02*
X10360039Y-14505793D01*
X10360039Y-14505793D02*
X10350515Y-14543888D01*
X10350515Y-14543888D02*
X10340991Y-14562936D01*
X10340991Y-14562936D02*
X10331467Y-14572460D01*
X10331467Y-14572460D02*
X10312420Y-14581984D01*
X10312420Y-14581984D02*
X10293372Y-14581984D01*
X10293372Y-14581984D02*
X10274324Y-14572460D01*
X10274324Y-14572460D02*
X10264801Y-14562936D01*
X10264801Y-14562936D02*
X10255277Y-14543888D01*
X10255277Y-14543888D02*
X10245753Y-14505793D01*
X10245753Y-14505793D02*
X10245753Y-14458174D01*
X10245753Y-14458174D02*
X10255277Y-14420079D01*
X10255277Y-14420079D02*
X10264801Y-14401031D01*
X10264801Y-14401031D02*
X10274324Y-14391508D01*
X10274324Y-14391508D02*
X10293372Y-14381984D01*
X10445753Y-14562936D02*
X10455277Y-14572460D01*
X10455277Y-14572460D02*
X10445753Y-14581984D01*
X10445753Y-14581984D02*
X10436229Y-14572460D01*
X10436229Y-14572460D02*
X10445753Y-14562936D01*
X10445753Y-14562936D02*
X10445753Y-14581984D01*
X10521944Y-14381984D02*
X10655277Y-14381984D01*
X10655277Y-14381984D02*
X10569563Y-14581984D01*
X10826705Y-14381984D02*
X10731467Y-14381984D01*
X10731467Y-14381984D02*
X10721944Y-14477222D01*
X10721944Y-14477222D02*
X10731467Y-14467698D01*
X10731467Y-14467698D02*
X10750515Y-14458174D01*
X10750515Y-14458174D02*
X10798134Y-14458174D01*
X10798134Y-14458174D02*
X10817182Y-14467698D01*
X10817182Y-14467698D02*
X10826705Y-14477222D01*
X10826705Y-14477222D02*
X10836229Y-14496269D01*
X10836229Y-14496269D02*
X10836229Y-14543888D01*
X10836229Y-14543888D02*
X10826705Y-14562936D01*
X10826705Y-14562936D02*
X10817182Y-14572460D01*
X10817182Y-14572460D02*
X10798134Y-14581984D01*
X10798134Y-14581984D02*
X10750515Y-14581984D01*
X10750515Y-14581984D02*
X10731467Y-14572460D01*
X10731467Y-14572460D02*
X10721944Y-14562936D01*
X10960039Y-14381984D02*
X10979086Y-14381984D01*
X10979086Y-14381984D02*
X10998134Y-14391508D01*
X10998134Y-14391508D02*
X11007658Y-14401031D01*
X11007658Y-14401031D02*
X11017182Y-14420079D01*
X11017182Y-14420079D02*
X11026705Y-14458174D01*
X11026705Y-14458174D02*
X11026705Y-14505793D01*
X11026705Y-14505793D02*
X11017182Y-14543888D01*
X11017182Y-14543888D02*
X11007658Y-14562936D01*
X11007658Y-14562936D02*
X10998134Y-14572460D01*
X10998134Y-14572460D02*
X10979086Y-14581984D01*
X10979086Y-14581984D02*
X10960039Y-14581984D01*
X10960039Y-14581984D02*
X10940991Y-14572460D01*
X10940991Y-14572460D02*
X10931467Y-14562936D01*
X10931467Y-14562936D02*
X10921944Y-14543888D01*
X10921944Y-14543888D02*
X10912420Y-14505793D01*
X10912420Y-14505793D02*
X10912420Y-14458174D01*
X10912420Y-14458174D02*
X10921944Y-14420079D01*
X10921944Y-14420079D02*
X10931467Y-14401031D01*
X10931467Y-14401031D02*
X10940991Y-14391508D01*
X10940991Y-14391508D02*
X10960039Y-14381984D01*
X11112420Y-14581984D02*
X11112420Y-14448650D01*
X11112420Y-14467698D02*
X11121944Y-14458174D01*
X11121944Y-14458174D02*
X11140991Y-14448650D01*
X11140991Y-14448650D02*
X11169563Y-14448650D01*
X11169563Y-14448650D02*
X11188610Y-14458174D01*
X11188610Y-14458174D02*
X11198134Y-14477222D01*
X11198134Y-14477222D02*
X11198134Y-14581984D01*
X11198134Y-14477222D02*
X11207658Y-14458174D01*
X11207658Y-14458174D02*
X11226705Y-14448650D01*
X11226705Y-14448650D02*
X11255277Y-14448650D01*
X11255277Y-14448650D02*
X11274324Y-14458174D01*
X11274324Y-14458174D02*
X11283848Y-14477222D01*
X11283848Y-14477222D02*
X11283848Y-14581984D01*
X11379086Y-14581984D02*
X11379086Y-14448650D01*
X11379086Y-14467698D02*
X11388610Y-14458174D01*
X11388610Y-14458174D02*
X11407658Y-14448650D01*
X11407658Y-14448650D02*
X11436229Y-14448650D01*
X11436229Y-14448650D02*
X11455277Y-14458174D01*
X11455277Y-14458174D02*
X11464801Y-14477222D01*
X11464801Y-14477222D02*
X11464801Y-14581984D01*
X11464801Y-14477222D02*
X11474324Y-14458174D01*
X11474324Y-14458174D02*
X11493372Y-14448650D01*
X11493372Y-14448650D02*
X11521943Y-14448650D01*
X11521943Y-14448650D02*
X11540991Y-14458174D01*
X11540991Y-14458174D02*
X11550515Y-14477222D01*
X11550515Y-14477222D02*
X11550515Y-14581984D01*
X11940991Y-14372460D02*
X11769563Y-14629603D01*
X12198134Y-14381984D02*
X12217182Y-14381984D01*
X12217182Y-14381984D02*
X12236229Y-14391508D01*
X12236229Y-14391508D02*
X12245753Y-14401031D01*
X12245753Y-14401031D02*
X12255277Y-14420079D01*
X12255277Y-14420079D02*
X12264801Y-14458174D01*
X12264801Y-14458174D02*
X12264801Y-14505793D01*
X12264801Y-14505793D02*
X12255277Y-14543888D01*
X12255277Y-14543888D02*
X12245753Y-14562936D01*
X12245753Y-14562936D02*
X12236229Y-14572460D01*
X12236229Y-14572460D02*
X12217182Y-14581984D01*
X12217182Y-14581984D02*
X12198134Y-14581984D01*
X12198134Y-14581984D02*
X12179086Y-14572460D01*
X12179086Y-14572460D02*
X12169563Y-14562936D01*
X12169563Y-14562936D02*
X12160039Y-14543888D01*
X12160039Y-14543888D02*
X12150515Y-14505793D01*
X12150515Y-14505793D02*
X12150515Y-14458174D01*
X12150515Y-14458174D02*
X12160039Y-14420079D01*
X12160039Y-14420079D02*
X12169563Y-14401031D01*
X12169563Y-14401031D02*
X12179086Y-14391508D01*
X12179086Y-14391508D02*
X12198134Y-14381984D01*
X12350515Y-14562936D02*
X12360039Y-14572460D01*
X12360039Y-14572460D02*
X12350515Y-14581984D01*
X12350515Y-14581984D02*
X12340991Y-14572460D01*
X12340991Y-14572460D02*
X12350515Y-14562936D01*
X12350515Y-14562936D02*
X12350515Y-14581984D01*
X12483848Y-14381984D02*
X12502896Y-14381984D01*
X12502896Y-14381984D02*
X12521944Y-14391508D01*
X12521944Y-14391508D02*
X12531467Y-14401031D01*
X12531467Y-14401031D02*
X12540991Y-14420079D01*
X12540991Y-14420079D02*
X12550515Y-14458174D01*
X12550515Y-14458174D02*
X12550515Y-14505793D01*
X12550515Y-14505793D02*
X12540991Y-14543888D01*
X12540991Y-14543888D02*
X12531467Y-14562936D01*
X12531467Y-14562936D02*
X12521944Y-14572460D01*
X12521944Y-14572460D02*
X12502896Y-14581984D01*
X12502896Y-14581984D02*
X12483848Y-14581984D01*
X12483848Y-14581984D02*
X12464801Y-14572460D01*
X12464801Y-14572460D02*
X12455277Y-14562936D01*
X12455277Y-14562936D02*
X12445753Y-14543888D01*
X12445753Y-14543888D02*
X12436229Y-14505793D01*
X12436229Y-14505793D02*
X12436229Y-14458174D01*
X12436229Y-14458174D02*
X12445753Y-14420079D01*
X12445753Y-14420079D02*
X12455277Y-14401031D01*
X12455277Y-14401031D02*
X12464801Y-14391508D01*
X12464801Y-14391508D02*
X12483848Y-14381984D01*
X12626706Y-14401031D02*
X12636229Y-14391508D01*
X12636229Y-14391508D02*
X12655277Y-14381984D01*
X12655277Y-14381984D02*
X12702896Y-14381984D01*
X12702896Y-14381984D02*
X12721944Y-14391508D01*
X12721944Y-14391508D02*
X12731467Y-14401031D01*
X12731467Y-14401031D02*
X12740991Y-14420079D01*
X12740991Y-14420079D02*
X12740991Y-14439127D01*
X12740991Y-14439127D02*
X12731467Y-14467698D01*
X12731467Y-14467698D02*
X12617182Y-14581984D01*
X12617182Y-14581984D02*
X12740991Y-14581984D01*
X12836229Y-14581984D02*
X12874325Y-14581984D01*
X12874325Y-14581984D02*
X12893372Y-14572460D01*
X12893372Y-14572460D02*
X12902896Y-14562936D01*
X12902896Y-14562936D02*
X12921944Y-14534365D01*
X12921944Y-14534365D02*
X12931467Y-14496269D01*
X12931467Y-14496269D02*
X12931467Y-14420079D01*
X12931467Y-14420079D02*
X12921944Y-14401031D01*
X12921944Y-14401031D02*
X12912420Y-14391508D01*
X12912420Y-14391508D02*
X12893372Y-14381984D01*
X12893372Y-14381984D02*
X12855277Y-14381984D01*
X12855277Y-14381984D02*
X12836229Y-14391508D01*
X12836229Y-14391508D02*
X12826706Y-14401031D01*
X12826706Y-14401031D02*
X12817182Y-14420079D01*
X12817182Y-14420079D02*
X12817182Y-14467698D01*
X12817182Y-14467698D02*
X12826706Y-14486746D01*
X12826706Y-14486746D02*
X12836229Y-14496269D01*
X12836229Y-14496269D02*
X12855277Y-14505793D01*
X12855277Y-14505793D02*
X12893372Y-14505793D01*
X12893372Y-14505793D02*
X12912420Y-14496269D01*
X12912420Y-14496269D02*
X12921944Y-14486746D01*
X12921944Y-14486746D02*
X12931467Y-14467698D01*
X13112420Y-14381984D02*
X13017182Y-14381984D01*
X13017182Y-14381984D02*
X13007658Y-14477222D01*
X13007658Y-14477222D02*
X13017182Y-14467698D01*
X13017182Y-14467698D02*
X13036229Y-14458174D01*
X13036229Y-14458174D02*
X13083848Y-14458174D01*
X13083848Y-14458174D02*
X13102896Y-14467698D01*
X13102896Y-14467698D02*
X13112420Y-14477222D01*
X13112420Y-14477222D02*
X13121944Y-14496269D01*
X13121944Y-14496269D02*
X13121944Y-14543888D01*
X13121944Y-14543888D02*
X13112420Y-14562936D01*
X13112420Y-14562936D02*
X13102896Y-14572460D01*
X13102896Y-14572460D02*
X13083848Y-14581984D01*
X13083848Y-14581984D02*
X13036229Y-14581984D01*
X13036229Y-14581984D02*
X13017182Y-14572460D01*
X13017182Y-14572460D02*
X13007658Y-14562936D01*
X13198134Y-14381984D02*
X13198134Y-14420079D01*
X13274325Y-14381984D02*
X13274325Y-14420079D01*
X13569563Y-14658174D02*
X13560039Y-14648650D01*
X13560039Y-14648650D02*
X13540991Y-14620079D01*
X13540991Y-14620079D02*
X13531468Y-14601031D01*
X13531468Y-14601031D02*
X13521944Y-14572460D01*
X13521944Y-14572460D02*
X13512420Y-14524841D01*
X13512420Y-14524841D02*
X13512420Y-14486746D01*
X13512420Y-14486746D02*
X13521944Y-14439127D01*
X13521944Y-14439127D02*
X13531468Y-14410555D01*
X13531468Y-14410555D02*
X13540991Y-14391508D01*
X13540991Y-14391508D02*
X13560039Y-14362936D01*
X13560039Y-14362936D02*
X13569563Y-14353412D01*
X13750515Y-14581984D02*
X13636229Y-14581984D01*
X13693372Y-14581984D02*
X13693372Y-14381984D01*
X13693372Y-14381984D02*
X13674325Y-14410555D01*
X13674325Y-14410555D02*
X13655277Y-14429603D01*
X13655277Y-14429603D02*
X13636229Y-14439127D01*
X13826706Y-14401031D02*
X13836229Y-14391508D01*
X13836229Y-14391508D02*
X13855277Y-14381984D01*
X13855277Y-14381984D02*
X13902896Y-14381984D01*
X13902896Y-14381984D02*
X13921944Y-14391508D01*
X13921944Y-14391508D02*
X13931468Y-14401031D01*
X13931468Y-14401031D02*
X13940991Y-14420079D01*
X13940991Y-14420079D02*
X13940991Y-14439127D01*
X13940991Y-14439127D02*
X13931468Y-14467698D01*
X13931468Y-14467698D02*
X13817182Y-14581984D01*
X13817182Y-14581984D02*
X13940991Y-14581984D01*
X14179087Y-14581984D02*
X14179087Y-14381984D01*
X14264801Y-14581984D02*
X14264801Y-14477222D01*
X14264801Y-14477222D02*
X14255277Y-14458174D01*
X14255277Y-14458174D02*
X14236230Y-14448650D01*
X14236230Y-14448650D02*
X14207658Y-14448650D01*
X14207658Y-14448650D02*
X14188610Y-14458174D01*
X14188610Y-14458174D02*
X14179087Y-14467698D01*
X14388610Y-14581984D02*
X14369563Y-14572460D01*
X14369563Y-14572460D02*
X14360039Y-14562936D01*
X14360039Y-14562936D02*
X14350515Y-14543888D01*
X14350515Y-14543888D02*
X14350515Y-14486746D01*
X14350515Y-14486746D02*
X14360039Y-14467698D01*
X14360039Y-14467698D02*
X14369563Y-14458174D01*
X14369563Y-14458174D02*
X14388610Y-14448650D01*
X14388610Y-14448650D02*
X14417182Y-14448650D01*
X14417182Y-14448650D02*
X14436230Y-14458174D01*
X14436230Y-14458174D02*
X14445753Y-14467698D01*
X14445753Y-14467698D02*
X14455277Y-14486746D01*
X14455277Y-14486746D02*
X14455277Y-14543888D01*
X14455277Y-14543888D02*
X14445753Y-14562936D01*
X14445753Y-14562936D02*
X14436230Y-14572460D01*
X14436230Y-14572460D02*
X14417182Y-14581984D01*
X14417182Y-14581984D02*
X14388610Y-14581984D01*
X14569563Y-14581984D02*
X14550515Y-14572460D01*
X14550515Y-14572460D02*
X14540991Y-14553412D01*
X14540991Y-14553412D02*
X14540991Y-14381984D01*
X14721944Y-14572460D02*
X14702896Y-14581984D01*
X14702896Y-14581984D02*
X14664801Y-14581984D01*
X14664801Y-14581984D02*
X14645753Y-14572460D01*
X14645753Y-14572460D02*
X14636230Y-14553412D01*
X14636230Y-14553412D02*
X14636230Y-14477222D01*
X14636230Y-14477222D02*
X14645753Y-14458174D01*
X14645753Y-14458174D02*
X14664801Y-14448650D01*
X14664801Y-14448650D02*
X14702896Y-14448650D01*
X14702896Y-14448650D02*
X14721944Y-14458174D01*
X14721944Y-14458174D02*
X14731468Y-14477222D01*
X14731468Y-14477222D02*
X14731468Y-14496269D01*
X14731468Y-14496269D02*
X14636230Y-14515317D01*
X14807658Y-14572460D02*
X14826706Y-14581984D01*
X14826706Y-14581984D02*
X14864801Y-14581984D01*
X14864801Y-14581984D02*
X14883849Y-14572460D01*
X14883849Y-14572460D02*
X14893372Y-14553412D01*
X14893372Y-14553412D02*
X14893372Y-14543888D01*
X14893372Y-14543888D02*
X14883849Y-14524841D01*
X14883849Y-14524841D02*
X14864801Y-14515317D01*
X14864801Y-14515317D02*
X14836230Y-14515317D01*
X14836230Y-14515317D02*
X14817182Y-14505793D01*
X14817182Y-14505793D02*
X14807658Y-14486746D01*
X14807658Y-14486746D02*
X14807658Y-14477222D01*
X14807658Y-14477222D02*
X14817182Y-14458174D01*
X14817182Y-14458174D02*
X14836230Y-14448650D01*
X14836230Y-14448650D02*
X14864801Y-14448650D01*
X14864801Y-14448650D02*
X14883849Y-14458174D01*
X14960039Y-14658174D02*
X14969563Y-14648650D01*
X14969563Y-14648650D02*
X14988611Y-14620079D01*
X14988611Y-14620079D02*
X14998134Y-14601031D01*
X14998134Y-14601031D02*
X15007658Y-14572460D01*
X15007658Y-14572460D02*
X15017182Y-14524841D01*
X15017182Y-14524841D02*
X15017182Y-14486746D01*
X15017182Y-14486746D02*
X15007658Y-14439127D01*
X15007658Y-14439127D02*
X14998134Y-14410555D01*
X14998134Y-14410555D02*
X14988611Y-14391508D01*
X14988611Y-14391508D02*
X14969563Y-14362936D01*
X14969563Y-14362936D02*
X14960039Y-14353412D01*
D12*
X9954500Y-14714500D02*
X9954500Y-14794500D01*
X9914500Y-14754500D02*
X9994500Y-14754500D01*
D11*
X10293372Y-14645984D02*
X10312420Y-14645984D01*
X10312420Y-14645984D02*
X10331467Y-14655508D01*
X10331467Y-14655508D02*
X10340991Y-14665031D01*
X10340991Y-14665031D02*
X10350515Y-14684079D01*
X10350515Y-14684079D02*
X10360039Y-14722174D01*
X10360039Y-14722174D02*
X10360039Y-14769793D01*
X10360039Y-14769793D02*
X10350515Y-14807888D01*
X10350515Y-14807888D02*
X10340991Y-14826936D01*
X10340991Y-14826936D02*
X10331467Y-14836460D01*
X10331467Y-14836460D02*
X10312420Y-14845984D01*
X10312420Y-14845984D02*
X10293372Y-14845984D01*
X10293372Y-14845984D02*
X10274324Y-14836460D01*
X10274324Y-14836460D02*
X10264801Y-14826936D01*
X10264801Y-14826936D02*
X10255277Y-14807888D01*
X10255277Y-14807888D02*
X10245753Y-14769793D01*
X10245753Y-14769793D02*
X10245753Y-14722174D01*
X10245753Y-14722174D02*
X10255277Y-14684079D01*
X10255277Y-14684079D02*
X10264801Y-14665031D01*
X10264801Y-14665031D02*
X10274324Y-14655508D01*
X10274324Y-14655508D02*
X10293372Y-14645984D01*
X10445753Y-14826936D02*
X10455277Y-14836460D01*
X10455277Y-14836460D02*
X10445753Y-14845984D01*
X10445753Y-14845984D02*
X10436229Y-14836460D01*
X10436229Y-14836460D02*
X10445753Y-14826936D01*
X10445753Y-14826936D02*
X10445753Y-14845984D01*
X10569563Y-14731698D02*
X10550515Y-14722174D01*
X10550515Y-14722174D02*
X10540991Y-14712650D01*
X10540991Y-14712650D02*
X10531467Y-14693603D01*
X10531467Y-14693603D02*
X10531467Y-14684079D01*
X10531467Y-14684079D02*
X10540991Y-14665031D01*
X10540991Y-14665031D02*
X10550515Y-14655508D01*
X10550515Y-14655508D02*
X10569563Y-14645984D01*
X10569563Y-14645984D02*
X10607658Y-14645984D01*
X10607658Y-14645984D02*
X10626705Y-14655508D01*
X10626705Y-14655508D02*
X10636229Y-14665031D01*
X10636229Y-14665031D02*
X10645753Y-14684079D01*
X10645753Y-14684079D02*
X10645753Y-14693603D01*
X10645753Y-14693603D02*
X10636229Y-14712650D01*
X10636229Y-14712650D02*
X10626705Y-14722174D01*
X10626705Y-14722174D02*
X10607658Y-14731698D01*
X10607658Y-14731698D02*
X10569563Y-14731698D01*
X10569563Y-14731698D02*
X10550515Y-14741222D01*
X10550515Y-14741222D02*
X10540991Y-14750746D01*
X10540991Y-14750746D02*
X10531467Y-14769793D01*
X10531467Y-14769793D02*
X10531467Y-14807888D01*
X10531467Y-14807888D02*
X10540991Y-14826936D01*
X10540991Y-14826936D02*
X10550515Y-14836460D01*
X10550515Y-14836460D02*
X10569563Y-14845984D01*
X10569563Y-14845984D02*
X10607658Y-14845984D01*
X10607658Y-14845984D02*
X10626705Y-14836460D01*
X10626705Y-14836460D02*
X10636229Y-14826936D01*
X10636229Y-14826936D02*
X10645753Y-14807888D01*
X10645753Y-14807888D02*
X10645753Y-14769793D01*
X10645753Y-14769793D02*
X10636229Y-14750746D01*
X10636229Y-14750746D02*
X10626705Y-14741222D01*
X10626705Y-14741222D02*
X10607658Y-14731698D01*
X10769563Y-14645984D02*
X10788610Y-14645984D01*
X10788610Y-14645984D02*
X10807658Y-14655508D01*
X10807658Y-14655508D02*
X10817182Y-14665031D01*
X10817182Y-14665031D02*
X10826705Y-14684079D01*
X10826705Y-14684079D02*
X10836229Y-14722174D01*
X10836229Y-14722174D02*
X10836229Y-14769793D01*
X10836229Y-14769793D02*
X10826705Y-14807888D01*
X10826705Y-14807888D02*
X10817182Y-14826936D01*
X10817182Y-14826936D02*
X10807658Y-14836460D01*
X10807658Y-14836460D02*
X10788610Y-14845984D01*
X10788610Y-14845984D02*
X10769563Y-14845984D01*
X10769563Y-14845984D02*
X10750515Y-14836460D01*
X10750515Y-14836460D02*
X10740991Y-14826936D01*
X10740991Y-14826936D02*
X10731467Y-14807888D01*
X10731467Y-14807888D02*
X10721944Y-14769793D01*
X10721944Y-14769793D02*
X10721944Y-14722174D01*
X10721944Y-14722174D02*
X10731467Y-14684079D01*
X10731467Y-14684079D02*
X10740991Y-14665031D01*
X10740991Y-14665031D02*
X10750515Y-14655508D01*
X10750515Y-14655508D02*
X10769563Y-14645984D01*
X10960039Y-14645984D02*
X10979086Y-14645984D01*
X10979086Y-14645984D02*
X10998134Y-14655508D01*
X10998134Y-14655508D02*
X11007658Y-14665031D01*
X11007658Y-14665031D02*
X11017182Y-14684079D01*
X11017182Y-14684079D02*
X11026705Y-14722174D01*
X11026705Y-14722174D02*
X11026705Y-14769793D01*
X11026705Y-14769793D02*
X11017182Y-14807888D01*
X11017182Y-14807888D02*
X11007658Y-14826936D01*
X11007658Y-14826936D02*
X10998134Y-14836460D01*
X10998134Y-14836460D02*
X10979086Y-14845984D01*
X10979086Y-14845984D02*
X10960039Y-14845984D01*
X10960039Y-14845984D02*
X10940991Y-14836460D01*
X10940991Y-14836460D02*
X10931467Y-14826936D01*
X10931467Y-14826936D02*
X10921944Y-14807888D01*
X10921944Y-14807888D02*
X10912420Y-14769793D01*
X10912420Y-14769793D02*
X10912420Y-14722174D01*
X10912420Y-14722174D02*
X10921944Y-14684079D01*
X10921944Y-14684079D02*
X10931467Y-14665031D01*
X10931467Y-14665031D02*
X10940991Y-14655508D01*
X10940991Y-14655508D02*
X10960039Y-14645984D01*
X11112420Y-14845984D02*
X11112420Y-14712650D01*
X11112420Y-14731698D02*
X11121944Y-14722174D01*
X11121944Y-14722174D02*
X11140991Y-14712650D01*
X11140991Y-14712650D02*
X11169563Y-14712650D01*
X11169563Y-14712650D02*
X11188610Y-14722174D01*
X11188610Y-14722174D02*
X11198134Y-14741222D01*
X11198134Y-14741222D02*
X11198134Y-14845984D01*
X11198134Y-14741222D02*
X11207658Y-14722174D01*
X11207658Y-14722174D02*
X11226705Y-14712650D01*
X11226705Y-14712650D02*
X11255277Y-14712650D01*
X11255277Y-14712650D02*
X11274324Y-14722174D01*
X11274324Y-14722174D02*
X11283848Y-14741222D01*
X11283848Y-14741222D02*
X11283848Y-14845984D01*
X11379086Y-14845984D02*
X11379086Y-14712650D01*
X11379086Y-14731698D02*
X11388610Y-14722174D01*
X11388610Y-14722174D02*
X11407658Y-14712650D01*
X11407658Y-14712650D02*
X11436229Y-14712650D01*
X11436229Y-14712650D02*
X11455277Y-14722174D01*
X11455277Y-14722174D02*
X11464801Y-14741222D01*
X11464801Y-14741222D02*
X11464801Y-14845984D01*
X11464801Y-14741222D02*
X11474324Y-14722174D01*
X11474324Y-14722174D02*
X11493372Y-14712650D01*
X11493372Y-14712650D02*
X11521943Y-14712650D01*
X11521943Y-14712650D02*
X11540991Y-14722174D01*
X11540991Y-14722174D02*
X11550515Y-14741222D01*
X11550515Y-14741222D02*
X11550515Y-14845984D01*
X11940991Y-14636460D02*
X11769563Y-14893603D01*
X12198134Y-14645984D02*
X12217182Y-14645984D01*
X12217182Y-14645984D02*
X12236229Y-14655508D01*
X12236229Y-14655508D02*
X12245753Y-14665031D01*
X12245753Y-14665031D02*
X12255277Y-14684079D01*
X12255277Y-14684079D02*
X12264801Y-14722174D01*
X12264801Y-14722174D02*
X12264801Y-14769793D01*
X12264801Y-14769793D02*
X12255277Y-14807888D01*
X12255277Y-14807888D02*
X12245753Y-14826936D01*
X12245753Y-14826936D02*
X12236229Y-14836460D01*
X12236229Y-14836460D02*
X12217182Y-14845984D01*
X12217182Y-14845984D02*
X12198134Y-14845984D01*
X12198134Y-14845984D02*
X12179086Y-14836460D01*
X12179086Y-14836460D02*
X12169563Y-14826936D01*
X12169563Y-14826936D02*
X12160039Y-14807888D01*
X12160039Y-14807888D02*
X12150515Y-14769793D01*
X12150515Y-14769793D02*
X12150515Y-14722174D01*
X12150515Y-14722174D02*
X12160039Y-14684079D01*
X12160039Y-14684079D02*
X12169563Y-14665031D01*
X12169563Y-14665031D02*
X12179086Y-14655508D01*
X12179086Y-14655508D02*
X12198134Y-14645984D01*
X12350515Y-14826936D02*
X12360039Y-14836460D01*
X12360039Y-14836460D02*
X12350515Y-14845984D01*
X12350515Y-14845984D02*
X12340991Y-14836460D01*
X12340991Y-14836460D02*
X12350515Y-14826936D01*
X12350515Y-14826936D02*
X12350515Y-14845984D01*
X12483848Y-14645984D02*
X12502896Y-14645984D01*
X12502896Y-14645984D02*
X12521944Y-14655508D01*
X12521944Y-14655508D02*
X12531467Y-14665031D01*
X12531467Y-14665031D02*
X12540991Y-14684079D01*
X12540991Y-14684079D02*
X12550515Y-14722174D01*
X12550515Y-14722174D02*
X12550515Y-14769793D01*
X12550515Y-14769793D02*
X12540991Y-14807888D01*
X12540991Y-14807888D02*
X12531467Y-14826936D01*
X12531467Y-14826936D02*
X12521944Y-14836460D01*
X12521944Y-14836460D02*
X12502896Y-14845984D01*
X12502896Y-14845984D02*
X12483848Y-14845984D01*
X12483848Y-14845984D02*
X12464801Y-14836460D01*
X12464801Y-14836460D02*
X12455277Y-14826936D01*
X12455277Y-14826936D02*
X12445753Y-14807888D01*
X12445753Y-14807888D02*
X12436229Y-14769793D01*
X12436229Y-14769793D02*
X12436229Y-14722174D01*
X12436229Y-14722174D02*
X12445753Y-14684079D01*
X12445753Y-14684079D02*
X12455277Y-14665031D01*
X12455277Y-14665031D02*
X12464801Y-14655508D01*
X12464801Y-14655508D02*
X12483848Y-14645984D01*
X12617182Y-14645984D02*
X12740991Y-14645984D01*
X12740991Y-14645984D02*
X12674325Y-14722174D01*
X12674325Y-14722174D02*
X12702896Y-14722174D01*
X12702896Y-14722174D02*
X12721944Y-14731698D01*
X12721944Y-14731698D02*
X12731467Y-14741222D01*
X12731467Y-14741222D02*
X12740991Y-14760269D01*
X12740991Y-14760269D02*
X12740991Y-14807888D01*
X12740991Y-14807888D02*
X12731467Y-14826936D01*
X12731467Y-14826936D02*
X12721944Y-14836460D01*
X12721944Y-14836460D02*
X12702896Y-14845984D01*
X12702896Y-14845984D02*
X12645753Y-14845984D01*
X12645753Y-14845984D02*
X12626706Y-14836460D01*
X12626706Y-14836460D02*
X12617182Y-14826936D01*
X12931467Y-14845984D02*
X12817182Y-14845984D01*
X12874325Y-14845984D02*
X12874325Y-14645984D01*
X12874325Y-14645984D02*
X12855277Y-14674555D01*
X12855277Y-14674555D02*
X12836229Y-14693603D01*
X12836229Y-14693603D02*
X12817182Y-14703127D01*
X13112420Y-14645984D02*
X13017182Y-14645984D01*
X13017182Y-14645984D02*
X13007658Y-14741222D01*
X13007658Y-14741222D02*
X13017182Y-14731698D01*
X13017182Y-14731698D02*
X13036229Y-14722174D01*
X13036229Y-14722174D02*
X13083848Y-14722174D01*
X13083848Y-14722174D02*
X13102896Y-14731698D01*
X13102896Y-14731698D02*
X13112420Y-14741222D01*
X13112420Y-14741222D02*
X13121944Y-14760269D01*
X13121944Y-14760269D02*
X13121944Y-14807888D01*
X13121944Y-14807888D02*
X13112420Y-14826936D01*
X13112420Y-14826936D02*
X13102896Y-14836460D01*
X13102896Y-14836460D02*
X13083848Y-14845984D01*
X13083848Y-14845984D02*
X13036229Y-14845984D01*
X13036229Y-14845984D02*
X13017182Y-14836460D01*
X13017182Y-14836460D02*
X13007658Y-14826936D01*
X13198134Y-14645984D02*
X13198134Y-14684079D01*
X13274325Y-14645984D02*
X13274325Y-14684079D01*
X13569563Y-14922174D02*
X13560039Y-14912650D01*
X13560039Y-14912650D02*
X13540991Y-14884079D01*
X13540991Y-14884079D02*
X13531468Y-14865031D01*
X13531468Y-14865031D02*
X13521944Y-14836460D01*
X13521944Y-14836460D02*
X13512420Y-14788841D01*
X13512420Y-14788841D02*
X13512420Y-14750746D01*
X13512420Y-14750746D02*
X13521944Y-14703127D01*
X13521944Y-14703127D02*
X13531468Y-14674555D01*
X13531468Y-14674555D02*
X13540991Y-14655508D01*
X13540991Y-14655508D02*
X13560039Y-14626936D01*
X13560039Y-14626936D02*
X13569563Y-14617412D01*
X13750515Y-14845984D02*
X13636229Y-14845984D01*
X13693372Y-14845984D02*
X13693372Y-14645984D01*
X13693372Y-14645984D02*
X13674325Y-14674555D01*
X13674325Y-14674555D02*
X13655277Y-14693603D01*
X13655277Y-14693603D02*
X13636229Y-14703127D01*
X13921944Y-14645984D02*
X13883848Y-14645984D01*
X13883848Y-14645984D02*
X13864801Y-14655508D01*
X13864801Y-14655508D02*
X13855277Y-14665031D01*
X13855277Y-14665031D02*
X13836229Y-14693603D01*
X13836229Y-14693603D02*
X13826706Y-14731698D01*
X13826706Y-14731698D02*
X13826706Y-14807888D01*
X13826706Y-14807888D02*
X13836229Y-14826936D01*
X13836229Y-14826936D02*
X13845753Y-14836460D01*
X13845753Y-14836460D02*
X13864801Y-14845984D01*
X13864801Y-14845984D02*
X13902896Y-14845984D01*
X13902896Y-14845984D02*
X13921944Y-14836460D01*
X13921944Y-14836460D02*
X13931468Y-14826936D01*
X13931468Y-14826936D02*
X13940991Y-14807888D01*
X13940991Y-14807888D02*
X13940991Y-14760269D01*
X13940991Y-14760269D02*
X13931468Y-14741222D01*
X13931468Y-14741222D02*
X13921944Y-14731698D01*
X13921944Y-14731698D02*
X13902896Y-14722174D01*
X13902896Y-14722174D02*
X13864801Y-14722174D01*
X13864801Y-14722174D02*
X13845753Y-14731698D01*
X13845753Y-14731698D02*
X13836229Y-14741222D01*
X13836229Y-14741222D02*
X13826706Y-14760269D01*
X14179087Y-14845984D02*
X14179087Y-14645984D01*
X14264801Y-14845984D02*
X14264801Y-14741222D01*
X14264801Y-14741222D02*
X14255277Y-14722174D01*
X14255277Y-14722174D02*
X14236230Y-14712650D01*
X14236230Y-14712650D02*
X14207658Y-14712650D01*
X14207658Y-14712650D02*
X14188610Y-14722174D01*
X14188610Y-14722174D02*
X14179087Y-14731698D01*
X14388610Y-14845984D02*
X14369563Y-14836460D01*
X14369563Y-14836460D02*
X14360039Y-14826936D01*
X14360039Y-14826936D02*
X14350515Y-14807888D01*
X14350515Y-14807888D02*
X14350515Y-14750746D01*
X14350515Y-14750746D02*
X14360039Y-14731698D01*
X14360039Y-14731698D02*
X14369563Y-14722174D01*
X14369563Y-14722174D02*
X14388610Y-14712650D01*
X14388610Y-14712650D02*
X14417182Y-14712650D01*
X14417182Y-14712650D02*
X14436230Y-14722174D01*
X14436230Y-14722174D02*
X14445753Y-14731698D01*
X14445753Y-14731698D02*
X14455277Y-14750746D01*
X14455277Y-14750746D02*
X14455277Y-14807888D01*
X14455277Y-14807888D02*
X14445753Y-14826936D01*
X14445753Y-14826936D02*
X14436230Y-14836460D01*
X14436230Y-14836460D02*
X14417182Y-14845984D01*
X14417182Y-14845984D02*
X14388610Y-14845984D01*
X14569563Y-14845984D02*
X14550515Y-14836460D01*
X14550515Y-14836460D02*
X14540991Y-14817412D01*
X14540991Y-14817412D02*
X14540991Y-14645984D01*
X14721944Y-14836460D02*
X14702896Y-14845984D01*
X14702896Y-14845984D02*
X14664801Y-14845984D01*
X14664801Y-14845984D02*
X14645753Y-14836460D01*
X14645753Y-14836460D02*
X14636230Y-14817412D01*
X14636230Y-14817412D02*
X14636230Y-14741222D01*
X14636230Y-14741222D02*
X14645753Y-14722174D01*
X14645753Y-14722174D02*
X14664801Y-14712650D01*
X14664801Y-14712650D02*
X14702896Y-14712650D01*
X14702896Y-14712650D02*
X14721944Y-14722174D01*
X14721944Y-14722174D02*
X14731468Y-14741222D01*
X14731468Y-14741222D02*
X14731468Y-14760269D01*
X14731468Y-14760269D02*
X14636230Y-14779317D01*
X14807658Y-14836460D02*
X14826706Y-14845984D01*
X14826706Y-14845984D02*
X14864801Y-14845984D01*
X14864801Y-14845984D02*
X14883849Y-14836460D01*
X14883849Y-14836460D02*
X14893372Y-14817412D01*
X14893372Y-14817412D02*
X14893372Y-14807888D01*
X14893372Y-14807888D02*
X14883849Y-14788841D01*
X14883849Y-14788841D02*
X14864801Y-14779317D01*
X14864801Y-14779317D02*
X14836230Y-14779317D01*
X14836230Y-14779317D02*
X14817182Y-14769793D01*
X14817182Y-14769793D02*
X14807658Y-14750746D01*
X14807658Y-14750746D02*
X14807658Y-14741222D01*
X14807658Y-14741222D02*
X14817182Y-14722174D01*
X14817182Y-14722174D02*
X14836230Y-14712650D01*
X14836230Y-14712650D02*
X14864801Y-14712650D01*
X14864801Y-14712650D02*
X14883849Y-14722174D01*
X14960039Y-14922174D02*
X14969563Y-14912650D01*
X14969563Y-14912650D02*
X14988611Y-14884079D01*
X14988611Y-14884079D02*
X14998134Y-14865031D01*
X14998134Y-14865031D02*
X15007658Y-14836460D01*
X15007658Y-14836460D02*
X15017182Y-14788841D01*
X15017182Y-14788841D02*
X15017182Y-14750746D01*
X15017182Y-14750746D02*
X15007658Y-14703127D01*
X15007658Y-14703127D02*
X14998134Y-14674555D01*
X14998134Y-14674555D02*
X14988611Y-14655508D01*
X14988611Y-14655508D02*
X14969563Y-14626936D01*
X14969563Y-14626936D02*
X14960039Y-14617412D01*
D12*
X9979856Y-15053856D02*
X9979856Y-14983144D01*
X9909144Y-14983144D01*
X9909144Y-15053856D01*
X9979856Y-15053856D01*
D11*
X10360039Y-15109984D02*
X10245753Y-15109984D01*
X10302896Y-15109984D02*
X10302896Y-14909984D01*
X10302896Y-14909984D02*
X10283848Y-14938555D01*
X10283848Y-14938555D02*
X10264801Y-14957603D01*
X10264801Y-14957603D02*
X10245753Y-14967127D01*
X10445753Y-15090936D02*
X10455277Y-15100460D01*
X10455277Y-15100460D02*
X10445753Y-15109984D01*
X10445753Y-15109984D02*
X10436229Y-15100460D01*
X10436229Y-15100460D02*
X10445753Y-15090936D01*
X10445753Y-15090936D02*
X10445753Y-15109984D01*
X10579086Y-14909984D02*
X10598134Y-14909984D01*
X10598134Y-14909984D02*
X10617182Y-14919508D01*
X10617182Y-14919508D02*
X10626705Y-14929031D01*
X10626705Y-14929031D02*
X10636229Y-14948079D01*
X10636229Y-14948079D02*
X10645753Y-14986174D01*
X10645753Y-14986174D02*
X10645753Y-15033793D01*
X10645753Y-15033793D02*
X10636229Y-15071888D01*
X10636229Y-15071888D02*
X10626705Y-15090936D01*
X10626705Y-15090936D02*
X10617182Y-15100460D01*
X10617182Y-15100460D02*
X10598134Y-15109984D01*
X10598134Y-15109984D02*
X10579086Y-15109984D01*
X10579086Y-15109984D02*
X10560039Y-15100460D01*
X10560039Y-15100460D02*
X10550515Y-15090936D01*
X10550515Y-15090936D02*
X10540991Y-15071888D01*
X10540991Y-15071888D02*
X10531467Y-15033793D01*
X10531467Y-15033793D02*
X10531467Y-14986174D01*
X10531467Y-14986174D02*
X10540991Y-14948079D01*
X10540991Y-14948079D02*
X10550515Y-14929031D01*
X10550515Y-14929031D02*
X10560039Y-14919508D01*
X10560039Y-14919508D02*
X10579086Y-14909984D01*
X10769563Y-14909984D02*
X10788610Y-14909984D01*
X10788610Y-14909984D02*
X10807658Y-14919508D01*
X10807658Y-14919508D02*
X10817182Y-14929031D01*
X10817182Y-14929031D02*
X10826705Y-14948079D01*
X10826705Y-14948079D02*
X10836229Y-14986174D01*
X10836229Y-14986174D02*
X10836229Y-15033793D01*
X10836229Y-15033793D02*
X10826705Y-15071888D01*
X10826705Y-15071888D02*
X10817182Y-15090936D01*
X10817182Y-15090936D02*
X10807658Y-15100460D01*
X10807658Y-15100460D02*
X10788610Y-15109984D01*
X10788610Y-15109984D02*
X10769563Y-15109984D01*
X10769563Y-15109984D02*
X10750515Y-15100460D01*
X10750515Y-15100460D02*
X10740991Y-15090936D01*
X10740991Y-15090936D02*
X10731467Y-15071888D01*
X10731467Y-15071888D02*
X10721944Y-15033793D01*
X10721944Y-15033793D02*
X10721944Y-14986174D01*
X10721944Y-14986174D02*
X10731467Y-14948079D01*
X10731467Y-14948079D02*
X10740991Y-14929031D01*
X10740991Y-14929031D02*
X10750515Y-14919508D01*
X10750515Y-14919508D02*
X10769563Y-14909984D01*
X10960039Y-14909984D02*
X10979086Y-14909984D01*
X10979086Y-14909984D02*
X10998134Y-14919508D01*
X10998134Y-14919508D02*
X11007658Y-14929031D01*
X11007658Y-14929031D02*
X11017182Y-14948079D01*
X11017182Y-14948079D02*
X11026705Y-14986174D01*
X11026705Y-14986174D02*
X11026705Y-15033793D01*
X11026705Y-15033793D02*
X11017182Y-15071888D01*
X11017182Y-15071888D02*
X11007658Y-15090936D01*
X11007658Y-15090936D02*
X10998134Y-15100460D01*
X10998134Y-15100460D02*
X10979086Y-15109984D01*
X10979086Y-15109984D02*
X10960039Y-15109984D01*
X10960039Y-15109984D02*
X10940991Y-15100460D01*
X10940991Y-15100460D02*
X10931467Y-15090936D01*
X10931467Y-15090936D02*
X10921944Y-15071888D01*
X10921944Y-15071888D02*
X10912420Y-15033793D01*
X10912420Y-15033793D02*
X10912420Y-14986174D01*
X10912420Y-14986174D02*
X10921944Y-14948079D01*
X10921944Y-14948079D02*
X10931467Y-14929031D01*
X10931467Y-14929031D02*
X10940991Y-14919508D01*
X10940991Y-14919508D02*
X10960039Y-14909984D01*
X11112420Y-15109984D02*
X11112420Y-14976650D01*
X11112420Y-14995698D02*
X11121944Y-14986174D01*
X11121944Y-14986174D02*
X11140991Y-14976650D01*
X11140991Y-14976650D02*
X11169563Y-14976650D01*
X11169563Y-14976650D02*
X11188610Y-14986174D01*
X11188610Y-14986174D02*
X11198134Y-15005222D01*
X11198134Y-15005222D02*
X11198134Y-15109984D01*
X11198134Y-15005222D02*
X11207658Y-14986174D01*
X11207658Y-14986174D02*
X11226705Y-14976650D01*
X11226705Y-14976650D02*
X11255277Y-14976650D01*
X11255277Y-14976650D02*
X11274324Y-14986174D01*
X11274324Y-14986174D02*
X11283848Y-15005222D01*
X11283848Y-15005222D02*
X11283848Y-15109984D01*
X11379086Y-15109984D02*
X11379086Y-14976650D01*
X11379086Y-14995698D02*
X11388610Y-14986174D01*
X11388610Y-14986174D02*
X11407658Y-14976650D01*
X11407658Y-14976650D02*
X11436229Y-14976650D01*
X11436229Y-14976650D02*
X11455277Y-14986174D01*
X11455277Y-14986174D02*
X11464801Y-15005222D01*
X11464801Y-15005222D02*
X11464801Y-15109984D01*
X11464801Y-15005222D02*
X11474324Y-14986174D01*
X11474324Y-14986174D02*
X11493372Y-14976650D01*
X11493372Y-14976650D02*
X11521943Y-14976650D01*
X11521943Y-14976650D02*
X11540991Y-14986174D01*
X11540991Y-14986174D02*
X11550515Y-15005222D01*
X11550515Y-15005222D02*
X11550515Y-15109984D01*
X11940991Y-14900460D02*
X11769563Y-15157603D01*
X12198134Y-14909984D02*
X12217182Y-14909984D01*
X12217182Y-14909984D02*
X12236229Y-14919508D01*
X12236229Y-14919508D02*
X12245753Y-14929031D01*
X12245753Y-14929031D02*
X12255277Y-14948079D01*
X12255277Y-14948079D02*
X12264801Y-14986174D01*
X12264801Y-14986174D02*
X12264801Y-15033793D01*
X12264801Y-15033793D02*
X12255277Y-15071888D01*
X12255277Y-15071888D02*
X12245753Y-15090936D01*
X12245753Y-15090936D02*
X12236229Y-15100460D01*
X12236229Y-15100460D02*
X12217182Y-15109984D01*
X12217182Y-15109984D02*
X12198134Y-15109984D01*
X12198134Y-15109984D02*
X12179086Y-15100460D01*
X12179086Y-15100460D02*
X12169563Y-15090936D01*
X12169563Y-15090936D02*
X12160039Y-15071888D01*
X12160039Y-15071888D02*
X12150515Y-15033793D01*
X12150515Y-15033793D02*
X12150515Y-14986174D01*
X12150515Y-14986174D02*
X12160039Y-14948079D01*
X12160039Y-14948079D02*
X12169563Y-14929031D01*
X12169563Y-14929031D02*
X12179086Y-14919508D01*
X12179086Y-14919508D02*
X12198134Y-14909984D01*
X12350515Y-15090936D02*
X12360039Y-15100460D01*
X12360039Y-15100460D02*
X12350515Y-15109984D01*
X12350515Y-15109984D02*
X12340991Y-15100460D01*
X12340991Y-15100460D02*
X12350515Y-15090936D01*
X12350515Y-15090936D02*
X12350515Y-15109984D01*
X12483848Y-14909984D02*
X12502896Y-14909984D01*
X12502896Y-14909984D02*
X12521944Y-14919508D01*
X12521944Y-14919508D02*
X12531467Y-14929031D01*
X12531467Y-14929031D02*
X12540991Y-14948079D01*
X12540991Y-14948079D02*
X12550515Y-14986174D01*
X12550515Y-14986174D02*
X12550515Y-15033793D01*
X12550515Y-15033793D02*
X12540991Y-15071888D01*
X12540991Y-15071888D02*
X12531467Y-15090936D01*
X12531467Y-15090936D02*
X12521944Y-15100460D01*
X12521944Y-15100460D02*
X12502896Y-15109984D01*
X12502896Y-15109984D02*
X12483848Y-15109984D01*
X12483848Y-15109984D02*
X12464801Y-15100460D01*
X12464801Y-15100460D02*
X12455277Y-15090936D01*
X12455277Y-15090936D02*
X12445753Y-15071888D01*
X12445753Y-15071888D02*
X12436229Y-15033793D01*
X12436229Y-15033793D02*
X12436229Y-14986174D01*
X12436229Y-14986174D02*
X12445753Y-14948079D01*
X12445753Y-14948079D02*
X12455277Y-14929031D01*
X12455277Y-14929031D02*
X12464801Y-14919508D01*
X12464801Y-14919508D02*
X12483848Y-14909984D01*
X12617182Y-14909984D02*
X12740991Y-14909984D01*
X12740991Y-14909984D02*
X12674325Y-14986174D01*
X12674325Y-14986174D02*
X12702896Y-14986174D01*
X12702896Y-14986174D02*
X12721944Y-14995698D01*
X12721944Y-14995698D02*
X12731467Y-15005222D01*
X12731467Y-15005222D02*
X12740991Y-15024269D01*
X12740991Y-15024269D02*
X12740991Y-15071888D01*
X12740991Y-15071888D02*
X12731467Y-15090936D01*
X12731467Y-15090936D02*
X12721944Y-15100460D01*
X12721944Y-15100460D02*
X12702896Y-15109984D01*
X12702896Y-15109984D02*
X12645753Y-15109984D01*
X12645753Y-15109984D02*
X12626706Y-15100460D01*
X12626706Y-15100460D02*
X12617182Y-15090936D01*
X12836229Y-15109984D02*
X12874325Y-15109984D01*
X12874325Y-15109984D02*
X12893372Y-15100460D01*
X12893372Y-15100460D02*
X12902896Y-15090936D01*
X12902896Y-15090936D02*
X12921944Y-15062365D01*
X12921944Y-15062365D02*
X12931467Y-15024269D01*
X12931467Y-15024269D02*
X12931467Y-14948079D01*
X12931467Y-14948079D02*
X12921944Y-14929031D01*
X12921944Y-14929031D02*
X12912420Y-14919508D01*
X12912420Y-14919508D02*
X12893372Y-14909984D01*
X12893372Y-14909984D02*
X12855277Y-14909984D01*
X12855277Y-14909984D02*
X12836229Y-14919508D01*
X12836229Y-14919508D02*
X12826706Y-14929031D01*
X12826706Y-14929031D02*
X12817182Y-14948079D01*
X12817182Y-14948079D02*
X12817182Y-14995698D01*
X12817182Y-14995698D02*
X12826706Y-15014746D01*
X12826706Y-15014746D02*
X12836229Y-15024269D01*
X12836229Y-15024269D02*
X12855277Y-15033793D01*
X12855277Y-15033793D02*
X12893372Y-15033793D01*
X12893372Y-15033793D02*
X12912420Y-15024269D01*
X12912420Y-15024269D02*
X12921944Y-15014746D01*
X12921944Y-15014746D02*
X12931467Y-14995698D01*
X13102896Y-14976650D02*
X13102896Y-15109984D01*
X13055277Y-14900460D02*
X13007658Y-15043317D01*
X13007658Y-15043317D02*
X13131467Y-15043317D01*
X13198134Y-14909984D02*
X13198134Y-14948079D01*
X13274325Y-14909984D02*
X13274325Y-14948079D01*
X13569563Y-15186174D02*
X13560039Y-15176650D01*
X13560039Y-15176650D02*
X13540991Y-15148079D01*
X13540991Y-15148079D02*
X13531468Y-15129031D01*
X13531468Y-15129031D02*
X13521944Y-15100460D01*
X13521944Y-15100460D02*
X13512420Y-15052841D01*
X13512420Y-15052841D02*
X13512420Y-15014746D01*
X13512420Y-15014746D02*
X13521944Y-14967127D01*
X13521944Y-14967127D02*
X13531468Y-14938555D01*
X13531468Y-14938555D02*
X13540991Y-14919508D01*
X13540991Y-14919508D02*
X13560039Y-14890936D01*
X13560039Y-14890936D02*
X13569563Y-14881412D01*
X13740991Y-14909984D02*
X13645753Y-14909984D01*
X13645753Y-14909984D02*
X13636229Y-15005222D01*
X13636229Y-15005222D02*
X13645753Y-14995698D01*
X13645753Y-14995698D02*
X13664801Y-14986174D01*
X13664801Y-14986174D02*
X13712420Y-14986174D01*
X13712420Y-14986174D02*
X13731468Y-14995698D01*
X13731468Y-14995698D02*
X13740991Y-15005222D01*
X13740991Y-15005222D02*
X13750515Y-15024269D01*
X13750515Y-15024269D02*
X13750515Y-15071888D01*
X13750515Y-15071888D02*
X13740991Y-15090936D01*
X13740991Y-15090936D02*
X13731468Y-15100460D01*
X13731468Y-15100460D02*
X13712420Y-15109984D01*
X13712420Y-15109984D02*
X13664801Y-15109984D01*
X13664801Y-15109984D02*
X13645753Y-15100460D01*
X13645753Y-15100460D02*
X13636229Y-15090936D01*
X13864801Y-14995698D02*
X13845753Y-14986174D01*
X13845753Y-14986174D02*
X13836229Y-14976650D01*
X13836229Y-14976650D02*
X13826706Y-14957603D01*
X13826706Y-14957603D02*
X13826706Y-14948079D01*
X13826706Y-14948079D02*
X13836229Y-14929031D01*
X13836229Y-14929031D02*
X13845753Y-14919508D01*
X13845753Y-14919508D02*
X13864801Y-14909984D01*
X13864801Y-14909984D02*
X13902896Y-14909984D01*
X13902896Y-14909984D02*
X13921944Y-14919508D01*
X13921944Y-14919508D02*
X13931468Y-14929031D01*
X13931468Y-14929031D02*
X13940991Y-14948079D01*
X13940991Y-14948079D02*
X13940991Y-14957603D01*
X13940991Y-14957603D02*
X13931468Y-14976650D01*
X13931468Y-14976650D02*
X13921944Y-14986174D01*
X13921944Y-14986174D02*
X13902896Y-14995698D01*
X13902896Y-14995698D02*
X13864801Y-14995698D01*
X13864801Y-14995698D02*
X13845753Y-15005222D01*
X13845753Y-15005222D02*
X13836229Y-15014746D01*
X13836229Y-15014746D02*
X13826706Y-15033793D01*
X13826706Y-15033793D02*
X13826706Y-15071888D01*
X13826706Y-15071888D02*
X13836229Y-15090936D01*
X13836229Y-15090936D02*
X13845753Y-15100460D01*
X13845753Y-15100460D02*
X13864801Y-15109984D01*
X13864801Y-15109984D02*
X13902896Y-15109984D01*
X13902896Y-15109984D02*
X13921944Y-15100460D01*
X13921944Y-15100460D02*
X13931468Y-15090936D01*
X13931468Y-15090936D02*
X13940991Y-15071888D01*
X13940991Y-15071888D02*
X13940991Y-15033793D01*
X13940991Y-15033793D02*
X13931468Y-15014746D01*
X13931468Y-15014746D02*
X13921944Y-15005222D01*
X13921944Y-15005222D02*
X13902896Y-14995698D01*
X14179087Y-15109984D02*
X14179087Y-14909984D01*
X14264801Y-15109984D02*
X14264801Y-15005222D01*
X14264801Y-15005222D02*
X14255277Y-14986174D01*
X14255277Y-14986174D02*
X14236230Y-14976650D01*
X14236230Y-14976650D02*
X14207658Y-14976650D01*
X14207658Y-14976650D02*
X14188610Y-14986174D01*
X14188610Y-14986174D02*
X14179087Y-14995698D01*
X14388610Y-15109984D02*
X14369563Y-15100460D01*
X14369563Y-15100460D02*
X14360039Y-15090936D01*
X14360039Y-15090936D02*
X14350515Y-15071888D01*
X14350515Y-15071888D02*
X14350515Y-15014746D01*
X14350515Y-15014746D02*
X14360039Y-14995698D01*
X14360039Y-14995698D02*
X14369563Y-14986174D01*
X14369563Y-14986174D02*
X14388610Y-14976650D01*
X14388610Y-14976650D02*
X14417182Y-14976650D01*
X14417182Y-14976650D02*
X14436230Y-14986174D01*
X14436230Y-14986174D02*
X14445753Y-14995698D01*
X14445753Y-14995698D02*
X14455277Y-15014746D01*
X14455277Y-15014746D02*
X14455277Y-15071888D01*
X14455277Y-15071888D02*
X14445753Y-15090936D01*
X14445753Y-15090936D02*
X14436230Y-15100460D01*
X14436230Y-15100460D02*
X14417182Y-15109984D01*
X14417182Y-15109984D02*
X14388610Y-15109984D01*
X14569563Y-15109984D02*
X14550515Y-15100460D01*
X14550515Y-15100460D02*
X14540991Y-15081412D01*
X14540991Y-15081412D02*
X14540991Y-14909984D01*
X14721944Y-15100460D02*
X14702896Y-15109984D01*
X14702896Y-15109984D02*
X14664801Y-15109984D01*
X14664801Y-15109984D02*
X14645753Y-15100460D01*
X14645753Y-15100460D02*
X14636230Y-15081412D01*
X14636230Y-15081412D02*
X14636230Y-15005222D01*
X14636230Y-15005222D02*
X14645753Y-14986174D01*
X14645753Y-14986174D02*
X14664801Y-14976650D01*
X14664801Y-14976650D02*
X14702896Y-14976650D01*
X14702896Y-14976650D02*
X14721944Y-14986174D01*
X14721944Y-14986174D02*
X14731468Y-15005222D01*
X14731468Y-15005222D02*
X14731468Y-15024269D01*
X14731468Y-15024269D02*
X14636230Y-15043317D01*
X14807658Y-15100460D02*
X14826706Y-15109984D01*
X14826706Y-15109984D02*
X14864801Y-15109984D01*
X14864801Y-15109984D02*
X14883849Y-15100460D01*
X14883849Y-15100460D02*
X14893372Y-15081412D01*
X14893372Y-15081412D02*
X14893372Y-15071888D01*
X14893372Y-15071888D02*
X14883849Y-15052841D01*
X14883849Y-15052841D02*
X14864801Y-15043317D01*
X14864801Y-15043317D02*
X14836230Y-15043317D01*
X14836230Y-15043317D02*
X14817182Y-15033793D01*
X14817182Y-15033793D02*
X14807658Y-15014746D01*
X14807658Y-15014746D02*
X14807658Y-15005222D01*
X14807658Y-15005222D02*
X14817182Y-14986174D01*
X14817182Y-14986174D02*
X14836230Y-14976650D01*
X14836230Y-14976650D02*
X14864801Y-14976650D01*
X14864801Y-14976650D02*
X14883849Y-14986174D01*
X14960039Y-15186174D02*
X14969563Y-15176650D01*
X14969563Y-15176650D02*
X14988611Y-15148079D01*
X14988611Y-15148079D02*
X14998134Y-15129031D01*
X14998134Y-15129031D02*
X15007658Y-15100460D01*
X15007658Y-15100460D02*
X15017182Y-15052841D01*
X15017182Y-15052841D02*
X15017182Y-15014746D01*
X15017182Y-15014746D02*
X15007658Y-14967127D01*
X15007658Y-14967127D02*
X14998134Y-14938555D01*
X14998134Y-14938555D02*
X14988611Y-14919508D01*
X14988611Y-14919508D02*
X14969563Y-14890936D01*
X14969563Y-14890936D02*
X14960039Y-14881412D01*
D13*
X9939500Y-15337500D02*
X9994500Y-15282500D01*
X9939500Y-15227500D01*
X9884500Y-15282500D01*
X9939500Y-15337500D01*
D11*
X10360039Y-15373984D02*
X10245753Y-15373984D01*
X10302896Y-15373984D02*
X10302896Y-15173984D01*
X10302896Y-15173984D02*
X10283848Y-15202555D01*
X10283848Y-15202555D02*
X10264801Y-15221603D01*
X10264801Y-15221603D02*
X10245753Y-15231127D01*
X10445753Y-15354936D02*
X10455277Y-15364460D01*
X10455277Y-15364460D02*
X10445753Y-15373984D01*
X10445753Y-15373984D02*
X10436229Y-15364460D01*
X10436229Y-15364460D02*
X10445753Y-15354936D01*
X10445753Y-15354936D02*
X10445753Y-15373984D01*
X10645753Y-15373984D02*
X10531467Y-15373984D01*
X10588610Y-15373984D02*
X10588610Y-15173984D01*
X10588610Y-15173984D02*
X10569563Y-15202555D01*
X10569563Y-15202555D02*
X10550515Y-15221603D01*
X10550515Y-15221603D02*
X10531467Y-15231127D01*
X10769563Y-15173984D02*
X10788610Y-15173984D01*
X10788610Y-15173984D02*
X10807658Y-15183508D01*
X10807658Y-15183508D02*
X10817182Y-15193031D01*
X10817182Y-15193031D02*
X10826705Y-15212079D01*
X10826705Y-15212079D02*
X10836229Y-15250174D01*
X10836229Y-15250174D02*
X10836229Y-15297793D01*
X10836229Y-15297793D02*
X10826705Y-15335888D01*
X10826705Y-15335888D02*
X10817182Y-15354936D01*
X10817182Y-15354936D02*
X10807658Y-15364460D01*
X10807658Y-15364460D02*
X10788610Y-15373984D01*
X10788610Y-15373984D02*
X10769563Y-15373984D01*
X10769563Y-15373984D02*
X10750515Y-15364460D01*
X10750515Y-15364460D02*
X10740991Y-15354936D01*
X10740991Y-15354936D02*
X10731467Y-15335888D01*
X10731467Y-15335888D02*
X10721944Y-15297793D01*
X10721944Y-15297793D02*
X10721944Y-15250174D01*
X10721944Y-15250174D02*
X10731467Y-15212079D01*
X10731467Y-15212079D02*
X10740991Y-15193031D01*
X10740991Y-15193031D02*
X10750515Y-15183508D01*
X10750515Y-15183508D02*
X10769563Y-15173984D01*
X10960039Y-15173984D02*
X10979086Y-15173984D01*
X10979086Y-15173984D02*
X10998134Y-15183508D01*
X10998134Y-15183508D02*
X11007658Y-15193031D01*
X11007658Y-15193031D02*
X11017182Y-15212079D01*
X11017182Y-15212079D02*
X11026705Y-15250174D01*
X11026705Y-15250174D02*
X11026705Y-15297793D01*
X11026705Y-15297793D02*
X11017182Y-15335888D01*
X11017182Y-15335888D02*
X11007658Y-15354936D01*
X11007658Y-15354936D02*
X10998134Y-15364460D01*
X10998134Y-15364460D02*
X10979086Y-15373984D01*
X10979086Y-15373984D02*
X10960039Y-15373984D01*
X10960039Y-15373984D02*
X10940991Y-15364460D01*
X10940991Y-15364460D02*
X10931467Y-15354936D01*
X10931467Y-15354936D02*
X10921944Y-15335888D01*
X10921944Y-15335888D02*
X10912420Y-15297793D01*
X10912420Y-15297793D02*
X10912420Y-15250174D01*
X10912420Y-15250174D02*
X10921944Y-15212079D01*
X10921944Y-15212079D02*
X10931467Y-15193031D01*
X10931467Y-15193031D02*
X10940991Y-15183508D01*
X10940991Y-15183508D02*
X10960039Y-15173984D01*
X11112420Y-15373984D02*
X11112420Y-15240650D01*
X11112420Y-15259698D02*
X11121944Y-15250174D01*
X11121944Y-15250174D02*
X11140991Y-15240650D01*
X11140991Y-15240650D02*
X11169563Y-15240650D01*
X11169563Y-15240650D02*
X11188610Y-15250174D01*
X11188610Y-15250174D02*
X11198134Y-15269222D01*
X11198134Y-15269222D02*
X11198134Y-15373984D01*
X11198134Y-15269222D02*
X11207658Y-15250174D01*
X11207658Y-15250174D02*
X11226705Y-15240650D01*
X11226705Y-15240650D02*
X11255277Y-15240650D01*
X11255277Y-15240650D02*
X11274324Y-15250174D01*
X11274324Y-15250174D02*
X11283848Y-15269222D01*
X11283848Y-15269222D02*
X11283848Y-15373984D01*
X11379086Y-15373984D02*
X11379086Y-15240650D01*
X11379086Y-15259698D02*
X11388610Y-15250174D01*
X11388610Y-15250174D02*
X11407658Y-15240650D01*
X11407658Y-15240650D02*
X11436229Y-15240650D01*
X11436229Y-15240650D02*
X11455277Y-15250174D01*
X11455277Y-15250174D02*
X11464801Y-15269222D01*
X11464801Y-15269222D02*
X11464801Y-15373984D01*
X11464801Y-15269222D02*
X11474324Y-15250174D01*
X11474324Y-15250174D02*
X11493372Y-15240650D01*
X11493372Y-15240650D02*
X11521943Y-15240650D01*
X11521943Y-15240650D02*
X11540991Y-15250174D01*
X11540991Y-15250174D02*
X11550515Y-15269222D01*
X11550515Y-15269222D02*
X11550515Y-15373984D01*
X11940991Y-15164460D02*
X11769563Y-15421603D01*
X12198134Y-15173984D02*
X12217182Y-15173984D01*
X12217182Y-15173984D02*
X12236229Y-15183508D01*
X12236229Y-15183508D02*
X12245753Y-15193031D01*
X12245753Y-15193031D02*
X12255277Y-15212079D01*
X12255277Y-15212079D02*
X12264801Y-15250174D01*
X12264801Y-15250174D02*
X12264801Y-15297793D01*
X12264801Y-15297793D02*
X12255277Y-15335888D01*
X12255277Y-15335888D02*
X12245753Y-15354936D01*
X12245753Y-15354936D02*
X12236229Y-15364460D01*
X12236229Y-15364460D02*
X12217182Y-15373984D01*
X12217182Y-15373984D02*
X12198134Y-15373984D01*
X12198134Y-15373984D02*
X12179086Y-15364460D01*
X12179086Y-15364460D02*
X12169563Y-15354936D01*
X12169563Y-15354936D02*
X12160039Y-15335888D01*
X12160039Y-15335888D02*
X12150515Y-15297793D01*
X12150515Y-15297793D02*
X12150515Y-15250174D01*
X12150515Y-15250174D02*
X12160039Y-15212079D01*
X12160039Y-15212079D02*
X12169563Y-15193031D01*
X12169563Y-15193031D02*
X12179086Y-15183508D01*
X12179086Y-15183508D02*
X12198134Y-15173984D01*
X12350515Y-15354936D02*
X12360039Y-15364460D01*
X12360039Y-15364460D02*
X12350515Y-15373984D01*
X12350515Y-15373984D02*
X12340991Y-15364460D01*
X12340991Y-15364460D02*
X12350515Y-15354936D01*
X12350515Y-15354936D02*
X12350515Y-15373984D01*
X12483848Y-15173984D02*
X12502896Y-15173984D01*
X12502896Y-15173984D02*
X12521944Y-15183508D01*
X12521944Y-15183508D02*
X12531467Y-15193031D01*
X12531467Y-15193031D02*
X12540991Y-15212079D01*
X12540991Y-15212079D02*
X12550515Y-15250174D01*
X12550515Y-15250174D02*
X12550515Y-15297793D01*
X12550515Y-15297793D02*
X12540991Y-15335888D01*
X12540991Y-15335888D02*
X12531467Y-15354936D01*
X12531467Y-15354936D02*
X12521944Y-15364460D01*
X12521944Y-15364460D02*
X12502896Y-15373984D01*
X12502896Y-15373984D02*
X12483848Y-15373984D01*
X12483848Y-15373984D02*
X12464801Y-15364460D01*
X12464801Y-15364460D02*
X12455277Y-15354936D01*
X12455277Y-15354936D02*
X12445753Y-15335888D01*
X12445753Y-15335888D02*
X12436229Y-15297793D01*
X12436229Y-15297793D02*
X12436229Y-15250174D01*
X12436229Y-15250174D02*
X12445753Y-15212079D01*
X12445753Y-15212079D02*
X12455277Y-15193031D01*
X12455277Y-15193031D02*
X12464801Y-15183508D01*
X12464801Y-15183508D02*
X12483848Y-15173984D01*
X12721944Y-15240650D02*
X12721944Y-15373984D01*
X12674325Y-15164460D02*
X12626706Y-15307317D01*
X12626706Y-15307317D02*
X12750515Y-15307317D01*
X12807658Y-15173984D02*
X12931467Y-15173984D01*
X12931467Y-15173984D02*
X12864801Y-15250174D01*
X12864801Y-15250174D02*
X12893372Y-15250174D01*
X12893372Y-15250174D02*
X12912420Y-15259698D01*
X12912420Y-15259698D02*
X12921944Y-15269222D01*
X12921944Y-15269222D02*
X12931467Y-15288269D01*
X12931467Y-15288269D02*
X12931467Y-15335888D01*
X12931467Y-15335888D02*
X12921944Y-15354936D01*
X12921944Y-15354936D02*
X12912420Y-15364460D01*
X12912420Y-15364460D02*
X12893372Y-15373984D01*
X12893372Y-15373984D02*
X12836229Y-15373984D01*
X12836229Y-15373984D02*
X12817182Y-15364460D01*
X12817182Y-15364460D02*
X12807658Y-15354936D01*
X12998134Y-15173984D02*
X13121944Y-15173984D01*
X13121944Y-15173984D02*
X13055277Y-15250174D01*
X13055277Y-15250174D02*
X13083848Y-15250174D01*
X13083848Y-15250174D02*
X13102896Y-15259698D01*
X13102896Y-15259698D02*
X13112420Y-15269222D01*
X13112420Y-15269222D02*
X13121944Y-15288269D01*
X13121944Y-15288269D02*
X13121944Y-15335888D01*
X13121944Y-15335888D02*
X13112420Y-15354936D01*
X13112420Y-15354936D02*
X13102896Y-15364460D01*
X13102896Y-15364460D02*
X13083848Y-15373984D01*
X13083848Y-15373984D02*
X13026706Y-15373984D01*
X13026706Y-15373984D02*
X13007658Y-15364460D01*
X13007658Y-15364460D02*
X12998134Y-15354936D01*
X13198134Y-15173984D02*
X13198134Y-15212079D01*
X13274325Y-15173984D02*
X13274325Y-15212079D01*
X13569563Y-15450174D02*
X13560039Y-15440650D01*
X13560039Y-15440650D02*
X13540991Y-15412079D01*
X13540991Y-15412079D02*
X13531468Y-15393031D01*
X13531468Y-15393031D02*
X13521944Y-15364460D01*
X13521944Y-15364460D02*
X13512420Y-15316841D01*
X13512420Y-15316841D02*
X13512420Y-15278746D01*
X13512420Y-15278746D02*
X13521944Y-15231127D01*
X13521944Y-15231127D02*
X13531468Y-15202555D01*
X13531468Y-15202555D02*
X13540991Y-15183508D01*
X13540991Y-15183508D02*
X13560039Y-15154936D01*
X13560039Y-15154936D02*
X13569563Y-15145412D01*
X13636229Y-15193031D02*
X13645753Y-15183508D01*
X13645753Y-15183508D02*
X13664801Y-15173984D01*
X13664801Y-15173984D02*
X13712420Y-15173984D01*
X13712420Y-15173984D02*
X13731468Y-15183508D01*
X13731468Y-15183508D02*
X13740991Y-15193031D01*
X13740991Y-15193031D02*
X13750515Y-15212079D01*
X13750515Y-15212079D02*
X13750515Y-15231127D01*
X13750515Y-15231127D02*
X13740991Y-15259698D01*
X13740991Y-15259698D02*
X13626706Y-15373984D01*
X13626706Y-15373984D02*
X13750515Y-15373984D01*
X13988610Y-15373984D02*
X13988610Y-15173984D01*
X14074325Y-15373984D02*
X14074325Y-15269222D01*
X14074325Y-15269222D02*
X14064801Y-15250174D01*
X14064801Y-15250174D02*
X14045753Y-15240650D01*
X14045753Y-15240650D02*
X14017182Y-15240650D01*
X14017182Y-15240650D02*
X13998134Y-15250174D01*
X13998134Y-15250174D02*
X13988610Y-15259698D01*
X14198134Y-15373984D02*
X14179087Y-15364460D01*
X14179087Y-15364460D02*
X14169563Y-15354936D01*
X14169563Y-15354936D02*
X14160039Y-15335888D01*
X14160039Y-15335888D02*
X14160039Y-15278746D01*
X14160039Y-15278746D02*
X14169563Y-15259698D01*
X14169563Y-15259698D02*
X14179087Y-15250174D01*
X14179087Y-15250174D02*
X14198134Y-15240650D01*
X14198134Y-15240650D02*
X14226706Y-15240650D01*
X14226706Y-15240650D02*
X14245753Y-15250174D01*
X14245753Y-15250174D02*
X14255277Y-15259698D01*
X14255277Y-15259698D02*
X14264801Y-15278746D01*
X14264801Y-15278746D02*
X14264801Y-15335888D01*
X14264801Y-15335888D02*
X14255277Y-15354936D01*
X14255277Y-15354936D02*
X14245753Y-15364460D01*
X14245753Y-15364460D02*
X14226706Y-15373984D01*
X14226706Y-15373984D02*
X14198134Y-15373984D01*
X14379087Y-15373984D02*
X14360039Y-15364460D01*
X14360039Y-15364460D02*
X14350515Y-15345412D01*
X14350515Y-15345412D02*
X14350515Y-15173984D01*
X14531468Y-15364460D02*
X14512420Y-15373984D01*
X14512420Y-15373984D02*
X14474325Y-15373984D01*
X14474325Y-15373984D02*
X14455277Y-15364460D01*
X14455277Y-15364460D02*
X14445753Y-15345412D01*
X14445753Y-15345412D02*
X14445753Y-15269222D01*
X14445753Y-15269222D02*
X14455277Y-15250174D01*
X14455277Y-15250174D02*
X14474325Y-15240650D01*
X14474325Y-15240650D02*
X14512420Y-15240650D01*
X14512420Y-15240650D02*
X14531468Y-15250174D01*
X14531468Y-15250174D02*
X14540991Y-15269222D01*
X14540991Y-15269222D02*
X14540991Y-15288269D01*
X14540991Y-15288269D02*
X14445753Y-15307317D01*
X14617182Y-15364460D02*
X14636230Y-15373984D01*
X14636230Y-15373984D02*
X14674325Y-15373984D01*
X14674325Y-15373984D02*
X14693372Y-15364460D01*
X14693372Y-15364460D02*
X14702896Y-15345412D01*
X14702896Y-15345412D02*
X14702896Y-15335888D01*
X14702896Y-15335888D02*
X14693372Y-15316841D01*
X14693372Y-15316841D02*
X14674325Y-15307317D01*
X14674325Y-15307317D02*
X14645753Y-15307317D01*
X14645753Y-15307317D02*
X14626706Y-15297793D01*
X14626706Y-15297793D02*
X14617182Y-15278746D01*
X14617182Y-15278746D02*
X14617182Y-15269222D01*
X14617182Y-15269222D02*
X14626706Y-15250174D01*
X14626706Y-15250174D02*
X14645753Y-15240650D01*
X14645753Y-15240650D02*
X14674325Y-15240650D01*
X14674325Y-15240650D02*
X14693372Y-15250174D01*
X14769563Y-15450174D02*
X14779087Y-15440650D01*
X14779087Y-15440650D02*
X14798134Y-15412079D01*
X14798134Y-15412079D02*
X14807658Y-15393031D01*
X14807658Y-15393031D02*
X14817182Y-15364460D01*
X14817182Y-15364460D02*
X14826706Y-15316841D01*
X14826706Y-15316841D02*
X14826706Y-15278746D01*
X14826706Y-15278746D02*
X14817182Y-15231127D01*
X14817182Y-15231127D02*
X14807658Y-15202555D01*
X14807658Y-15202555D02*
X14798134Y-15183508D01*
X14798134Y-15183508D02*
X14779087Y-15154936D01*
X14779087Y-15154936D02*
X14769563Y-15145412D01*
X9794500Y-15446500D02*
X9994500Y-15646500D01*
X9994500Y-15446500D02*
X9794500Y-15646500D01*
X9994500Y-15546500D02*
G75*
G02*
X9794500Y-15546500I-100000J0D01*
G01*
X9794500Y-15546500D02*
G75*
G02*
X9994500Y-15546500I100000J0D01*
G01*
X10245753Y-15457031D02*
X10255277Y-15447508D01*
X10255277Y-15447508D02*
X10274324Y-15437984D01*
X10274324Y-15437984D02*
X10321944Y-15437984D01*
X10321944Y-15437984D02*
X10340991Y-15447508D01*
X10340991Y-15447508D02*
X10350515Y-15457031D01*
X10350515Y-15457031D02*
X10360039Y-15476079D01*
X10360039Y-15476079D02*
X10360039Y-15495127D01*
X10360039Y-15495127D02*
X10350515Y-15523698D01*
X10350515Y-15523698D02*
X10236229Y-15637984D01*
X10236229Y-15637984D02*
X10360039Y-15637984D01*
X10445753Y-15618936D02*
X10455277Y-15628460D01*
X10455277Y-15628460D02*
X10445753Y-15637984D01*
X10445753Y-15637984D02*
X10436229Y-15628460D01*
X10436229Y-15628460D02*
X10445753Y-15618936D01*
X10445753Y-15618936D02*
X10445753Y-15637984D01*
X10531467Y-15457031D02*
X10540991Y-15447508D01*
X10540991Y-15447508D02*
X10560039Y-15437984D01*
X10560039Y-15437984D02*
X10607658Y-15437984D01*
X10607658Y-15437984D02*
X10626705Y-15447508D01*
X10626705Y-15447508D02*
X10636229Y-15457031D01*
X10636229Y-15457031D02*
X10645753Y-15476079D01*
X10645753Y-15476079D02*
X10645753Y-15495127D01*
X10645753Y-15495127D02*
X10636229Y-15523698D01*
X10636229Y-15523698D02*
X10521944Y-15637984D01*
X10521944Y-15637984D02*
X10645753Y-15637984D01*
X10769563Y-15437984D02*
X10788610Y-15437984D01*
X10788610Y-15437984D02*
X10807658Y-15447508D01*
X10807658Y-15447508D02*
X10817182Y-15457031D01*
X10817182Y-15457031D02*
X10826705Y-15476079D01*
X10826705Y-15476079D02*
X10836229Y-15514174D01*
X10836229Y-15514174D02*
X10836229Y-15561793D01*
X10836229Y-15561793D02*
X10826705Y-15599888D01*
X10826705Y-15599888D02*
X10817182Y-15618936D01*
X10817182Y-15618936D02*
X10807658Y-15628460D01*
X10807658Y-15628460D02*
X10788610Y-15637984D01*
X10788610Y-15637984D02*
X10769563Y-15637984D01*
X10769563Y-15637984D02*
X10750515Y-15628460D01*
X10750515Y-15628460D02*
X10740991Y-15618936D01*
X10740991Y-15618936D02*
X10731467Y-15599888D01*
X10731467Y-15599888D02*
X10721944Y-15561793D01*
X10721944Y-15561793D02*
X10721944Y-15514174D01*
X10721944Y-15514174D02*
X10731467Y-15476079D01*
X10731467Y-15476079D02*
X10740991Y-15457031D01*
X10740991Y-15457031D02*
X10750515Y-15447508D01*
X10750515Y-15447508D02*
X10769563Y-15437984D01*
X10960039Y-15437984D02*
X10979086Y-15437984D01*
X10979086Y-15437984D02*
X10998134Y-15447508D01*
X10998134Y-15447508D02*
X11007658Y-15457031D01*
X11007658Y-15457031D02*
X11017182Y-15476079D01*
X11017182Y-15476079D02*
X11026705Y-15514174D01*
X11026705Y-15514174D02*
X11026705Y-15561793D01*
X11026705Y-15561793D02*
X11017182Y-15599888D01*
X11017182Y-15599888D02*
X11007658Y-15618936D01*
X11007658Y-15618936D02*
X10998134Y-15628460D01*
X10998134Y-15628460D02*
X10979086Y-15637984D01*
X10979086Y-15637984D02*
X10960039Y-15637984D01*
X10960039Y-15637984D02*
X10940991Y-15628460D01*
X10940991Y-15628460D02*
X10931467Y-15618936D01*
X10931467Y-15618936D02*
X10921944Y-15599888D01*
X10921944Y-15599888D02*
X10912420Y-15561793D01*
X10912420Y-15561793D02*
X10912420Y-15514174D01*
X10912420Y-15514174D02*
X10921944Y-15476079D01*
X10921944Y-15476079D02*
X10931467Y-15457031D01*
X10931467Y-15457031D02*
X10940991Y-15447508D01*
X10940991Y-15447508D02*
X10960039Y-15437984D01*
X11112420Y-15637984D02*
X11112420Y-15504650D01*
X11112420Y-15523698D02*
X11121944Y-15514174D01*
X11121944Y-15514174D02*
X11140991Y-15504650D01*
X11140991Y-15504650D02*
X11169563Y-15504650D01*
X11169563Y-15504650D02*
X11188610Y-15514174D01*
X11188610Y-15514174D02*
X11198134Y-15533222D01*
X11198134Y-15533222D02*
X11198134Y-15637984D01*
X11198134Y-15533222D02*
X11207658Y-15514174D01*
X11207658Y-15514174D02*
X11226705Y-15504650D01*
X11226705Y-15504650D02*
X11255277Y-15504650D01*
X11255277Y-15504650D02*
X11274324Y-15514174D01*
X11274324Y-15514174D02*
X11283848Y-15533222D01*
X11283848Y-15533222D02*
X11283848Y-15637984D01*
X11379086Y-15637984D02*
X11379086Y-15504650D01*
X11379086Y-15523698D02*
X11388610Y-15514174D01*
X11388610Y-15514174D02*
X11407658Y-15504650D01*
X11407658Y-15504650D02*
X11436229Y-15504650D01*
X11436229Y-15504650D02*
X11455277Y-15514174D01*
X11455277Y-15514174D02*
X11464801Y-15533222D01*
X11464801Y-15533222D02*
X11464801Y-15637984D01*
X11464801Y-15533222D02*
X11474324Y-15514174D01*
X11474324Y-15514174D02*
X11493372Y-15504650D01*
X11493372Y-15504650D02*
X11521943Y-15504650D01*
X11521943Y-15504650D02*
X11540991Y-15514174D01*
X11540991Y-15514174D02*
X11550515Y-15533222D01*
X11550515Y-15533222D02*
X11550515Y-15637984D01*
X11940991Y-15428460D02*
X11769563Y-15685603D01*
X12198134Y-15437984D02*
X12217182Y-15437984D01*
X12217182Y-15437984D02*
X12236229Y-15447508D01*
X12236229Y-15447508D02*
X12245753Y-15457031D01*
X12245753Y-15457031D02*
X12255277Y-15476079D01*
X12255277Y-15476079D02*
X12264801Y-15514174D01*
X12264801Y-15514174D02*
X12264801Y-15561793D01*
X12264801Y-15561793D02*
X12255277Y-15599888D01*
X12255277Y-15599888D02*
X12245753Y-15618936D01*
X12245753Y-15618936D02*
X12236229Y-15628460D01*
X12236229Y-15628460D02*
X12217182Y-15637984D01*
X12217182Y-15637984D02*
X12198134Y-15637984D01*
X12198134Y-15637984D02*
X12179086Y-15628460D01*
X12179086Y-15628460D02*
X12169563Y-15618936D01*
X12169563Y-15618936D02*
X12160039Y-15599888D01*
X12160039Y-15599888D02*
X12150515Y-15561793D01*
X12150515Y-15561793D02*
X12150515Y-15514174D01*
X12150515Y-15514174D02*
X12160039Y-15476079D01*
X12160039Y-15476079D02*
X12169563Y-15457031D01*
X12169563Y-15457031D02*
X12179086Y-15447508D01*
X12179086Y-15447508D02*
X12198134Y-15437984D01*
X12350515Y-15618936D02*
X12360039Y-15628460D01*
X12360039Y-15628460D02*
X12350515Y-15637984D01*
X12350515Y-15637984D02*
X12340991Y-15628460D01*
X12340991Y-15628460D02*
X12350515Y-15618936D01*
X12350515Y-15618936D02*
X12350515Y-15637984D01*
X12483848Y-15437984D02*
X12502896Y-15437984D01*
X12502896Y-15437984D02*
X12521944Y-15447508D01*
X12521944Y-15447508D02*
X12531467Y-15457031D01*
X12531467Y-15457031D02*
X12540991Y-15476079D01*
X12540991Y-15476079D02*
X12550515Y-15514174D01*
X12550515Y-15514174D02*
X12550515Y-15561793D01*
X12550515Y-15561793D02*
X12540991Y-15599888D01*
X12540991Y-15599888D02*
X12531467Y-15618936D01*
X12531467Y-15618936D02*
X12521944Y-15628460D01*
X12521944Y-15628460D02*
X12502896Y-15637984D01*
X12502896Y-15637984D02*
X12483848Y-15637984D01*
X12483848Y-15637984D02*
X12464801Y-15628460D01*
X12464801Y-15628460D02*
X12455277Y-15618936D01*
X12455277Y-15618936D02*
X12445753Y-15599888D01*
X12445753Y-15599888D02*
X12436229Y-15561793D01*
X12436229Y-15561793D02*
X12436229Y-15514174D01*
X12436229Y-15514174D02*
X12445753Y-15476079D01*
X12445753Y-15476079D02*
X12455277Y-15457031D01*
X12455277Y-15457031D02*
X12464801Y-15447508D01*
X12464801Y-15447508D02*
X12483848Y-15437984D01*
X12664801Y-15523698D02*
X12645753Y-15514174D01*
X12645753Y-15514174D02*
X12636229Y-15504650D01*
X12636229Y-15504650D02*
X12626706Y-15485603D01*
X12626706Y-15485603D02*
X12626706Y-15476079D01*
X12626706Y-15476079D02*
X12636229Y-15457031D01*
X12636229Y-15457031D02*
X12645753Y-15447508D01*
X12645753Y-15447508D02*
X12664801Y-15437984D01*
X12664801Y-15437984D02*
X12702896Y-15437984D01*
X12702896Y-15437984D02*
X12721944Y-15447508D01*
X12721944Y-15447508D02*
X12731467Y-15457031D01*
X12731467Y-15457031D02*
X12740991Y-15476079D01*
X12740991Y-15476079D02*
X12740991Y-15485603D01*
X12740991Y-15485603D02*
X12731467Y-15504650D01*
X12731467Y-15504650D02*
X12721944Y-15514174D01*
X12721944Y-15514174D02*
X12702896Y-15523698D01*
X12702896Y-15523698D02*
X12664801Y-15523698D01*
X12664801Y-15523698D02*
X12645753Y-15533222D01*
X12645753Y-15533222D02*
X12636229Y-15542746D01*
X12636229Y-15542746D02*
X12626706Y-15561793D01*
X12626706Y-15561793D02*
X12626706Y-15599888D01*
X12626706Y-15599888D02*
X12636229Y-15618936D01*
X12636229Y-15618936D02*
X12645753Y-15628460D01*
X12645753Y-15628460D02*
X12664801Y-15637984D01*
X12664801Y-15637984D02*
X12702896Y-15637984D01*
X12702896Y-15637984D02*
X12721944Y-15628460D01*
X12721944Y-15628460D02*
X12731467Y-15618936D01*
X12731467Y-15618936D02*
X12740991Y-15599888D01*
X12740991Y-15599888D02*
X12740991Y-15561793D01*
X12740991Y-15561793D02*
X12731467Y-15542746D01*
X12731467Y-15542746D02*
X12721944Y-15533222D01*
X12721944Y-15533222D02*
X12702896Y-15523698D01*
X12912420Y-15437984D02*
X12874325Y-15437984D01*
X12874325Y-15437984D02*
X12855277Y-15447508D01*
X12855277Y-15447508D02*
X12845753Y-15457031D01*
X12845753Y-15457031D02*
X12826706Y-15485603D01*
X12826706Y-15485603D02*
X12817182Y-15523698D01*
X12817182Y-15523698D02*
X12817182Y-15599888D01*
X12817182Y-15599888D02*
X12826706Y-15618936D01*
X12826706Y-15618936D02*
X12836229Y-15628460D01*
X12836229Y-15628460D02*
X12855277Y-15637984D01*
X12855277Y-15637984D02*
X12893372Y-15637984D01*
X12893372Y-15637984D02*
X12912420Y-15628460D01*
X12912420Y-15628460D02*
X12921944Y-15618936D01*
X12921944Y-15618936D02*
X12931467Y-15599888D01*
X12931467Y-15599888D02*
X12931467Y-15552269D01*
X12931467Y-15552269D02*
X12921944Y-15533222D01*
X12921944Y-15533222D02*
X12912420Y-15523698D01*
X12912420Y-15523698D02*
X12893372Y-15514174D01*
X12893372Y-15514174D02*
X12855277Y-15514174D01*
X12855277Y-15514174D02*
X12836229Y-15523698D01*
X12836229Y-15523698D02*
X12826706Y-15533222D01*
X12826706Y-15533222D02*
X12817182Y-15552269D01*
X13102896Y-15437984D02*
X13064801Y-15437984D01*
X13064801Y-15437984D02*
X13045753Y-15447508D01*
X13045753Y-15447508D02*
X13036229Y-15457031D01*
X13036229Y-15457031D02*
X13017182Y-15485603D01*
X13017182Y-15485603D02*
X13007658Y-15523698D01*
X13007658Y-15523698D02*
X13007658Y-15599888D01*
X13007658Y-15599888D02*
X13017182Y-15618936D01*
X13017182Y-15618936D02*
X13026706Y-15628460D01*
X13026706Y-15628460D02*
X13045753Y-15637984D01*
X13045753Y-15637984D02*
X13083848Y-15637984D01*
X13083848Y-15637984D02*
X13102896Y-15628460D01*
X13102896Y-15628460D02*
X13112420Y-15618936D01*
X13112420Y-15618936D02*
X13121944Y-15599888D01*
X13121944Y-15599888D02*
X13121944Y-15552269D01*
X13121944Y-15552269D02*
X13112420Y-15533222D01*
X13112420Y-15533222D02*
X13102896Y-15523698D01*
X13102896Y-15523698D02*
X13083848Y-15514174D01*
X13083848Y-15514174D02*
X13045753Y-15514174D01*
X13045753Y-15514174D02*
X13026706Y-15523698D01*
X13026706Y-15523698D02*
X13017182Y-15533222D01*
X13017182Y-15533222D02*
X13007658Y-15552269D01*
X13198134Y-15437984D02*
X13198134Y-15476079D01*
X13274325Y-15437984D02*
X13274325Y-15476079D01*
X13569563Y-15714174D02*
X13560039Y-15704650D01*
X13560039Y-15704650D02*
X13540991Y-15676079D01*
X13540991Y-15676079D02*
X13531468Y-15657031D01*
X13531468Y-15657031D02*
X13521944Y-15628460D01*
X13521944Y-15628460D02*
X13512420Y-15580841D01*
X13512420Y-15580841D02*
X13512420Y-15542746D01*
X13512420Y-15542746D02*
X13521944Y-15495127D01*
X13521944Y-15495127D02*
X13531468Y-15466555D01*
X13531468Y-15466555D02*
X13540991Y-15447508D01*
X13540991Y-15447508D02*
X13560039Y-15418936D01*
X13560039Y-15418936D02*
X13569563Y-15409412D01*
X13731468Y-15504650D02*
X13731468Y-15637984D01*
X13683848Y-15428460D02*
X13636229Y-15571317D01*
X13636229Y-15571317D02*
X13760039Y-15571317D01*
X13988610Y-15637984D02*
X13988610Y-15437984D01*
X14074325Y-15637984D02*
X14074325Y-15533222D01*
X14074325Y-15533222D02*
X14064801Y-15514174D01*
X14064801Y-15514174D02*
X14045753Y-15504650D01*
X14045753Y-15504650D02*
X14017182Y-15504650D01*
X14017182Y-15504650D02*
X13998134Y-15514174D01*
X13998134Y-15514174D02*
X13988610Y-15523698D01*
X14198134Y-15637984D02*
X14179087Y-15628460D01*
X14179087Y-15628460D02*
X14169563Y-15618936D01*
X14169563Y-15618936D02*
X14160039Y-15599888D01*
X14160039Y-15599888D02*
X14160039Y-15542746D01*
X14160039Y-15542746D02*
X14169563Y-15523698D01*
X14169563Y-15523698D02*
X14179087Y-15514174D01*
X14179087Y-15514174D02*
X14198134Y-15504650D01*
X14198134Y-15504650D02*
X14226706Y-15504650D01*
X14226706Y-15504650D02*
X14245753Y-15514174D01*
X14245753Y-15514174D02*
X14255277Y-15523698D01*
X14255277Y-15523698D02*
X14264801Y-15542746D01*
X14264801Y-15542746D02*
X14264801Y-15599888D01*
X14264801Y-15599888D02*
X14255277Y-15618936D01*
X14255277Y-15618936D02*
X14245753Y-15628460D01*
X14245753Y-15628460D02*
X14226706Y-15637984D01*
X14226706Y-15637984D02*
X14198134Y-15637984D01*
X14379087Y-15637984D02*
X14360039Y-15628460D01*
X14360039Y-15628460D02*
X14350515Y-15609412D01*
X14350515Y-15609412D02*
X14350515Y-15437984D01*
X14531468Y-15628460D02*
X14512420Y-15637984D01*
X14512420Y-15637984D02*
X14474325Y-15637984D01*
X14474325Y-15637984D02*
X14455277Y-15628460D01*
X14455277Y-15628460D02*
X14445753Y-15609412D01*
X14445753Y-15609412D02*
X14445753Y-15533222D01*
X14445753Y-15533222D02*
X14455277Y-15514174D01*
X14455277Y-15514174D02*
X14474325Y-15504650D01*
X14474325Y-15504650D02*
X14512420Y-15504650D01*
X14512420Y-15504650D02*
X14531468Y-15514174D01*
X14531468Y-15514174D02*
X14540991Y-15533222D01*
X14540991Y-15533222D02*
X14540991Y-15552269D01*
X14540991Y-15552269D02*
X14445753Y-15571317D01*
X14617182Y-15628460D02*
X14636230Y-15637984D01*
X14636230Y-15637984D02*
X14674325Y-15637984D01*
X14674325Y-15637984D02*
X14693372Y-15628460D01*
X14693372Y-15628460D02*
X14702896Y-15609412D01*
X14702896Y-15609412D02*
X14702896Y-15599888D01*
X14702896Y-15599888D02*
X14693372Y-15580841D01*
X14693372Y-15580841D02*
X14674325Y-15571317D01*
X14674325Y-15571317D02*
X14645753Y-15571317D01*
X14645753Y-15571317D02*
X14626706Y-15561793D01*
X14626706Y-15561793D02*
X14617182Y-15542746D01*
X14617182Y-15542746D02*
X14617182Y-15533222D01*
X14617182Y-15533222D02*
X14626706Y-15514174D01*
X14626706Y-15514174D02*
X14645753Y-15504650D01*
X14645753Y-15504650D02*
X14674325Y-15504650D01*
X14674325Y-15504650D02*
X14693372Y-15514174D01*
X14769563Y-15714174D02*
X14779087Y-15704650D01*
X14779087Y-15704650D02*
X14798134Y-15676079D01*
X14798134Y-15676079D02*
X14807658Y-15657031D01*
X14807658Y-15657031D02*
X14817182Y-15628460D01*
X14817182Y-15628460D02*
X14826706Y-15580841D01*
X14826706Y-15580841D02*
X14826706Y-15542746D01*
X14826706Y-15542746D02*
X14817182Y-15495127D01*
X14817182Y-15495127D02*
X14807658Y-15466555D01*
X14807658Y-15466555D02*
X14798134Y-15447508D01*
X14798134Y-15447508D02*
X14779087Y-15418936D01*
X14779087Y-15418936D02*
X14769563Y-15409412D01*
M02*
